<?xml version="1.0" encoding="UTF-8"?>
<svg width="200" height="120" viewBox="0 0 200 120" fill="none" xmlns="http://www.w3.org/2000/svg">
    <path d="M32.5 95.8333C14.5507 95.8333 0 81.2826 0 63.3333C0 45.384 14.5507 30.8333 32.5 30.8333C34.3507 30.8333 36.1614 31.0073 37.9167 31.3333C43.8767 13.356 60.944 0.833313 81.25 0.833313C106.895 0.833313 127.5 21.4386 127.5 47.0833C127.5 49.6433 127.246 52.1413 126.75 54.5833C127.746 54.384 128.814 54.25 129.917 54.25C138.031 54.25 144.583 60.8013 144.583 68.9167C144.583 77.032 138.031 83.5833 129.917 83.5833C128.591 83.5833 127.305 83.3753 126.083 83.0833C121.661 90.902 113.423 95.8333 104.167 95.8333C99.9025 95.8333 95.8935 94.6793 92.4167 92.6667C87.024 94.902 81.0774 96.1667 74.7917 96.1667C65.8654 96.1667 57.5774 93.7547 50.5833 89.5C45.3307 93.4453 39.1387 95.8333 32.5 95.8333Z" fill="white"/>
</svg>