<svg width="1000" height="90" viewBox="0 0 1000 90" fill="none" xmlns="http://www.w3.org/2000/svg">
<rect width="300" height="90" rx="16" fill="#29313B"/>
<circle cx="46.1092" cy="45.0003" r="4.13072" fill="white"/>
<path d="M27.5195 45.0001C27.5195 34.7341 35.8418 26.4119 46.1078 26.4119" stroke="white" stroke-width="4.64706" stroke-linecap="round"/>
<path d="M64.6973 45.0001C64.6973 55.2661 56.375 63.5883 46.109 63.5883" stroke="white" stroke-width="4.64706" stroke-linecap="round"/>
<path d="M35.7832 45.0003C35.7832 39.297 40.4067 34.6735 46.11 34.6735" stroke="white" stroke-width="4.64706" stroke-linecap="round"/>
<path d="M56.4336 44.9998C56.4336 50.7031 51.8101 55.3266 46.1068 55.3266" stroke="white" stroke-width="4.64706" stroke-linecap="round"/>
<path d="M97.4313 58H91.8766V31.2431H97.4313V58ZM104.512 34.0386C106.69 31.8361 109.461 30.7348 112.825 30.7348C117.327 30.7348 120.619 32.2112 122.7 35.1641C123.85 36.822 124.467 38.486 124.552 40.156H118.961C118.598 38.8732 118.132 37.9051 117.563 37.2516C116.547 36.0898 115.04 35.509 113.043 35.509C111.01 35.509 109.407 36.3319 108.233 37.9777C107.059 39.6114 106.472 41.9289 106.472 44.9301C106.472 47.9314 107.089 50.1823 108.324 51.6829C109.57 53.1714 111.149 53.9157 113.061 53.9157C115.022 53.9157 116.516 53.2743 117.545 51.9915C118.114 51.3017 118.586 50.267 118.961 48.8874H124.498C124.013 51.8039 122.773 54.1759 120.776 56.0032C118.792 57.8306 116.244 58.7443 113.134 58.7443C109.286 58.7443 106.26 57.5099 104.058 55.0411C101.855 52.5603 100.754 49.1597 100.754 44.8394C100.754 40.1681 102.006 36.5679 104.512 34.0386ZM138.93 35.8902H133.72V43.7684H138.93C140.249 43.7684 141.271 43.4477 141.997 42.8063C142.736 42.1649 143.105 41.1484 143.105 39.7567C143.105 38.365 142.736 37.3726 141.997 36.7796C141.271 36.1867 140.249 35.8902 138.93 35.8902ZM139.401 48.3791H133.72V58H128.165V31.2431H139.819C142.506 31.2431 144.648 31.9329 146.245 33.3125C147.842 34.6921 148.641 36.828 148.641 39.7204C148.641 42.8789 147.842 45.1117 146.245 46.4187C144.648 47.7256 142.366 48.3791 139.401 48.3791ZM154.687 34.0386C156.865 31.8361 159.636 30.7348 163.001 30.7348C167.502 30.7348 170.794 32.2112 172.876 35.1641C174.025 36.822 174.642 38.486 174.727 40.156H169.136C168.773 38.8732 168.307 37.9051 167.738 37.2516C166.722 36.0898 165.215 35.509 163.218 35.509C161.185 35.509 159.582 36.3319 158.408 37.9777C157.234 39.6114 156.647 41.9289 156.647 44.9301C156.647 47.9314 157.264 50.1823 158.499 51.6829C159.745 53.1714 161.324 53.9157 163.237 53.9157C165.197 53.9157 166.692 53.2743 167.72 51.9915C168.289 51.3017 168.761 50.267 169.136 48.8874H174.673C174.189 51.8039 172.948 54.1759 170.951 56.0032C168.967 57.8306 166.419 58.7443 163.309 58.7443C159.461 58.7443 156.435 57.5099 154.233 55.0411C152.03 52.5603 150.929 49.1597 150.929 44.8394C150.929 40.1681 152.182 36.5679 154.687 34.0386ZM187.817 31.2431H193.408V53.1896H206.659V58H187.817V31.2431ZM214.919 58H209.364V31.2431H214.919V58ZM235.069 31.2431H240.878L231.747 58H226.465L217.425 31.2431H223.397L229.206 51.5558L235.069 31.2431ZM263.243 35.9809H249.084V41.6627H262.081V46.3097H249.084V53.1896H263.896V58H243.62V31.2431H263.243V35.9809Z" fill="white"/>
<rect x="374.5" width="461" height="90" rx="16" fill="#29313C"/>
<path d="M467.091 47.6893L468.562 42.3888H465.548L464.132 47.6893H467.091ZM456.817 47.6893H460.502L461.936 42.3888H458.233L459.05 39.3392H462.753L464.731 32.0237H468.344L466.365 39.3392H469.378L471.303 32.0237H474.915L472.991 39.3392H476.639L475.823 42.3888H472.174L470.704 47.6893H474.407L473.59 50.739H469.887L467.944 58H464.332L466.274 50.739H463.297L461.319 58H457.706L459.685 50.739H456L456.817 47.6893ZM481.777 35.7449C481.341 35.7449 480.936 35.6905 480.56 35.5816C480.197 35.4727 479.877 35.3214 479.598 35.1278C479.332 34.9341 479.12 34.7042 478.963 34.438C478.818 34.1717 478.745 33.8813 478.745 33.5666C478.745 33.2278 478.824 32.9131 478.981 32.6227C479.138 32.3323 479.35 32.0842 479.616 31.8784C479.895 31.6606 480.216 31.4912 480.579 31.3702C480.954 31.2492 481.353 31.1887 481.777 31.1887C482.212 31.1887 482.618 31.2492 482.993 31.3702C483.38 31.4912 483.707 31.6606 483.973 31.8784C484.251 32.0842 484.469 32.3323 484.627 32.6227C484.784 32.9131 484.863 33.2278 484.863 33.5666C484.863 33.8813 484.784 34.1717 484.627 34.438C484.481 34.7042 484.27 34.9341 483.991 35.1278C483.725 35.3214 483.398 35.4727 483.011 35.5816C482.636 35.6905 482.224 35.7449 481.777 35.7449ZM479.181 38.2137H484.427V58H479.181V38.2137ZM501.273 45.3114C501.176 44.5731 500.928 43.9076 500.528 43.3146C499.947 42.5159 499.046 42.1165 497.824 42.1165C496.081 42.1165 494.889 42.9818 494.247 44.7123C493.909 45.632 493.739 46.8543 493.739 48.3791C493.739 49.8313 493.909 50.9992 494.247 51.8826C494.865 53.5284 496.026 54.3513 497.733 54.3513C498.943 54.3513 499.802 54.0246 500.31 53.3711C500.819 52.7176 501.127 51.8705 501.236 50.8297H506.519C506.398 52.403 505.829 53.8915 504.812 55.2953C503.191 57.5583 500.788 58.6898 497.606 58.6898C494.423 58.6898 492.081 57.7459 490.581 55.858C489.08 53.9701 488.33 51.5195 488.33 48.5062C488.33 45.1056 489.159 42.4614 490.817 40.5735C492.475 38.6857 494.762 37.7417 497.678 37.7417C500.159 37.7417 502.186 38.2984 503.759 39.4118C505.345 40.5251 506.283 42.4917 506.573 45.3114H501.273ZM519.352 42.298C517.477 42.298 516.188 43.1875 515.486 44.9665C515.123 45.9104 514.941 47.1085 514.941 48.5607C514.941 50.86 515.553 52.4756 516.775 53.4074C517.501 53.952 518.36 54.2243 519.352 54.2243C520.793 54.2243 521.888 53.6676 522.638 52.5542C523.4 51.4409 523.782 49.9584 523.782 48.1068C523.782 46.582 523.431 45.2327 522.729 44.0588C522.039 42.885 520.914 42.298 519.352 42.298ZM529.119 47.8527C529.119 51.338 528.332 53.9943 526.759 55.8217C525.198 57.6491 523.183 58.5627 520.714 58.5627C519.141 58.5627 517.834 58.1694 516.793 57.3828C516.224 56.9472 515.668 56.3118 515.123 55.4768V65.7875H510.004V38.2137H514.96V41.1363C515.516 40.277 516.109 39.5993 516.739 39.1032C517.888 38.2197 519.256 37.778 520.841 37.778C523.152 37.778 525.107 38.6312 526.704 40.3375C528.314 42.0439 529.119 44.5489 529.119 47.8527ZM544.693 45.3114C544.597 44.5731 544.349 43.9076 543.949 43.3146C543.368 42.5159 542.467 42.1165 541.244 42.1165C539.502 42.1165 538.31 42.9818 537.668 44.7123C537.33 45.632 537.16 46.8543 537.16 48.3791C537.16 49.8313 537.33 50.9992 537.668 51.8826C538.286 53.5284 539.447 54.3513 541.154 54.3513C542.364 54.3513 543.223 54.0246 543.731 53.3711C544.24 52.7176 544.548 51.8705 544.657 50.8297H549.94C549.819 52.403 549.25 53.8915 548.233 55.2953C546.612 57.5583 544.209 58.6898 541.027 58.6898C537.844 58.6898 535.502 57.7459 534.002 55.858C532.501 53.9701 531.751 51.5195 531.751 48.5062C531.751 45.1056 532.58 42.4614 534.238 40.5735C535.896 38.6857 538.183 37.7417 541.099 37.7417C543.58 37.7417 545.607 38.2984 547.18 39.4118C548.766 40.5251 549.704 42.4917 549.994 45.3114H544.693ZM557.636 31.2431L561.176 46.5639L561.938 50.8297L562.719 46.6546L565.732 31.2431H571.632L574.809 46.5639L575.625 50.8297L576.442 46.7273L580.018 31.2431H585.7L578.167 58H572.83L569.599 42.3525L568.655 37.179L567.711 42.3525L564.48 58H559.288L551.7 31.2431H557.636ZM589.095 31.2794H608.064V35.9809H594.649V42.1347H606.394V46.7817H594.649V58H589.095V31.2794ZM611.822 31.2431H617.413V53.1896H630.664V58H611.822V31.2431ZM639.287 38.2137V50.1399C639.287 51.2654 639.42 52.1125 639.686 52.6813C640.158 53.6857 641.084 54.188 642.463 54.188C644.23 54.188 645.44 53.474 646.094 52.046C646.433 51.2714 646.602 50.2489 646.602 48.9782V38.2137H651.848V58H646.82V55.2045C646.771 55.265 646.65 55.4465 646.457 55.7491C646.263 56.0516 646.033 56.3179 645.767 56.5478C644.956 57.2739 644.17 57.7701 643.407 58.0363C642.657 58.3025 641.773 58.4357 640.757 58.4357C637.828 58.4357 635.856 57.3828 634.839 55.2771C634.27 54.1153 633.986 52.403 633.986 50.1399V38.2137H639.287ZM654.916 58L661.669 47.9798L655.206 38.25H661.542L664.845 43.9862L668.076 38.25H674.23L667.732 47.889L674.484 58H668.04L664.628 52.0641L661.197 58H654.916ZM691.13 48.1432C691.13 46.1585 690.725 44.6337 689.914 43.5687C689.103 42.4917 687.941 41.9531 686.429 41.9531C684.916 41.9531 683.748 42.4917 682.925 43.5687C682.114 44.6337 681.709 46.1585 681.709 48.1432C681.709 50.1278 682.114 51.6587 682.925 52.7358C683.748 53.8128 684.916 54.3513 686.429 54.3513C687.941 54.3513 689.103 53.8128 689.914 52.7358C690.725 51.6587 691.13 50.1278 691.13 48.1432ZM686.447 58.6898C683.046 58.6898 680.511 57.6612 678.841 55.6039C677.171 53.5345 676.336 51.0476 676.336 48.1432C676.336 45.2871 677.171 42.8123 678.841 40.7188C680.511 38.6252 683.046 37.5784 686.447 37.5784C689.847 37.5784 692.383 38.6252 694.053 40.7188C695.723 42.8123 696.558 45.2871 696.558 48.1432C696.558 51.0476 695.723 53.5345 694.053 55.6039C692.383 57.6612 689.847 58.6898 686.447 58.6898ZM711.715 37.778V43.0786C711.389 43.0423 711.098 43.0181 710.844 43.006C710.59 42.9939 710.384 42.9878 710.227 42.9878C708.145 42.9878 706.748 43.6655 706.034 45.0209C705.634 45.7833 705.434 46.9572 705.434 48.5425V58H700.225V38.2137H705.162V41.6627C705.961 40.3436 706.657 39.442 707.25 38.958C708.218 38.1471 709.476 37.7417 711.025 37.7417C711.122 37.7417 711.201 37.7478 711.261 37.7599C711.334 37.7599 711.485 37.7659 711.715 37.778ZM731.792 52.3364H728.815V58H723.75V52.3364H713.331V47.8164L723.006 31.8421H728.815V48.2884H731.792V52.3364ZM723.75 48.2884V36.9249L717.161 48.2884H723.75ZM752.649 36.0717C751.875 36.8341 750.798 38.1955 749.418 40.156C748.039 42.1044 746.883 44.1193 745.951 46.2008C745.213 47.8346 744.547 49.8313 743.954 52.1912C743.361 54.551 743.065 56.4873 743.065 58H737.692C737.849 53.2803 739.398 48.3731 742.339 43.2783C744.239 40.1197 745.83 37.9172 747.113 36.6707H733.988L734.061 32.0237H752.649V36.0717Z" fill="white"/>
<path fill-rule="evenodd" clip-rule="evenodd" d="M1000 16C1000 7.16345 992.837 0 984 0H926C917.163 0 910 7.16344 910 16V74C910 82.8366 917.163 90 926 90H984C992.837 90 1000 82.8366 1000 74V16ZM947.625 62.151C946.918 61.8315 946.083 62.0622 945.643 62.7009C945.092 63.5003 945.375 64.6022 946.245 65.0324C947.085 65.4473 947.979 65.8857 948.929 66.3473C950.545 67.1824 952.079 67.9464 953.533 68.6393C954.965 69.3688 956.076 69.937 956.866 70.344C959.532 71.6396 962.244 72.8149 965.001 73.8699C967.736 74.9615 970.371 75.6781 972.906 76.0195C973.747 76.138 974.563 76.231 975.355 76.2272C976.983 76.2193 978.508 75.9167 979.928 75.3905C982.037 74.6087 983.768 73.0471 985.12 70.7057C985.986 69.2057 986.344 67.6564 986.194 66.0576C986.102 64.4433 985.658 62.8458 984.863 61.265C984.09 59.6477 983.122 58.1134 981.96 56.662C979.886 54.0014 977.533 51.7404 974.901 49.8791C972.305 48.0388 969.585 46.3709 966.741 44.8753C963.934 43.4009 961.195 41.8927 958.524 40.3508C957.317 39.6538 956.013 38.8279 954.613 37.8733C953.213 36.9186 951.84 35.8331 950.493 34.6167C949.037 33.3369 947.9 32.0953 947.083 30.8917C946.266 29.6882 945.584 28.5874 945.038 27.5894C944.55 26.5759 944.075 25.6673 943.612 24.8636C943.186 24.0809 942.636 23.4707 941.962 23.0327C940.421 21.8993 938.863 21.0488 937.289 20.4811C936.237 20.1072 935.283 19.6418 934.428 19.0848C933.649 18.5778 933.005 17.8969 932.408 17.1854L931.875 16.5507C931.307 15.9298 930.775 15.3301 930.28 14.7515C929.785 14.173 929.391 13.7992 929.098 13.6302C928.769 13.4401 928.124 13.4582 927.164 13.6844C926.34 13.9053 925.655 14.1874 925.11 14.5306C924.999 14.6006 924.963 14.7439 925.021 14.8617L925.641 15.0939C925.938 15.2051 926.179 15.4283 926.313 15.7156C926.391 15.8819 926.429 16.0637 926.426 16.2472L926.418 16.7198C926.413 17.042 926.635 17.3236 926.949 17.3941C927.244 17.4601 927.459 17.7124 927.479 18.0134L927.491 18.2066C927.517 18.6058 927.793 18.9447 928.178 19.0507L928.276 19.0776C928.704 19.1954 929.017 19.5637 929.064 20.0056L929.074 20.0998C929.129 20.6282 929.522 21.0576 930.033 21.2029C930.043 21.2057 930.053 21.2085 930.062 21.2113C930.542 21.3486 930.85 21.8042 930.82 22.3025L930.819 22.3185C930.794 22.7449 931.01 23.1618 931.42 23.2803C931.464 23.293 931.509 23.305 931.554 23.3165C931.6 23.3241 931.645 23.3322 931.688 23.3407C932.116 23.4243 932.34 23.8442 932.306 24.2785C932.27 24.7322 932.512 25.1664 932.919 25.3704C933.11 25.466 933.269 25.6139 933.378 25.7969L936.277 30.6537C936.348 30.7733 936.303 30.9284 936.178 30.9901C936.075 31.0411 935.95 31.0112 935.881 30.9191L932.783 26.7791C932.617 26.5572 932.4 26.3793 932.149 26.2612L931.902 26.1447C931.445 25.9294 931.158 25.4648 931.17 24.96C931.182 24.4933 930.938 24.0494 930.492 23.9097C930.448 23.8959 930.403 23.8824 930.357 23.8692C930.297 23.8541 930.239 23.8384 930.183 23.822C929.832 23.7186 929.639 23.3692 929.645 23.003C929.652 22.5797 929.393 22.1858 928.98 22.0948C928.976 22.094 928.973 22.0932 928.969 22.0924C928.925 22.0829 928.878 22.0691 928.836 22.0542C928.471 21.9247 928.172 21.6273 928.126 21.2427L928.068 20.7645C928.013 20.3018 927.696 19.9122 927.255 19.7629L926.951 19.6603C926.649 19.5579 926.443 19.2763 926.438 18.9568C926.432 18.6168 926.198 18.3219 925.869 18.2369C925.526 18.1485 925.288 17.8349 925.296 17.4811L925.316 16.6879C925.319 16.5708 925.257 16.4614 925.156 16.4028L924.734 15.5241C924.673 15.3983 924.539 15.3254 924.4 15.3433C924.058 15.6883 923.804 16.1152 923.638 16.624C923.383 17.4036 923.482 18.1193 923.935 18.771C924.357 19.3074 924.906 20.0879 925.583 21.1127C926.28 22.1009 926.994 23.1468 927.722 24.2504C928.472 25.3174 929.133 26.2845 929.706 27.1516C931.096 29.2223 932.394 31.2402 933.601 33.2052C934.663 34.901 935.781 36.683 936.957 38.5512C937.324 39.1348 937.285 39.8775 936.94 40.4747C936.705 41.0117 936.067 41.2454 935.544 40.9801L930.694 38.5187C930.43 38.3845 930.106 38.4696 929.942 38.7167L929.809 38.9176C929.728 39.04 929.747 39.2031 929.854 39.3032C930.092 39.5251 929.857 39.914 929.55 39.8061L929.247 39.6993C929.08 39.6406 928.895 39.7091 928.806 39.8622L928.631 40.1665C928.547 40.3107 928.588 40.4946 928.724 40.5902L928.799 40.6426C929.08 40.8398 928.873 41.2792 928.542 41.1873C928.401 41.1481 928.252 41.2141 928.187 41.3447L928.086 41.5456C927.939 41.8396 928.066 42.1972 928.365 42.3325L929.441 42.8181C929.65 42.912 929.609 43.2188 929.384 43.2557C929.301 43.2693 929.232 43.3272 929.204 43.4067L929.122 43.6389C929.003 43.9764 929.182 44.3459 929.519 44.466C930.415 44.7858 931.396 45.1543 932.461 45.5714C933.79 46.1432 934.71 46.577 935.222 46.8727C935.99 47.3162 936.68 47.8119 937.291 48.3595C937.938 48.9283 938.572 49.3922 939.194 49.7513C939.524 49.9414 939.846 49.9324 940.161 49.7242C940.476 49.516 940.74 49.229 940.951 48.8631C941.057 48.6802 941.168 48.403 941.285 48.0315C941.389 47.7007 941.558 47.1562 941.793 46.3981C941.853 46.2058 941.934 46.0205 942.034 45.8462L942.141 45.6607C942.159 45.6301 942.18 45.6013 942.203 45.5747C942.413 45.3362 942.782 45.3308 943.001 45.5612C943.953 46.5647 944.916 47.5182 945.889 48.4214C947 49.4534 947.992 50.27 948.865 50.8712L951.993 52.6772C952.746 53.063 953.462 53.4278 954.141 53.7714C954.748 54.0414 955.224 54.2523 955.569 54.4041C955.678 54.4521 955.721 54.5842 955.661 54.6875L955.626 54.7492C955.586 54.8183 955.614 54.9067 955.687 54.9399C955.833 55.0068 955.761 55.2278 955.603 55.1955L955.497 55.1738C955.435 55.161 955.371 55.1895 955.34 55.2446L955.094 55.6706C954.996 55.839 955.054 56.0544 955.223 56.1516C955.557 56.345 955.381 56.8585 954.998 56.8054L954.896 56.7913C954.73 56.7683 954.57 56.8589 954.503 57.0128L954.411 57.2276C954.286 57.5166 954.417 57.8519 954.704 57.9806L955.763 58.4553C955.969 58.5475 955.929 58.8505 955.707 58.8869C955.62 58.9011 955.549 58.9641 955.525 59.0486L955.449 59.3132C955.353 59.6507 955.537 60.0046 955.868 60.1224C956.77 60.444 957.758 60.815 958.832 61.2355C960.124 61.7862 961.044 62.2199 961.593 62.5368C962.325 62.9592 963.014 63.4548 963.661 64.0236C964.287 64.629 964.911 65.1112 965.533 65.4703C965.826 65.6393 966.13 65.6197 966.445 65.4115C966.761 65.2033 967.024 64.9163 967.235 64.5504C967.299 64.4394 967.407 64.1662 967.558 63.7308C967.896 62.7606 968.901 62.2015 969.885 62.4951C970.796 62.7769 971.818 63.2452 972.952 63.9C973.684 64.3224 974.247 64.8673 974.642 65.5345C975.059 66.1651 975.119 66.7365 974.823 67.2487C974.19 68.3462 973.165 69.0228 971.749 69.2785C970.312 69.5708 968.667 69.5477 966.813 69.2094C964.939 68.9076 962.981 68.4115 960.941 67.7213C958.901 67.031 956.921 66.2781 955.001 65.4626C953.082 64.6471 951.377 63.8824 949.887 63.1684C949.017 62.7784 948.263 62.4392 947.625 62.151Z" fill="#29313B"/>
</svg>
