<svg width="1000" height="90" viewBox="0 0 1000 90" fill="none" xmlns="http://www.w3.org/2000/svg">
<rect width="300" height="90" rx="16" fill="#29313B"/>
<circle cx="46.1083" cy="45.0003" r="4.13072" fill="white"/>
<path d="M27.5195 45.0003C27.5195 34.7343 35.8418 26.4121 46.1078 26.4121" stroke="white" stroke-width="4.64706" stroke-linecap="round"/>
<path d="M64.6963 45.0001C64.6963 55.2661 56.3741 63.5884 46.1081 63.5884" stroke="white" stroke-width="4.64706" stroke-linecap="round"/>
<path d="M35.7822 45.0006C35.7822 39.2973 40.4057 34.6738 46.109 34.6738" stroke="white" stroke-width="4.64706" stroke-linecap="round"/>
<path d="M56.4336 44.9999C56.4336 50.7032 51.8101 55.3267 46.1068 55.3267" stroke="white" stroke-width="4.64706" stroke-linecap="round"/>
<path d="M97.4313 58H91.8766V31.2431H97.4313V58ZM104.512 34.0386C106.69 31.8361 109.461 30.7348 112.825 30.7348C117.327 30.7348 120.619 32.2112 122.7 35.1641C123.85 36.822 124.467 38.486 124.552 40.156H118.961C118.598 38.8732 118.132 37.9051 117.563 37.2516C116.547 36.0898 115.04 35.509 113.043 35.509C111.01 35.509 109.407 36.3319 108.233 37.9777C107.059 39.6114 106.472 41.9289 106.472 44.9301C106.472 47.9314 107.089 50.1823 108.324 51.6829C109.57 53.1714 111.149 53.9157 113.061 53.9157C115.022 53.9157 116.516 53.2743 117.545 51.9915C118.114 51.3017 118.586 50.267 118.961 48.8874H124.498C124.013 51.8039 122.773 54.1759 120.776 56.0032C118.792 57.8306 116.244 58.7443 113.134 58.7443C109.286 58.7443 106.26 57.5099 104.058 55.0411C101.855 52.5603 100.754 49.1597 100.754 44.8394C100.754 40.1681 102.006 36.5679 104.512 34.0386ZM138.93 35.8902H133.72V43.7684H138.93C140.249 43.7684 141.271 43.4477 141.997 42.8063C142.736 42.1649 143.105 41.1484 143.105 39.7567C143.105 38.365 142.736 37.3726 141.997 36.7796C141.271 36.1867 140.249 35.8902 138.93 35.8902ZM139.401 48.3791H133.72V58H128.165V31.2431H139.819C142.506 31.2431 144.648 31.9329 146.245 33.3125C147.842 34.6921 148.641 36.828 148.641 39.7204C148.641 42.8789 147.842 45.1117 146.245 46.4187C144.648 47.7256 142.366 48.3791 139.401 48.3791ZM154.687 34.0386C156.865 31.8361 159.636 30.7348 163.001 30.7348C167.502 30.7348 170.794 32.2112 172.876 35.1641C174.025 36.822 174.642 38.486 174.727 40.156H169.136C168.773 38.8732 168.307 37.9051 167.738 37.2516C166.722 36.0898 165.215 35.509 163.218 35.509C161.185 35.509 159.582 36.3319 158.408 37.9777C157.234 39.6114 156.647 41.9289 156.647 44.9301C156.647 47.9314 157.264 50.1823 158.499 51.6829C159.745 53.1714 161.324 53.9157 163.237 53.9157C165.197 53.9157 166.692 53.2743 167.72 51.9915C168.289 51.3017 168.761 50.267 169.136 48.8874H174.673C174.189 51.8039 172.948 54.1759 170.951 56.0032C168.967 57.8306 166.419 58.7443 163.309 58.7443C159.461 58.7443 156.435 57.5099 154.233 55.0411C152.03 52.5603 150.929 49.1597 150.929 44.8394C150.929 40.1681 152.182 36.5679 154.687 34.0386ZM187.817 31.2431H193.408V53.1896H206.659V58H187.817V31.2431ZM214.919 58H209.364V31.2431H214.919V58ZM235.069 31.2431H240.878L231.747 58H226.465L217.425 31.2431H223.397L229.206 51.5558L235.069 31.2431ZM263.243 35.9809H249.084V41.6627H262.081V46.3097H249.084V53.1896H263.896V58H243.62V31.2431H263.243V35.9809Z" fill="white"/>
<rect x="376" width="279" height="90" rx="16" fill="#29313C"/>
<path d="M449.563 41.6795H446.477L444.674 48.2784H447.815L446.626 52.6652H443.54L442.09 58H437.555L439.004 52.6652H432.127L430.714 58H426.179L427.591 52.6652H424.487L425.677 48.2784H428.762L430.565 41.6795H427.424L428.614 37.3113H431.718L433.149 31.9765H437.685L436.253 37.3113H443.112L444.525 31.9765H449.061L447.648 37.3113H450.752L449.563 41.6795ZM440.138 48.2784L441.941 41.6795H435.101L433.298 48.2784H440.138ZM457.308 35.7449C456.873 35.7449 456.467 35.6905 456.092 35.5816C455.729 35.4727 455.408 35.3214 455.13 35.1278C454.864 34.9341 454.652 34.7042 454.495 34.438C454.349 34.1717 454.277 33.8813 454.277 33.5666C454.277 33.2278 454.356 32.9131 454.513 32.6227C454.67 32.3323 454.882 32.0842 455.148 31.8784C455.427 31.6606 455.747 31.4912 456.11 31.3702C456.485 31.2492 456.885 31.1887 457.308 31.1887C457.744 31.1887 458.149 31.2492 458.525 31.3702C458.912 31.4912 459.239 31.6606 459.505 31.8784C459.783 32.0842 460.001 32.3323 460.158 32.6227C460.316 32.9131 460.394 33.2278 460.394 33.5666C460.394 33.8813 460.316 34.1717 460.158 34.438C460.013 34.7042 459.801 34.9341 459.523 35.1278C459.257 35.3214 458.93 35.4727 458.543 35.5816C458.168 35.6905 457.756 35.7449 457.308 35.7449ZM454.713 38.2137H459.959V58H454.713V38.2137ZM476.804 45.3114C476.707 44.5731 476.459 43.9076 476.06 43.3146C475.479 42.5159 474.578 42.1165 473.355 42.1165C471.613 42.1165 470.421 42.9818 469.779 44.7123C469.44 45.632 469.271 46.8543 469.271 48.3791C469.271 49.8313 469.44 50.9992 469.779 51.8826C470.396 53.5284 471.558 54.3513 473.264 54.3513C474.475 54.3513 475.334 54.0246 475.842 53.3711C476.35 52.7176 476.659 51.8705 476.768 50.8297H482.05C481.929 52.403 481.361 53.8915 480.344 55.2953C478.722 57.5583 476.32 58.6898 473.137 58.6898C469.955 58.6898 467.613 57.7459 466.112 55.858C464.612 53.9701 463.861 51.5195 463.861 48.5062C463.861 45.1056 464.69 42.4614 466.348 40.5735C468.006 38.6857 470.294 37.7417 473.21 37.7417C475.691 37.7417 477.718 38.2984 479.291 39.4118C480.876 40.5251 481.814 42.4917 482.105 45.3114H476.804ZM494.884 42.298C493.008 42.298 491.72 43.1875 491.018 44.9665C490.655 45.9104 490.473 47.1085 490.473 48.5607C490.473 50.86 491.084 52.4756 492.307 53.4074C493.033 53.952 493.892 54.2243 494.884 54.2243C496.324 54.2243 497.419 53.6676 498.17 52.5542C498.932 51.4409 499.313 49.9584 499.313 48.1068C499.313 46.582 498.962 45.2327 498.261 44.0588C497.571 42.885 496.445 42.298 494.884 42.298ZM504.65 47.8527C504.65 51.338 503.864 53.9943 502.29 55.8217C500.729 57.6491 498.714 58.5627 496.246 58.5627C494.672 58.5627 493.365 58.1694 492.325 57.3828C491.756 56.9472 491.199 56.3118 490.655 55.4768V65.7875H485.536V38.2137H490.491V41.1363C491.048 40.277 491.641 39.5993 492.27 39.1032C493.42 38.2197 494.787 37.778 496.373 37.778C498.684 37.778 500.639 38.6312 502.236 40.3375C503.846 42.0439 504.65 44.5489 504.65 47.8527ZM520.225 45.3114C520.128 44.5731 519.88 43.9076 519.481 43.3146C518.9 42.5159 517.998 42.1165 516.776 42.1165C515.034 42.1165 513.842 42.9818 513.2 44.7123C512.861 45.632 512.692 46.8543 512.692 48.3791C512.692 49.8313 512.861 50.9992 513.2 51.8826C513.817 53.5284 514.979 54.3513 516.685 54.3513C517.896 54.3513 518.755 54.0246 519.263 53.3711C519.771 52.7176 520.08 51.8705 520.189 50.8297H525.471C525.35 52.403 524.781 53.8915 523.765 55.2953C522.143 57.5583 519.741 58.6898 516.558 58.6898C513.376 58.6898 511.034 57.7459 509.533 55.858C508.033 53.9701 507.282 51.5195 507.282 48.5062C507.282 45.1056 508.111 42.4614 509.769 40.5735C511.427 38.6857 513.714 37.7417 516.631 37.7417C519.112 37.7417 521.139 38.2984 522.712 39.4118C524.297 40.5251 525.235 42.4917 525.526 45.3114H520.225ZM529.429 31.2431H535.292L545.947 49.9221V31.2431H551.157V58H545.566L534.638 38.9943V58H529.429V31.2431ZM563.701 47.889H570.49L567.15 37.3605L563.701 47.889ZM564.045 31.2431H570.363L579.838 58H573.775L572.051 52.4998H562.194L560.342 58H554.497L564.045 31.2431ZM585.847 34.0386C588.025 31.8361 590.796 30.7348 594.161 30.7348C598.662 30.7348 601.954 32.2112 604.036 35.1641C605.185 36.822 605.802 38.486 605.887 40.156H600.296C599.933 38.8732 599.467 37.9051 598.898 37.2516C597.882 36.0898 596.375 35.509 594.378 35.509C592.345 35.509 590.742 36.3319 589.568 37.9777C588.394 39.6114 587.807 41.9289 587.807 44.9301C587.807 47.9314 588.424 50.1823 589.659 51.6829C590.905 53.1714 592.485 53.9157 594.397 53.9157C596.357 53.9157 597.852 53.2743 598.88 51.9915C599.449 51.3017 599.921 50.267 600.296 48.8874H605.833C605.349 51.8039 604.108 54.1759 602.111 56.0032C600.127 57.8306 597.579 58.7443 594.469 58.7443C590.621 58.7443 587.595 57.5099 585.393 55.0411C583.19 52.5603 582.089 49.1597 582.089 44.8394C582.089 40.1681 583.342 36.5679 585.847 34.0386Z" fill="white"/>
<path fill-rule="evenodd" clip-rule="evenodd" d="M747 0C738.163 0 731 7.16344 731 16V74C731 82.8366 738.163 90 747 90H984C992.837 90 1000 82.8366 1000 74V16C1000 7.16344 992.837 0 984 0H747ZM926.106 16.6776C926.253 15.8257 926.327 14.9629 926.329 14.0983C926.38 12.1565 925.927 10.2348 925.015 8.52146C924.103 6.80816 922.763 5.36211 921.126 4.32505C918.81 2.84604 916.13 2.04163 913.386 2.00157C910.641 1.96151 907.939 2.68737 905.582 4.09818C903.871 5.22129 902.483 6.77484 901.556 8.60397C900.63 10.4331 900.197 12.474 900.302 14.5231C900.307 15.5299 900.389 16.5348 900.549 17.5288C901.296 22.384 903.902 26.755 907.811 29.7124C905.758 29.1541 903.077 28.887 901.916 30.776C901.774 30.9559 901.671 31.1633 901.613 31.3852C901.555 31.6071 901.542 31.8387 901.577 32.0655C901.613 32.2922 901.694 32.5093 901.817 32.703C901.939 32.8966 902.1 33.0629 902.29 33.1912C903.783 34.266 907.411 33.9812 909.603 32.7229L908.099 36.2387H918.194L916.176 32.1855C918.618 33.2105 921.45 34.1357 922.979 33.1992C923.29 33.0049 923.545 32.7336 923.721 32.4115C923.897 32.0894 923.987 31.7273 923.983 31.3601C924.029 30.9693 923.97 30.5732 923.813 30.2129C923.655 29.8525 923.404 29.5408 923.087 29.3102C921.932 28.7077 920.593 28.563 919.336 28.9047C919.514 28.7583 919.684 28.6118 919.854 28.4622C923.228 25.3735 925.436 21.211 926.106 16.6776ZM903.034 32.1533C902.888 32.0488 902.708 31.9184 903 31.4454C903.874 30.0165 906.797 30.5652 909.173 31.513C908.259 32.0632 907.235 32.4056 906.174 32.5163C905.114 32.6269 904.042 32.503 903.034 32.1533ZM922.354 30.3528C922.496 30.4593 922.605 30.6039 922.668 30.7698C922.732 30.9359 922.747 31.1165 922.713 31.2909C922.722 31.45 922.691 31.6088 922.621 31.7522C922.552 31.8956 922.447 32.0188 922.317 32.1099C921.74 32.4639 920.263 32.5331 916.524 30.9498C918.804 30.1871 921.392 29.6722 922.354 30.3528ZM914.921 30.1694C914.851 30.1975 914.788 30.2222 914.736 30.2429L914.649 30.2776C914.629 30.2857 914.612 30.2926 914.598 30.2981L914.154 30.4526L913.941 30.5572L913.949 30.57L913.213 30.8758L914.353 31.3874L916.136 34.9627H910.032L911.789 30.8484L911.149 30.4671C908.693 29.1416 906.573 27.2674 904.953 24.9892C903.333 22.7109 902.257 20.0896 901.807 17.3277C901.659 16.4061 901.582 15.4744 901.578 14.5408C901.477 12.7037 901.857 10.8721 902.681 9.22829C903.505 7.5845 904.743 6.18582 906.273 5.17141C908.421 3.88962 910.881 3.23138 913.38 3.27002C915.878 3.30866 918.317 4.04265 920.425 5.39023C921.884 6.31791 923.077 7.60979 923.889 9.13931C924.701 10.6689 925.103 12.3838 925.056 14.1161C925.053 14.9035 924.985 15.6893 924.851 16.4652C924.462 19.3981 923.35 22.1873 921.616 24.5802C919.882 26.9732 917.581 28.8942 914.921 30.1694ZM864.835 18.656H866.108V29.612H864.835V18.656ZM873.922 20.6417L869.705 30.4362L870.872 30.9428L875.09 21.1482L873.922 20.6417ZM873.629 32.9392L881.616 25.8168L882.461 26.771L874.474 33.8935L873.629 32.9392ZM885.621 32.1575L876.721 36.622L877.29 37.7635L886.19 33.2989L885.621 32.1575ZM803.378 42.0085H831.676C833.102 42.0111 834.47 42.5818 835.478 43.5948C836.486 44.6077 837.053 45.9805 837.054 47.4122V57.5847L837.03 57.5666C834.611 55.7301 831.711 54.6397 828.685 54.4292C826.715 54.4074 824.808 55.1313 823.346 56.4568C822.979 55.7306 822.35 55.1728 821.587 54.8974C821.299 54.8055 820.998 54.7588 820.695 54.759C819.677 54.8197 818.697 55.1744 817.875 55.7805C817.291 54.5999 816.312 53.6629 815.109 53.1339C814.523 52.8957 813.896 52.7749 813.263 52.7783C812.213 52.804 811.18 53.057 810.236 53.5201C808.932 54.0047 807.868 54.9817 807.271 56.2427C807.069 56.8021 806.986 57.3982 807.026 57.9921C807.066 58.5861 807.23 59.1651 807.505 59.6921C806.457 60.2653 803.59 62.0349 803.683 64.2072C803.744 65.6134 805.041 66.8539 807.539 67.892C807.025 68.6421 806.669 69.4889 806.492 70.3819C806.315 71.2744 806.322 72.194 806.511 73.0844L806.534 73.1375H803.378C801.951 73.1349 800.583 72.5643 799.575 71.5512C798.567 70.5376 798 69.1648 798 67.7326V47.4122C798 45.9804 798.567 44.6072 799.575 43.5941C800.583 42.581 801.951 42.0107 803.378 42.0085ZM837.053 59.4409L836.888 59.349C834.68 57.327 831.863 56.1009 828.883 55.8655C828.453 55.8655 828.024 55.9033 827.601 55.9798C826.7 56.1561 825.844 56.5089 825.08 57.0189C824.316 57.5284 823.661 58.185 823.151 58.95L822.673 59.7612L822.532 58.8294C822.162 56.4032 820.946 56.2422 820.922 56.239C820.835 56.221 820.745 56.2125 820.656 56.213C819.344 56.213 817.61 57.9472 817.562 57.995L817.561 57.9959L817.149 58.4145L817 57.8476C816.069 54.3724 813.724 54.3 813.636 54.2984C812 54.2967 810.424 54.9143 809.222 56.0281C808.774 56.5987 808.557 57.318 808.614 58.0421C808.671 58.7662 808.998 59.4419 809.53 59.9349L809.862 60.284L809.419 60.4773C804.968 62.4159 805.223 64.0558 805.228 64.0829C805.382 65.2607 807.971 66.456 809.568 66.931L810.024 67.0691L809.743 67.4537C807.187 70.9472 807.952 72.6754 808.135 72.984L808.191 73.1354H831.675C833.104 73.1306 834.473 72.5579 835.481 71.5417C836.489 70.5259 837.055 69.15 837.053 67.7161V59.4409ZM840.914 62.8781C840.753 61.8363 840.349 60.8471 839.737 59.9907C839.124 59.1338 838.32 58.4336 837.388 57.9465C837.368 57.9328 837.35 57.9196 837.332 57.9063L837.303 57.8854L837.291 57.8758L837.178 57.803V59.3994C837.23 59.4318 837.308 59.4866 837.388 59.5445C837.959 59.9131 838.449 60.395 838.827 60.9608C839.206 61.526 839.465 62.1635 839.59 62.8329C839.585 63.6601 839.383 64.4739 839 65.206C838.617 65.938 838.064 66.567 837.388 67.0409L837.388 67.0413C837.369 67.0603 837.351 67.0777 837.331 67.0956L837.178 67.2306L837.072 67.3225L837.178 67.3639L837.388 67.4479L837.39 67.4495C837.414 67.459 839.72 68.436 838.621 71.8583C838.034 73.4903 836.937 74.8885 835.495 75.8459C834.052 76.8026 832.34 77.267 830.614 77.1697H830.559C827.321 77.081 824.164 76.1311 821.412 74.4184L821.269 74.3392L821.155 74.4566C819.716 75.9319 817.798 76.8404 815.748 77.0167C815.711 77.0247 813.192 77.2096 811.553 73.8919L811.47 73.7246L811.295 73.7857L811.293 73.7865C811.214 73.8119 809.366 74.4063 808.375 73.4706C808.308 73.4064 808.245 73.3373 808.189 73.2629H807.91V73.2597H806.94V73.2629H806.723L806.737 73.316L806.764 73.3867C806.774 73.4127 806.784 73.4366 806.798 73.4706C807.01 73.979 807.911 75.5978 810.795 75.2323C811.305 76.111 812.024 76.8489 812.888 77.3796C813.752 77.9103 814.734 78.2168 815.745 78.2715H815.747C817.874 78.2349 819.91 77.4014 821.457 75.9356C824.168 77.3727 827.147 78.2296 830.205 78.4522C830.543 78.4522 830.88 78.433 831.216 78.3959C833.01 78.3507 834.755 77.7966 836.248 76.7984C837.742 75.7996 838.924 74.3971 839.656 72.7529C840.087 71.8615 840.254 70.8654 840.138 69.882C840.022 68.8987 839.628 67.969 839.002 67.2035C839.602 66.6547 840.082 65.9869 840.412 65.2426C840.741 64.4978 840.912 63.693 840.914 62.8781ZM820.512 78.1477C820.106 78.0712 819.688 78.0856 819.288 78.1892C818.888 78.2933 818.516 78.4845 818.198 78.7491C817.88 79.0137 817.624 79.3457 817.448 79.7208C817.273 80.0964 817.182 80.5054 817.182 80.9203C817.182 81.3347 817.273 81.7443 817.448 82.1199C817.624 82.4949 817.88 82.827 818.198 83.0916C818.516 83.3561 818.888 83.5474 819.288 83.6515C819.688 83.7551 820.106 83.7694 820.512 83.6929C820.919 83.7694 821.337 83.7556 821.737 83.6515C822.137 83.5479 822.509 83.3566 822.827 83.0921C823.145 82.827 823.402 82.4955 823.577 82.1199C823.753 81.7448 823.844 81.3352 823.844 80.9203C823.844 80.5054 823.753 80.0958 823.577 79.7208C823.402 79.3452 823.145 79.0131 822.827 78.7486C822.509 78.484 822.137 78.2928 821.737 78.1892C821.337 78.085 820.919 78.0712 820.512 78.1477ZM820.512 82.6256C819.262 82.6256 818.245 81.8601 818.245 80.9203C818.245 79.9806 819.262 79.2129 820.512 79.2129C821.763 79.2129 822.781 79.979 822.781 80.9203C822.781 81.8617 821.763 82.6256 820.512 82.6256ZM815.982 83.0103C815.863 82.3468 815.489 81.7576 814.941 81.3693C814.392 80.981 813.713 80.8253 813.051 80.9358C812.38 80.9613 811.746 81.2508 811.287 81.7417C810.827 82.2326 810.579 82.8855 810.596 83.5586C810.657 83.8779 810.783 84.1807 810.964 84.4495C811.145 84.7188 811.379 84.9478 811.651 85.1236C811.923 85.2995 812.228 85.4179 812.547 85.4727C812.866 85.5269 813.193 85.5157 813.508 85.4397C815.068 85.282 816.109 84.2588 815.982 83.0103ZM813.41 84.4792C812.587 84.5626 811.667 84.2779 811.584 83.4592C811.627 83.0581 811.806 82.6847 812.09 82.4005C812.375 82.1162 812.748 81.9388 813.148 81.8979C813.547 81.857 813.949 81.9553 814.285 82.1757C814.621 82.3962 814.871 82.7261 814.994 83.1097C815.078 83.932 814.231 84.3953 813.41 84.4792ZM803.917 84.8155C803.917 83.7052 804.825 83.0146 806.287 83.0146C807.748 83.0146 808.656 83.7036 808.656 84.8155C808.656 85.9269 807.75 86.6159 806.287 86.6159C804.825 86.6159 803.917 85.9253 803.917 84.8155ZM804.846 84.8155C804.846 85.5152 805.63 85.6602 806.286 85.6602C806.945 85.6602 807.729 85.5152 807.729 84.8155C807.729 84.1185 806.945 83.9724 806.286 83.9724C805.63 83.9724 804.846 84.1185 804.846 84.8155ZM798 85.6719C798 85.2421 798.299 84.3438 799.853 84.3438C801.027 84.3438 801.706 84.8081 801.706 85.6719C801.706 86.5357 801.027 87 799.853 87C798.299 87 798 86.1017 798 85.6719ZM798.851 85.6719C798.851 85.8568 798.984 86.1458 799.853 86.1458C799.962 86.1458 800.912 86.1458 800.912 85.6719C800.912 85.198 799.962 85.198 799.853 85.198C798.984 85.198 798.851 85.487 798.851 85.6719ZM857.022 20.6415L855.852 21.1483L859.986 30.7478L860.072 30.9425L861.24 30.4357L857.022 20.6415ZM856.47 33.8934L848.483 26.7718L849.326 25.816L857.316 32.9392L856.47 33.8934ZM845.319 32.1618L844.751 33.3039L853.656 37.759L854.223 36.617L845.319 32.1618ZM877.686 42.0098H879.62C881.049 42.0147 882.418 42.5881 883.426 43.6044C884.434 44.6206 885 45.9966 884.998 47.4306V67.8091C884.997 69.1064 884.531 70.3607 883.685 71.3414C882.839 72.3226 881.669 72.9654 880.39 73.1524H850.554C849.274 72.966 848.104 72.3232 847.258 71.3419C846.412 70.3607 845.945 69.107 845.944 67.8091V47.4306C845.943 45.9967 846.508 44.6208 847.516 43.6046C848.525 42.5885 849.893 42.0149 851.322 42.0098H853.262L853.269 42.124L853.273 42.2005C853.353 43.7402 853.709 50.5239 860.215 53.0269L860.986 59.2523H869.788L870.69 52.977C871.955 52.5175 873.101 51.779 874.043 50.816C875.185 49.6952 876.094 48.3583 876.718 46.8827C877.342 45.407 877.668 43.8219 877.678 42.219L877.686 42.0098ZM869.837 60.7339H861.087V62.0297H869.837V60.7339ZM869.837 63.2154H861.087V64.509H869.837V63.2154ZM863.674 69.4698H867.119V68.1741H863.674V69.4698ZM861.111 66.9899H869.861V65.6948H861.111V66.9899ZM860.956 48.3797L865.972 46.3202L861.663 45.0008L864.691 42.2171L864.893 42.0096H854.911V42.2171L854.916 42.301C854.991 43.7186 855.307 49.6861 861.355 51.9582L861.474 52.0017L862.204 57.7813H864.811V50.9523L866.193 49.813L860.956 48.3797ZM866.551 42.2179L866.728 42.0088H876.082V42.2179C876.04 44.3056 875.391 46.3354 874.216 48.0581C873.039 49.7809 871.388 51.1216 869.464 51.9156L869.355 51.9623L868.532 57.7823H866.155V51.5632L868.973 49.2575L864.922 48.1183L870.081 45.9911L864.311 44.3676L866.551 42.2179ZM927.634 42.0094H916.869C921.613 45.5621 924.294 49.2532 924.841 52.983C925.019 54.5872 924.866 56.2108 924.39 57.7525C923.914 59.2948 923.126 60.7212 922.076 61.9436L921.984 62.0626C917.857 67.3437 909.434 71.3339 906.002 72.8028C905.614 72.9224 905.224 73.0387 904.832 73.1524H927.634C929.06 73.1476 930.425 72.576 931.431 71.5624C932.437 70.5488 933.001 69.1765 933 67.7459V47.4157C933.001 45.9853 932.437 44.6128 931.431 43.5992C930.425 42.5856 929.06 42.0139 927.634 42.0094ZM913.978 42.043L914.227 42.2345C915.163 42.8346 923.587 48.2583 923.134 54.8794C922.689 61.457 913.642 68.4153 899.879 72.983L899.267 73.1875H899.188C897.762 73.1827 896.396 72.61 895.39 71.5959C894.385 70.5817 893.821 69.209 893.823 67.7778V47.451C893.821 46.0204 894.385 44.6476 895.391 43.6338C896.397 42.62 897.762 42.0479 899.188 42.043H913.978ZM916.243 41.6968L916.329 41.758L916.509 41.8818L916.289 41.8834H914.241C914.209 41.859 914.178 41.8335 914.146 41.8078L914.145 41.8073L914.145 41.8071C914.125 41.7907 914.105 41.7742 914.084 41.758C914.078 41.7529 914.071 41.748 914.065 41.7431L914.048 41.7299L914.048 41.7296L914.047 41.7295C914.023 41.7107 913.999 41.692 913.976 41.6727C912.389 40.2828 911.386 38.3414 911.167 36.239H912.539C912.736 37.3517 913.164 38.4105 913.795 39.3466C914.426 40.2826 915.247 41.0751 916.203 41.6727C916.219 41.6836 916.231 41.6901 916.237 41.6936C916.24 41.6953 916.242 41.6963 916.243 41.6968Z" fill="#29313B"/>
</svg>
