<svg width="1000" height="90" viewBox="0 0 1000 90" fill="none" xmlns="http://www.w3.org/2000/svg">
<rect width="300" height="90" rx="16" fill="#29313B"/>
<circle cx="46.1092" cy="45.0001" r="4.13072" fill="white"/>
<path d="M27.5195 44.9999C27.5195 34.7339 35.8418 26.4116 46.1078 26.4116" stroke="white" stroke-width="4.64706" stroke-linecap="round"/>
<path d="M64.6973 44.9999C64.6973 55.2659 56.375 63.5881 46.109 63.5881" stroke="white" stroke-width="4.64706" stroke-linecap="round"/>
<path d="M35.7832 45.0001C35.7832 39.2968 40.4067 34.6733 46.11 34.6733" stroke="white" stroke-width="4.64706" stroke-linecap="round"/>
<path d="M56.4336 44.9996C56.4336 50.703 51.8101 55.3264 46.1068 55.3264" stroke="white" stroke-width="4.64706" stroke-linecap="round"/>
<path d="M97.4313 58H91.8766V31.2431H97.4313V58ZM104.512 34.0386C106.69 31.8361 109.461 30.7348 112.825 30.7348C117.327 30.7348 120.619 32.2112 122.7 35.1641C123.85 36.822 124.467 38.486 124.552 40.156H118.961C118.598 38.8732 118.132 37.9051 117.563 37.2516C116.547 36.0898 115.04 35.509 113.043 35.509C111.01 35.509 109.407 36.3319 108.233 37.9777C107.059 39.6114 106.472 41.9289 106.472 44.9301C106.472 47.9314 107.089 50.1823 108.324 51.6829C109.57 53.1714 111.149 53.9157 113.061 53.9157C115.022 53.9157 116.516 53.2743 117.545 51.9915C118.114 51.3017 118.586 50.267 118.961 48.8874H124.498C124.013 51.8039 122.773 54.1759 120.776 56.0032C118.792 57.8306 116.244 58.7443 113.134 58.7443C109.286 58.7443 106.26 57.5099 104.058 55.0411C101.855 52.5603 100.754 49.1597 100.754 44.8394C100.754 40.1681 102.006 36.5679 104.512 34.0386ZM138.93 35.8902H133.72V43.7684H138.93C140.249 43.7684 141.271 43.4477 141.997 42.8063C142.736 42.1649 143.105 41.1484 143.105 39.7567C143.105 38.365 142.736 37.3726 141.997 36.7796C141.271 36.1867 140.249 35.8902 138.93 35.8902ZM139.401 48.3791H133.72V58H128.165V31.2431H139.819C142.506 31.2431 144.648 31.9329 146.245 33.3125C147.842 34.6921 148.641 36.828 148.641 39.7204C148.641 42.8789 147.842 45.1117 146.245 46.4187C144.648 47.7256 142.366 48.3791 139.401 48.3791ZM154.687 34.0386C156.865 31.8361 159.636 30.7348 163.001 30.7348C167.502 30.7348 170.794 32.2112 172.876 35.1641C174.025 36.822 174.642 38.486 174.727 40.156H169.136C168.773 38.8732 168.307 37.9051 167.738 37.2516C166.722 36.0898 165.215 35.509 163.218 35.509C161.185 35.509 159.582 36.3319 158.408 37.9777C157.234 39.6114 156.647 41.9289 156.647 44.9301C156.647 47.9314 157.264 50.1823 158.499 51.6829C159.745 53.1714 161.324 53.9157 163.237 53.9157C165.197 53.9157 166.692 53.2743 167.72 51.9915C168.289 51.3017 168.761 50.267 169.136 48.8874H174.673C174.189 51.8039 172.948 54.1759 170.951 56.0032C168.967 57.8306 166.419 58.7443 163.309 58.7443C159.461 58.7443 156.435 57.5099 154.233 55.0411C152.03 52.5603 150.929 49.1597 150.929 44.8394C150.929 40.1681 152.182 36.5679 154.687 34.0386ZM187.817 31.2431H193.408V53.1896H206.659V58H187.817V31.2431ZM214.919 58H209.364V31.2431H214.919V58ZM235.069 31.2431H240.878L231.747 58H226.465L217.425 31.2431H223.397L229.206 51.5558L235.069 31.2431ZM263.243 35.9809H249.084V41.6627H262.081V46.3097H249.084V53.1896H263.896V58H243.62V31.2431H263.243V35.9809Z" fill="white"/>
<rect x="374.5" width="461" height="90" rx="16" fill="#29313C"/>
<path d="M478.063 41.6795H474.977L473.174 48.2784H476.315L475.126 52.6652H472.04L470.59 58H466.055L467.504 52.6652H460.627L459.214 58H454.679L456.091 52.6652H452.987L454.177 48.2784H457.262L459.065 41.6795H455.924L457.114 37.3113H460.218L461.649 31.9765H466.185L464.753 37.3113H471.612L473.025 31.9765H477.561L476.148 37.3113H479.252L478.063 41.6795ZM468.638 48.2784L470.441 41.6795H463.601L461.798 48.2784H468.638ZM485.808 35.7449C485.373 35.7449 484.967 35.6905 484.592 35.5816C484.229 35.4727 483.908 35.3214 483.63 35.1278C483.364 34.9341 483.152 34.7042 482.995 34.438C482.849 34.1717 482.777 33.8813 482.777 33.5666C482.777 33.2278 482.856 32.9131 483.013 32.6227C483.17 32.3323 483.382 32.0842 483.648 31.8784C483.927 31.6606 484.247 31.4912 484.61 31.3702C484.985 31.2492 485.385 31.1887 485.808 31.1887C486.244 31.1887 486.649 31.2492 487.025 31.3702C487.412 31.4912 487.739 31.6606 488.005 31.8784C488.283 32.0842 488.501 32.3323 488.658 32.6227C488.816 32.9131 488.894 33.2278 488.894 33.5666C488.894 33.8813 488.816 34.1717 488.658 34.438C488.513 34.7042 488.301 34.9341 488.023 35.1278C487.757 35.3214 487.43 35.4727 487.043 35.5816C486.668 35.6905 486.256 35.7449 485.808 35.7449ZM483.213 38.2137H488.459V58H483.213V38.2137ZM505.304 45.3114C505.207 44.5731 504.959 43.9076 504.56 43.3146C503.979 42.5159 503.078 42.1165 501.855 42.1165C500.113 42.1165 498.921 42.9818 498.279 44.7123C497.94 45.632 497.771 46.8543 497.771 48.3791C497.771 49.8313 497.94 50.9992 498.279 51.8826C498.896 53.5284 500.058 54.3513 501.764 54.3513C502.975 54.3513 503.834 54.0246 504.342 53.3711C504.85 52.7176 505.159 51.8705 505.268 50.8297H510.55C510.429 52.403 509.861 53.8915 508.844 55.2953C507.222 57.5583 504.82 58.6898 501.637 58.6898C498.455 58.6898 496.113 57.7459 494.612 55.858C493.112 53.9701 492.361 51.5195 492.361 48.5062C492.361 45.1056 493.19 42.4614 494.848 40.5735C496.506 38.6857 498.794 37.7417 501.71 37.7417C504.191 37.7417 506.218 38.2984 507.791 39.4118C509.376 40.5251 510.314 42.4917 510.605 45.3114H505.304ZM523.384 42.298C521.508 42.298 520.22 43.1875 519.518 44.9665C519.155 45.9104 518.973 47.1085 518.973 48.5607C518.973 50.86 519.584 52.4756 520.807 53.4074C521.533 53.952 522.392 54.2243 523.384 54.2243C524.824 54.2243 525.919 53.6676 526.67 52.5542C527.432 51.4409 527.813 49.9584 527.813 48.1068C527.813 46.582 527.462 45.2327 526.761 44.0588C526.071 42.885 524.945 42.298 523.384 42.298ZM533.15 47.8527C533.15 51.338 532.364 53.9943 530.79 55.8217C529.229 57.6491 527.214 58.5627 524.746 58.5627C523.172 58.5627 521.865 58.1694 520.825 57.3828C520.256 56.9472 519.699 56.3118 519.155 55.4768V65.7875H514.036V38.2137H518.991V41.1363C519.548 40.277 520.141 39.5993 520.77 39.1032C521.92 38.2197 523.287 37.778 524.873 37.778C527.184 37.778 529.139 38.6312 530.736 40.3375C532.346 42.0439 533.15 44.5489 533.15 47.8527ZM548.725 45.3114C548.628 44.5731 548.38 43.9076 547.981 43.3146C547.4 42.5159 546.498 42.1165 545.276 42.1165C543.534 42.1165 542.342 42.9818 541.7 44.7123C541.361 45.632 541.192 46.8543 541.192 48.3791C541.192 49.8313 541.361 50.9992 541.7 51.8826C542.317 53.5284 543.479 54.3513 545.185 54.3513C546.396 54.3513 547.255 54.0246 547.763 53.3711C548.271 52.7176 548.58 51.8705 548.689 50.8297H553.971C553.85 52.403 553.281 53.8915 552.265 55.2953C550.643 57.5583 548.241 58.6898 545.058 58.6898C541.876 58.6898 539.534 57.7459 538.033 55.858C536.533 53.9701 535.782 51.5195 535.782 48.5062C535.782 45.1056 536.611 42.4614 538.269 40.5735C539.927 38.6857 542.214 37.7417 545.131 37.7417C547.612 37.7417 549.639 38.2984 551.212 39.4118C552.797 40.5251 553.735 42.4917 554.026 45.3114H548.725ZM561.668 31.2431L565.208 46.5639L565.97 50.8297L566.751 46.6546L569.764 31.2431H575.664L578.84 46.5639L579.657 50.8297L580.474 46.7273L584.05 31.2431H589.732L582.199 58H576.862L573.631 42.3525L572.687 37.179L571.743 42.3525L568.511 58H563.32L555.732 31.2431H561.668ZM593.126 31.2794H612.096V35.9809H598.681V42.1347H610.426V46.7817H598.681V58H593.126V31.2794ZM615.853 31.2431H621.444V53.1896H634.696V58H615.853V31.2431ZM643.318 38.2137V50.1399C643.318 51.2654 643.451 52.1125 643.718 52.6813C644.19 53.6857 645.115 54.188 646.495 54.188C648.262 54.188 649.472 53.474 650.125 52.046C650.464 51.2714 650.634 50.2489 650.634 48.9782V38.2137H655.88V58H650.852V55.2045C650.803 55.265 650.682 55.4465 650.489 55.7491C650.295 56.0516 650.065 56.3179 649.799 56.5478C648.988 57.2739 648.201 57.7701 647.439 58.0363C646.689 58.3025 645.805 58.4357 644.789 58.4357C641.86 58.4357 639.887 57.3828 638.871 55.2771C638.302 54.1153 638.018 52.403 638.018 50.1399V38.2137H643.318ZM658.948 58L665.7 47.9798L659.238 38.25H665.573L668.877 43.9862L672.108 38.25H678.262L671.763 47.889L678.516 58H672.072L668.659 52.0641L665.228 58H658.948ZM695.162 48.1432C695.162 46.1585 694.757 44.6337 693.946 43.5687C693.135 42.4917 691.973 41.9531 690.46 41.9531C688.948 41.9531 687.78 42.4917 686.957 43.5687C686.146 44.6337 685.741 46.1585 685.741 48.1432C685.741 50.1278 686.146 51.6587 686.957 52.7358C687.78 53.8128 688.948 54.3513 690.46 54.3513C691.973 54.3513 693.135 53.8128 693.946 52.7358C694.757 51.6587 695.162 50.1278 695.162 48.1432ZM690.479 58.6898C687.078 58.6898 684.543 57.6612 682.873 55.6039C681.203 53.5345 680.368 51.0476 680.368 48.1432C680.368 45.2871 681.203 42.8123 682.873 40.7188C684.543 38.6252 687.078 37.5784 690.479 37.5784C693.879 37.5784 696.414 38.6252 698.085 40.7188C699.755 42.8123 700.59 45.2871 700.59 48.1432C700.59 51.0476 699.755 53.5345 698.085 55.6039C696.414 57.6612 693.879 58.6898 690.479 58.6898ZM715.747 37.778V43.0786C715.42 43.0423 715.13 43.0181 714.876 43.006C714.622 42.9939 714.416 42.9878 714.258 42.9878C712.177 42.9878 710.779 43.6655 710.065 45.0209C709.666 45.7833 709.466 46.9572 709.466 48.5425V58H704.256V38.2137H709.194V41.6627C709.993 40.3436 710.688 39.442 711.281 38.958C712.25 38.1471 713.508 37.7417 715.057 37.7417C715.154 37.7417 715.233 37.7478 715.293 37.7599C715.366 37.7599 715.517 37.7659 715.747 37.778ZM735.824 52.3364H732.847V58H727.782V52.3364H717.363V47.8164L727.038 31.8421H732.847V48.2884H735.824V52.3364ZM727.782 48.2884V36.9249L721.193 48.2884H727.782ZM747.478 54.4784C748.627 54.4784 749.529 54.0488 750.182 53.1896C750.848 52.3182 751.181 51.1928 751.181 49.8132C751.181 48.2763 750.806 47.1024 750.055 46.2916C749.305 45.4687 748.385 45.0572 747.296 45.0572C746.413 45.0572 745.632 45.3235 744.954 45.8559C743.938 46.6425 743.43 47.9132 743.43 49.668C743.43 51.0839 743.811 52.2396 744.573 53.1351C745.336 54.0306 746.304 54.4784 747.478 54.4784ZM750.709 38.3045C750.709 37.8809 750.545 37.415 750.219 36.9067C749.662 36.0838 748.821 35.6723 747.696 35.6723C746.013 35.6723 744.815 36.6163 744.101 38.5041C743.714 39.5449 743.448 41.0818 743.303 43.1149C743.944 42.3525 744.688 41.7958 745.535 41.4449C746.382 41.0939 747.351 40.9184 748.44 40.9184C750.775 40.9184 752.687 41.7111 754.176 43.2964C755.677 44.8817 756.427 46.9088 756.427 49.3775C756.427 51.8342 755.695 54.0004 754.23 55.8761C752.766 57.7519 750.491 58.6898 747.405 58.6898C744.089 58.6898 741.645 57.3042 740.071 54.5329C738.849 52.3667 738.238 49.5712 738.238 46.1464C738.238 44.1375 738.323 42.5038 738.492 41.2452C738.795 39.0064 739.382 37.1427 740.253 35.6542C741.003 34.3835 741.984 33.3609 743.194 32.5864C744.416 31.8119 745.874 31.4246 747.568 31.4246C750.013 31.4246 751.961 32.0539 753.414 33.3125C754.866 34.559 755.683 36.223 755.864 38.3045H750.709Z" fill="white"/>
<path d="M927.121 69.695C926.765 70.0506 926.321 70.2462 925.787 70.2817C925.254 70.2462 924.809 70.0506 924.454 69.695C924.063 69.3038 923.867 68.8594 923.867 68.3615C923.903 67.8282 924.098 67.3837 924.454 67.0281C924.809 66.6725 925.236 66.4947 925.734 66.4947C926.267 66.4591 926.73 66.6369 927.121 67.0281C927.476 67.3837 927.654 67.8459 927.654 68.4149C927.654 68.9127 927.476 69.3394 927.121 69.695Z" fill="#29313B"/>
<path d="M946.109 60.2008C945.54 60.7697 944.793 61.3742 943.869 62.0143C942.909 62.6188 941.984 63.1522 941.095 63.6144L939.389 64.4678L938.855 63.081C939.14 62.9388 939.691 62.6721 940.509 62.281C941.291 61.8543 942.127 61.3742 943.016 60.8408C943.905 60.2363 944.598 59.6852 945.096 59.1873C946.02 58.2628 946.678 57.3916 947.069 56.5738C947.425 55.7204 947.638 55.1159 947.709 54.7603C947.176 55.0092 946.394 55.4359 945.362 56.0404C944.296 56.6093 943.229 57.2494 942.162 57.9606C941.095 58.6006 940.295 59.1873 939.762 59.7207C939.406 60.0763 939.122 60.4675 938.908 60.8942C938.695 61.2498 938.5 61.6231 938.322 62.0143L936.988 61.5342C937.131 61.0364 937.326 60.5564 937.575 60.0941C937.859 59.5963 938.233 59.1162 938.695 58.654C939.193 58.1561 939.993 57.5694 941.095 56.8938C942.162 56.1826 943.336 55.4714 944.616 54.7603C945.896 54.0491 947.069 53.4446 948.136 52.9468L949.203 54.0135C949.061 54.7958 948.723 55.8093 948.189 57.0538C947.656 58.2984 946.963 59.3474 946.109 60.2008Z" fill="#29313B"/>
<path fill-rule="evenodd" clip-rule="evenodd" d="M1000 16C1000 7.16344 992.837 0 984 0H926C917.163 0 910 7.16344 910 16V74C910 82.8366 917.163 90 926 90H984C992.837 90 1000 82.8366 1000 74V16ZM958.11 65.1612C956.937 65.908 955.372 66.6547 953.417 67.4014C951.461 68.1482 949.416 68.7705 947.283 69.2683C945.149 69.7661 943.229 70.0862 941.522 70.2284C939.88 71.4156 938.211 72.5579 936.516 73.6554L936.935 71.8286L938.268 65.5879C937.984 65.5168 937.646 65.4635 937.255 65.4279L936.082 65.1079L936.135 63.0277L931.868 62.601L931.708 64.0411C932.135 64.1123 932.597 64.1834 933.095 64.2545C933.592 64.2545 934.09 64.29 934.588 64.3612L934.535 66.228L936.508 66.708L935.121 73.002L934.755 74.7728C934.646 74.8405 934.537 74.9081 934.428 74.9755C931.974 76.4334 929.734 77.6424 927.707 78.6025C925.681 79.5626 924.056 80.1866 922.918 80.4L921.947 78.3892C921.591 78.318 921.165 78.2114 920.667 78.0691C920.169 77.9269 919.813 77.8202 919.6 77.7491L922.694 61.9609C923.014 60.1474 923.511 58.1561 924.187 55.987L926.214 49.4798C926.925 47.2751 927.512 45.266 927.974 43.4525C928.436 41.639 928.668 40.1989 928.668 39.1321L929.894 38.9721C930.428 40.6434 931.228 42.1191 932.295 43.3992C933.326 44.6438 934.535 45.8172 935.922 46.9195C937.451 46.0306 938.908 45.2483 940.295 44.5726C941.682 43.8259 942.891 43.1858 943.922 42.6525C945.202 41.9413 946.856 41.0701 948.883 40.0389C950.91 38.9366 953.008 37.7987 955.177 36.6252C957.346 35.4518 959.284 34.4028 960.991 33.4783C961.773 33.0516 962.769 32.4471 963.978 31.6648C965.187 30.8113 966.2 29.9757 967.018 29.1579C967.836 28.34 968.742 27.1488 969.738 25.5842C970.371 24.6026 970.996 23.3067 971.616 22.0247C972.006 21.2167 972.393 20.4142 972.778 19.6994C973.356 18.6265 973.886 16.9631 974.368 15.4501C974.716 14.3556 975.04 13.3396 975.339 12.6829C975.485 12.3694 975.622 12.079 975.75 11.8087C976.274 10.6993 976.638 9.92902 976.809 9.3L978.139 9.30001C978.545 12.1386 978.882 15.051 979.159 17.4352C979.44 19.8594 979.658 21.7381 979.819 22.4372C980.352 22.615 981.259 22.8462 982.539 23.1306C983.855 23.3795 985.259 23.6462 986.753 23.9307C988.211 24.1796 989.491 24.393 990.593 24.5708L990.7 25.8509C989.029 26.3131 987.073 26.8465 984.833 27.451C982.557 28.02 980.335 28.7845 978.165 29.7446C975.996 30.6336 974.183 31.807 972.725 33.2649L977.685 35.0251C977.97 35.3807 978.023 35.8607 977.845 36.4652C977.668 37.0697 977.33 37.6209 976.832 38.1187C976.121 38.8299 975.179 39.4877 974.005 40.0922C972.796 40.6612 971.658 41.2301 970.591 41.799L963.657 44.9993C963.373 45.3549 963.124 45.7105 962.911 46.0661C962.662 46.3861 962.431 46.724 962.217 47.0795C961.613 48.0396 960.795 49.2842 959.764 50.8132C958.733 52.3423 957.577 53.9957 956.297 55.7737C955.017 57.4805 953.665 59.1518 952.243 60.7875L958.11 65.1612Z" fill="#29313B"/>
</svg>
