<svg width="1000" height="90" viewBox="0 0 1000 90" fill="none" xmlns="http://www.w3.org/2000/svg">
<rect width="300" height="90" rx="16" fill="#29313B"/>
<circle cx="50.1092" cy="45.0001" r="4.13072" fill="white"/>
<path d="M31.5195 44.9999C31.5195 34.7339 39.8418 26.4116 50.1078 26.4116" stroke="white" stroke-width="4.64706" stroke-linecap="round"/>
<path d="M68.6973 44.9999C68.6973 55.2659 60.375 63.5881 50.109 63.5881" stroke="white" stroke-width="4.64706" stroke-linecap="round"/>
<path d="M39.7832 45.0001C39.7832 39.2968 44.4067 34.6733 50.11 34.6733" stroke="white" stroke-width="4.64706" stroke-linecap="round"/>
<path d="M60.4336 44.9996C60.4336 50.703 55.8101 55.3264 50.1068 55.3264" stroke="white" stroke-width="4.64706" stroke-linecap="round"/>
<path d="M96.2687 58V31.9765H101.845V58H96.2687ZM118.902 58.4833C117.142 58.4833 115.488 58.1363 113.939 57.4424C112.39 56.736 111.027 55.7632 109.849 54.524C108.685 53.2848 107.768 51.8535 107.098 50.2301C106.442 48.5944 106.113 46.8471 106.113 44.9882C106.113 43.117 106.442 41.3697 107.098 39.7464C107.768 38.1106 108.685 36.6793 109.849 35.4525C111.027 34.2133 112.39 33.2467 113.939 32.5527C115.488 31.8464 117.142 31.4932 118.902 31.4932C121.009 31.4932 122.948 31.9827 124.72 32.9616C126.492 33.9282 127.961 35.2232 129.125 36.8466L124.144 39.5233C123.499 38.7798 122.725 38.1849 121.82 37.7388C120.916 37.2927 119.943 37.0696 118.902 37.0696C117.911 37.0696 116.975 37.2741 116.095 37.6831C115.228 38.092 114.459 38.662 113.79 39.3932C113.133 40.1119 112.619 40.9484 112.247 41.9026C111.876 42.8568 111.69 43.8853 111.69 44.9882C111.69 46.0787 111.876 47.1011 112.247 48.0553C112.619 49.0095 113.133 49.8522 113.79 50.5833C114.459 51.302 115.228 51.8721 116.095 52.2934C116.975 52.7024 117.911 52.9068 118.902 52.9068C119.943 52.9068 120.916 52.6838 121.82 52.2376C122.725 51.7791 123.499 51.1719 124.144 50.416L129.125 53.1299C127.961 54.7409 126.492 56.0358 124.72 57.0148C122.948 57.9938 121.009 58.4833 118.902 58.4833ZM132.452 58V31.9765H142.266C143.692 31.9765 144.98 32.342 146.133 33.0732C147.298 33.7919 148.221 34.7585 148.902 35.9729C149.584 37.175 149.925 38.4947 149.925 39.9322C149.925 41.3945 149.572 42.7267 148.865 43.9287C148.171 45.1307 147.242 46.0911 146.077 46.8099C144.912 47.5286 143.642 47.888 142.266 47.888H138.028V58H132.452ZM138.028 42.3115H141.634C142.13 42.3115 142.582 42.1876 142.991 41.9398C143.4 41.6795 143.729 41.3387 143.977 40.9174C144.224 40.4961 144.348 40.0314 144.348 39.5233C144.348 39.0152 144.224 38.5505 143.977 38.1292C143.729 37.7078 143.4 37.3733 142.991 37.1254C142.582 36.8652 142.13 36.7351 141.634 36.7351H138.028V42.3115ZM165.699 58.4833C163.94 58.4833 162.285 58.1363 160.736 57.4424C159.187 56.736 157.824 55.7632 156.647 54.524C155.482 53.2848 154.565 51.8535 153.896 50.2301C153.239 48.5944 152.911 46.8471 152.911 44.9882C152.911 43.117 153.239 41.3697 153.896 39.7464C154.565 38.1106 155.482 36.6793 156.647 35.4525C157.824 34.2133 159.187 33.2467 160.736 32.5527C162.285 31.8464 163.94 31.4932 165.699 31.4932C167.806 31.4932 169.745 31.9827 171.517 32.9616C173.289 33.9282 174.758 35.2232 175.923 36.8466L170.941 39.5233C170.297 38.7798 169.522 38.1849 168.618 37.7388C167.713 37.2927 166.74 37.0696 165.699 37.0696C164.708 37.0696 163.772 37.2741 162.892 37.6831C162.025 38.092 161.257 38.662 160.587 39.3932C159.931 40.1119 159.416 40.9484 159.045 41.9026C158.673 42.8568 158.487 43.8853 158.487 44.9882C158.487 46.0787 158.673 47.1011 159.045 48.0553C159.416 49.0095 159.931 49.8522 160.587 50.5833C161.257 51.302 162.025 51.8721 162.892 52.2934C163.772 52.7024 164.708 52.9068 165.699 52.9068C166.74 52.9068 167.713 52.6838 168.618 52.2376C169.522 51.7791 170.297 51.1719 170.941 50.416L175.923 53.1299C174.758 54.7409 173.289 56.0358 171.517 57.0148C169.745 57.9938 167.806 58.4833 165.699 58.4833ZM188.943 58V31.9765H194.519V52.4235H204.743V58H188.943ZM209.396 58V31.9765H214.972V58H209.396ZM229.055 58L219.612 31.9765H225.523L232.661 51.6056L239.799 31.9765H245.71L236.267 58H229.055ZM249.064 58V31.9765H265.645V37.5529H254.64V41.2706H263.117V46.8471H254.64V52.4235H265.645V58H249.064Z" fill="white"/>
<rect x="374.5" width="461" height="90" rx="16" fill="#29313C"/>
<path d="M488.563 41.6795H485.477L483.674 48.2784H486.815L485.626 52.6652H482.54L481.09 58H476.555L478.004 52.6652H471.127L469.714 58H465.179L466.591 52.6652H463.487L464.677 48.2784H467.762L469.565 41.6795H466.424L467.614 37.3113H470.718L472.149 31.9765H476.685L475.253 37.3113H482.112L483.525 31.9765H488.061L486.648 37.3113H489.752L488.563 41.6795ZM479.138 48.2784L480.941 41.6795H474.101L472.298 48.2784H479.138ZM493.456 39.4118H497.992V58H493.456V39.4118ZM495.761 37.0139C495.092 37.0139 494.528 36.797 494.07 36.3633C493.611 35.9172 493.382 35.3595 493.382 34.6904C493.382 34.0336 493.611 33.4821 494.07 33.036C494.528 32.5899 495.086 32.3668 495.743 32.3668C496.399 32.3668 496.951 32.5899 497.397 33.036C497.855 33.4821 498.085 34.0336 498.085 34.6904C498.085 35.3595 497.862 35.9172 497.416 36.3633C496.969 36.797 496.418 37.0139 495.761 37.0139ZM513.549 52.4049L517.638 54.6169C516.783 55.7818 515.711 56.7174 514.423 57.4238C513.134 58.1301 511.727 58.4833 510.203 58.4833C508.493 58.4833 506.932 58.0434 505.519 57.1635C504.119 56.2837 502.997 55.1064 502.154 53.6318C501.324 52.1447 500.909 50.5027 500.909 48.7059C500.909 47.3427 501.151 46.0725 501.634 44.8953C502.117 43.7056 502.78 42.6647 503.623 41.7725C504.478 40.8678 505.469 40.1615 506.597 39.6534C507.725 39.1453 508.927 38.8913 510.203 38.8913C511.727 38.8913 513.134 39.2445 514.423 39.9508C515.711 40.6572 516.783 41.6052 517.638 42.7948L513.549 44.9882C513.115 44.4925 512.601 44.1084 512.006 43.8358C511.424 43.5631 510.823 43.4268 510.203 43.4268C509.311 43.4268 508.505 43.6747 507.787 44.1704C507.068 44.6536 506.498 45.298 506.076 46.1035C505.655 46.8966 505.444 47.7641 505.444 48.7059C505.444 49.6353 505.655 50.5027 506.076 51.3082C506.498 52.1013 507.068 52.7395 507.787 53.2228C508.505 53.7061 509.311 53.9478 510.203 53.9478C510.847 53.9478 511.461 53.8115 512.043 53.5388C512.626 53.2538 513.128 52.8758 513.549 52.4049ZM525.511 67.2941H520.976V39.4118H525.511V41.7725C526.118 40.9298 526.862 40.2482 527.742 39.7278C528.634 39.1949 529.675 38.9285 530.864 38.9285C532.228 38.9285 533.498 39.1825 534.675 39.6906C535.852 40.1987 536.887 40.905 537.779 41.8096C538.684 42.7019 539.384 43.7366 539.88 44.9139C540.388 46.0911 540.642 47.3551 540.642 48.7059C540.642 50.0566 540.388 51.3268 539.88 52.5165C539.384 53.7061 538.684 54.7533 537.779 55.6579C536.887 56.5501 535.852 57.2503 534.675 57.7584C533.498 58.2664 532.228 58.5205 530.864 58.5205C529.675 58.5205 528.634 58.2602 527.742 57.7398C526.862 57.2069 526.118 56.5191 525.511 55.6765V67.2941ZM530.809 43.2967C529.867 43.2967 529.024 43.5445 528.281 44.0402C527.537 44.5235 526.955 45.1741 526.533 45.992C526.112 46.8099 525.901 47.7145 525.901 48.7059C525.901 49.6973 526.112 50.6081 526.533 51.4384C526.955 52.2562 527.537 52.913 528.281 53.4087C529.024 53.892 529.867 54.1336 530.809 54.1336C531.763 54.1336 532.637 53.892 533.43 53.4087C534.223 52.9254 534.855 52.2748 535.326 51.4569C535.797 50.6267 536.032 49.7096 536.032 48.7059C536.032 47.7145 535.797 46.8099 535.326 45.992C534.855 45.1741 534.223 44.5235 533.43 44.0402C532.649 43.5445 531.775 43.2967 530.809 43.2967ZM555.155 52.4049L559.244 54.6169C558.389 55.7818 557.317 56.7174 556.028 57.4238C554.74 58.1301 553.333 58.4833 551.809 58.4833C550.099 58.4833 548.537 58.0434 547.125 57.1635C545.724 56.2837 544.603 55.1064 543.76 53.6318C542.93 52.1447 542.515 50.5027 542.515 48.7059C542.515 47.3427 542.756 46.0725 543.24 44.8953C543.723 43.7056 544.386 42.6647 545.229 41.7725C546.084 40.8678 547.075 40.1615 548.203 39.6534C549.33 39.1453 550.532 38.8913 551.809 38.8913C553.333 38.8913 554.74 39.2445 556.028 39.9508C557.317 40.6572 558.389 41.6052 559.244 42.7948L555.155 44.9882C554.721 44.4925 554.207 44.1084 553.612 43.8358C553.029 43.5631 552.428 43.4268 551.809 43.4268C550.917 43.4268 550.111 43.6747 549.392 44.1704C548.674 44.6536 548.104 45.298 547.682 46.1035C547.261 46.8966 547.05 47.7641 547.05 48.7059C547.05 49.6353 547.261 50.5027 547.682 51.3082C548.104 52.1013 548.674 52.7395 549.392 53.2228C550.111 53.7061 550.917 53.9478 551.809 53.9478C552.453 53.9478 553.067 53.8115 553.649 53.5388C554.231 53.2538 554.733 52.8758 555.155 52.4049ZM568.511 58L561.856 31.9765H566.541L571.076 49.7654L575.612 31.9765H579.757L584.292 49.7654L588.809 31.9765H593.493L586.876 58H581.727L577.675 42.2372L573.678 58H568.511ZM596.853 58V31.9765H612.226V36.512H601.389V41.7911H610.441V46.3266H601.389V58H596.853ZM614.933 58V31.9765H619.469V53.4645H630.306V58H614.933ZM632.088 51.1224V39.4118H636.624V49.9327C636.624 50.6638 636.803 51.333 637.163 51.9402C637.522 52.5351 637.999 53.0122 638.594 53.3715C639.201 53.7185 639.864 53.892 640.583 53.892C641.327 53.892 641.996 53.7185 642.591 53.3715C643.185 53.0122 643.662 52.5351 644.022 51.9402C644.381 51.333 644.561 50.6638 644.561 49.9327V39.4118H649.096L649.115 58H644.579L644.561 56.3085C643.916 56.9776 643.154 57.5105 642.275 57.9071C641.395 58.2912 640.453 58.4833 639.449 58.4833C638.098 58.4833 636.865 58.1549 635.75 57.4981C634.635 56.8289 633.743 55.9429 633.073 54.84C632.417 53.7247 632.088 52.4855 632.088 51.1224ZM652.092 58L658.896 48.6687L652.148 39.3932H657.743L661.684 44.8024L665.643 39.3932H671.238L664.491 48.6687L671.294 58H665.699L661.684 52.4979L657.687 58H652.092ZM681.273 58.4833C679.563 58.4833 678.001 58.0434 676.589 57.1635C675.188 56.2837 674.067 55.1064 673.224 53.6318C672.394 52.1447 671.979 50.5027 671.979 48.7059C671.979 47.3427 672.22 46.0725 672.704 44.8953C673.187 43.7056 673.85 42.6647 674.693 41.7725C675.548 40.8678 676.539 40.1615 677.667 39.6534C678.794 39.1453 679.997 38.8913 681.273 38.8913C682.983 38.8913 684.538 39.3312 685.939 40.2111C687.351 41.0909 688.473 42.2744 689.303 43.7614C690.146 45.2485 690.567 46.8966 690.567 48.7059C690.567 50.0566 690.325 51.3206 689.842 52.4979C689.359 53.6751 688.69 54.7161 687.835 55.6207C686.992 56.5129 686.007 57.2131 684.879 57.7212C683.764 58.2293 682.562 58.4833 681.273 58.4833ZM681.273 53.9478C682.178 53.9478 682.989 53.7061 683.708 53.2228C684.427 52.7395 684.991 52.1013 685.399 51.3082C685.821 50.5151 686.031 49.6477 686.031 48.7059C686.031 47.7393 685.815 46.8595 685.381 46.0664C684.96 45.2609 684.383 44.6227 683.652 44.1518C682.933 43.6685 682.14 43.4268 681.273 43.4268C680.381 43.4268 679.575 43.6685 678.856 44.1518C678.138 44.6351 677.568 45.2795 677.146 46.0849C676.725 46.8904 676.514 47.7641 676.514 48.7059C676.514 49.6849 676.731 50.5709 677.165 51.364C677.599 52.1571 678.175 52.7891 678.894 53.26C679.625 53.7185 680.418 53.9478 681.273 53.9478ZM693.48 58L693.461 39.4118H697.997L698.015 41.0661C698.647 40.3969 699.403 39.8703 700.283 39.4861C701.163 39.0896 702.111 38.8913 703.127 38.8913C703.809 38.8913 704.49 38.9904 705.172 39.1887L703.387 43.7614C702.916 43.5755 702.446 43.4826 701.975 43.4826C701.244 43.4826 700.574 43.6623 699.967 44.0216C699.372 44.3686 698.895 44.8457 698.536 45.4529C698.189 46.0478 698.015 46.7107 698.015 47.4419V58H693.48ZM718.101 58V51.6986H707.022V47.1445L717.041 31.9765H722.636V47.1631H724.83V51.6986H722.636V58H718.101ZM712.282 47.1445L718.101 47.1631L718.082 38.1664L712.282 47.1445ZM737.139 58.4833C735.478 58.4833 733.954 58.0682 732.566 57.2379C731.178 56.4076 730.069 55.2985 729.239 53.9106C728.408 52.5227 727.993 50.986 727.993 49.3007C727.993 48.4333 728.092 47.6278 728.291 46.8842C728.501 46.1407 728.824 45.391 729.257 44.6351L736.544 31.9765H741.804L736.916 40.4341C737.919 40.3598 738.886 40.4465 739.815 40.6944C740.745 40.9422 741.606 41.3325 742.399 41.8654C743.192 42.3983 743.886 43.0427 744.481 43.7986C745.076 44.5545 745.534 45.3972 745.857 46.3266C746.191 47.256 746.358 48.2474 746.358 49.3007C746.358 50.5647 746.117 51.7482 745.634 52.8511C745.163 53.954 744.506 54.9329 743.663 55.788C742.821 56.6307 741.842 57.2936 740.726 57.7769C739.611 58.2478 738.415 58.4833 737.139 58.4833ZM737.139 53.9478C738.043 53.9478 738.849 53.7309 739.555 53.2972C740.262 52.8511 740.813 52.2748 741.21 51.5685C741.618 50.8621 741.823 50.1124 741.823 49.3193C741.823 48.4642 741.618 47.6835 741.21 46.9772C740.801 46.2708 740.243 45.707 739.537 45.2856C738.843 44.8643 738.056 44.6536 737.176 44.6536C736.271 44.6536 735.466 44.8767 734.759 45.3228C734.065 45.7565 733.52 46.3266 733.124 47.0329C732.727 47.7393 732.529 48.5014 732.529 49.3193C732.529 50.1991 732.746 50.986 733.179 51.68C733.613 52.374 734.177 52.9254 734.871 53.3344C735.577 53.7433 736.333 53.9478 737.139 53.9478Z" fill="white"/>
<path d="M927.121 69.695C926.765 70.0506 926.321 70.2462 925.787 70.2817C925.254 70.2462 924.809 70.0506 924.454 69.695C924.063 69.3038 923.867 68.8594 923.867 68.3615C923.903 67.8282 924.098 67.3837 924.454 67.0281C924.809 66.6725 925.236 66.4947 925.734 66.4947C926.267 66.4591 926.73 66.6369 927.121 67.0281C927.476 67.3837 927.654 67.8459 927.654 68.4149C927.654 68.9127 927.476 69.3394 927.121 69.695Z" fill="#29313B"/>
<path d="M946.109 60.2008C945.54 60.7697 944.793 61.3742 943.869 62.0143C942.909 62.6188 941.984 63.1522 941.095 63.6144L939.389 64.4678L938.855 63.081C939.14 62.9388 939.691 62.6721 940.509 62.281C941.291 61.8543 942.127 61.3742 943.016 60.8408C943.905 60.2363 944.598 59.6852 945.096 59.1873C946.02 58.2628 946.678 57.3916 947.069 56.5738C947.425 55.7204 947.638 55.1159 947.709 54.7603C947.176 55.0092 946.394 55.4359 945.362 56.0404C944.296 56.6093 943.229 57.2494 942.162 57.9606C941.095 58.6006 940.295 59.1873 939.762 59.7207C939.406 60.0763 939.122 60.4675 938.908 60.8942C938.695 61.2498 938.5 61.6231 938.322 62.0143L936.988 61.5342C937.131 61.0364 937.326 60.5564 937.575 60.0941C937.859 59.5963 938.233 59.1162 938.695 58.654C939.193 58.1561 939.993 57.5694 941.095 56.8938C942.162 56.1826 943.336 55.4714 944.616 54.7603C945.896 54.0491 947.069 53.4446 948.136 52.9468L949.203 54.0135C949.061 54.7958 948.723 55.8093 948.189 57.0538C947.656 58.2984 946.963 59.3474 946.109 60.2008Z" fill="#29313B"/>
<path fill-rule="evenodd" clip-rule="evenodd" d="M1000 16C1000 7.16344 992.837 0 984 0H926C917.163 0 910 7.16344 910 16V74C910 82.8366 917.163 90 926 90H984C992.837 90 1000 82.8366 1000 74V16ZM958.11 65.1612C956.937 65.908 955.372 66.6547 953.417 67.4014C951.461 68.1482 949.416 68.7705 947.283 69.2683C945.149 69.7661 943.229 70.0862 941.522 70.2284C939.88 71.4156 938.211 72.5579 936.516 73.6554L936.935 71.8286L938.268 65.5879C937.984 65.5168 937.646 65.4635 937.255 65.4279L936.082 65.1079L936.135 63.0277L931.868 62.601L931.708 64.0411C932.135 64.1123 932.597 64.1834 933.095 64.2545C933.592 64.2545 934.09 64.29 934.588 64.3612L934.535 66.228L936.508 66.708L935.121 73.002L934.755 74.7728C934.646 74.8405 934.537 74.9081 934.428 74.9755C931.974 76.4334 929.734 77.6424 927.707 78.6025C925.681 79.5626 924.056 80.1866 922.918 80.4L921.947 78.3892C921.591 78.318 921.165 78.2114 920.667 78.0691C920.169 77.9269 919.813 77.8202 919.6 77.7491L922.694 61.9609C923.014 60.1474 923.511 58.1561 924.187 55.987L926.214 49.4798C926.925 47.2751 927.512 45.266 927.974 43.4525C928.436 41.639 928.668 40.1989 928.668 39.1321L929.894 38.9721C930.428 40.6434 931.228 42.1191 932.295 43.3992C933.326 44.6438 934.535 45.8172 935.922 46.9195C937.451 46.0306 938.908 45.2483 940.295 44.5726C941.682 43.8259 942.891 43.1858 943.922 42.6525C945.202 41.9413 946.856 41.0701 948.883 40.0389C950.91 38.9366 953.008 37.7987 955.177 36.6252C957.346 35.4518 959.284 34.4028 960.991 33.4783C961.773 33.0516 962.769 32.4471 963.978 31.6648C965.187 30.8113 966.2 29.9757 967.018 29.1579C967.836 28.34 968.742 27.1488 969.738 25.5842C970.371 24.6026 970.996 23.3067 971.616 22.0247C972.006 21.2167 972.393 20.4142 972.778 19.6994C973.356 18.6265 973.886 16.9631 974.368 15.4501C974.716 14.3556 975.04 13.3396 975.339 12.6829C975.485 12.3694 975.622 12.079 975.75 11.8087C976.274 10.6993 976.638 9.92902 976.809 9.3L978.139 9.30001C978.545 12.1386 978.882 15.051 979.159 17.4352C979.44 19.8594 979.658 21.7381 979.819 22.4372C980.352 22.615 981.259 22.8462 982.539 23.1306C983.855 23.3795 985.259 23.6462 986.753 23.9307C988.211 24.1796 989.491 24.393 990.593 24.5708L990.7 25.8509C989.029 26.3131 987.073 26.8465 984.833 27.451C982.557 28.02 980.335 28.7845 978.165 29.7446C975.996 30.6336 974.183 31.807 972.725 33.2649L977.685 35.0251C977.97 35.3807 978.023 35.8607 977.845 36.4652C977.668 37.0697 977.33 37.6209 976.832 38.1187C976.121 38.8299 975.179 39.4877 974.005 40.0922C972.796 40.6612 971.658 41.2301 970.591 41.799L963.657 44.9993C963.373 45.3549 963.124 45.7105 962.911 46.0661C962.662 46.3861 962.431 46.724 962.217 47.0795C961.613 48.0396 960.795 49.2842 959.764 50.8132C958.733 52.3423 957.577 53.9957 956.297 55.7737C955.017 57.4805 953.665 59.1518 952.243 60.7875L958.11 65.1612Z" fill="#29313B"/>
</svg>
