<svg width="1000" height="90" viewBox="0 0 1000 90" fill="none" xmlns="http://www.w3.org/2000/svg">
<rect width="300" height="90" rx="16" fill="#29313B"/>
<circle cx="50.1092" cy="45.0003" r="4.13072" fill="white"/>
<path d="M31.5195 45.0001C31.5195 34.7341 39.8418 26.4119 50.1078 26.4119" stroke="white" stroke-width="4.64706" stroke-linecap="round"/>
<path d="M68.6973 45.0001C68.6973 55.2661 60.375 63.5883 50.109 63.5883" stroke="white" stroke-width="4.64706" stroke-linecap="round"/>
<path d="M39.7832 45.0003C39.7832 39.297 44.4067 34.6735 50.11 34.6735" stroke="white" stroke-width="4.64706" stroke-linecap="round"/>
<path d="M60.4336 44.9998C60.4336 50.7031 55.8101 55.3266 50.1068 55.3266" stroke="white" stroke-width="4.64706" stroke-linecap="round"/>
<path d="M96.2687 58V31.9765H101.845V58H96.2687ZM118.902 58.4833C117.142 58.4833 115.488 58.1363 113.939 57.4424C112.39 56.736 111.027 55.7632 109.849 54.524C108.685 53.2848 107.768 51.8535 107.098 50.2301C106.442 48.5944 106.113 46.8471 106.113 44.9882C106.113 43.117 106.442 41.3697 107.098 39.7464C107.768 38.1106 108.685 36.6793 109.849 35.4525C111.027 34.2133 112.39 33.2467 113.939 32.5527C115.488 31.8464 117.142 31.4932 118.902 31.4932C121.009 31.4932 122.948 31.9827 124.72 32.9616C126.492 33.9282 127.961 35.2232 129.125 36.8466L124.144 39.5233C123.499 38.7798 122.725 38.1849 121.82 37.7388C120.916 37.2927 119.943 37.0696 118.902 37.0696C117.911 37.0696 116.975 37.2741 116.095 37.6831C115.228 38.092 114.459 38.662 113.79 39.3932C113.133 40.1119 112.619 40.9484 112.247 41.9026C111.876 42.8568 111.69 43.8853 111.69 44.9882C111.69 46.0787 111.876 47.1011 112.247 48.0553C112.619 49.0095 113.133 49.8522 113.79 50.5833C114.459 51.302 115.228 51.8721 116.095 52.2934C116.975 52.7024 117.911 52.9068 118.902 52.9068C119.943 52.9068 120.916 52.6838 121.82 52.2376C122.725 51.7791 123.499 51.1719 124.144 50.416L129.125 53.1299C127.961 54.7409 126.492 56.0358 124.72 57.0148C122.948 57.9938 121.009 58.4833 118.902 58.4833ZM132.452 58V31.9765H142.266C143.692 31.9765 144.98 32.342 146.133 33.0732C147.298 33.7919 148.221 34.7585 148.902 35.9729C149.584 37.175 149.925 38.4947 149.925 39.9322C149.925 41.3945 149.572 42.7267 148.865 43.9287C148.171 45.1307 147.242 46.0911 146.077 46.8099C144.912 47.5286 143.642 47.888 142.266 47.888H138.028V58H132.452ZM138.028 42.3115H141.634C142.13 42.3115 142.582 42.1876 142.991 41.9398C143.4 41.6795 143.729 41.3387 143.977 40.9174C144.224 40.4961 144.348 40.0314 144.348 39.5233C144.348 39.0152 144.224 38.5505 143.977 38.1292C143.729 37.7078 143.4 37.3733 142.991 37.1254C142.582 36.8652 142.13 36.7351 141.634 36.7351H138.028V42.3115ZM165.699 58.4833C163.94 58.4833 162.285 58.1363 160.736 57.4424C159.187 56.736 157.824 55.7632 156.647 54.524C155.482 53.2848 154.565 51.8535 153.896 50.2301C153.239 48.5944 152.911 46.8471 152.911 44.9882C152.911 43.117 153.239 41.3697 153.896 39.7464C154.565 38.1106 155.482 36.6793 156.647 35.4525C157.824 34.2133 159.187 33.2467 160.736 32.5527C162.285 31.8464 163.94 31.4932 165.699 31.4932C167.806 31.4932 169.745 31.9827 171.517 32.9616C173.289 33.9282 174.758 35.2232 175.923 36.8466L170.941 39.5233C170.297 38.7798 169.522 38.1849 168.618 37.7388C167.713 37.2927 166.74 37.0696 165.699 37.0696C164.708 37.0696 163.772 37.2741 162.892 37.6831C162.025 38.092 161.257 38.662 160.587 39.3932C159.931 40.1119 159.416 40.9484 159.045 41.9026C158.673 42.8568 158.487 43.8853 158.487 44.9882C158.487 46.0787 158.673 47.1011 159.045 48.0553C159.416 49.0095 159.931 49.8522 160.587 50.5833C161.257 51.302 162.025 51.8721 162.892 52.2934C163.772 52.7024 164.708 52.9068 165.699 52.9068C166.74 52.9068 167.713 52.6838 168.618 52.2376C169.522 51.7791 170.297 51.1719 170.941 50.416L175.923 53.1299C174.758 54.7409 173.289 56.0358 171.517 57.0148C169.745 57.9938 167.806 58.4833 165.699 58.4833ZM188.943 58V31.9765H194.519V52.4235H204.743V58H188.943ZM209.396 58V31.9765H214.972V58H209.396ZM229.055 58L219.612 31.9765H225.523L232.661 51.6056L239.799 31.9765H245.71L236.267 58H229.055ZM249.064 58V31.9765H265.645V37.5529H254.64V41.2706H263.117V46.8471H254.64V52.4235H265.645V58H249.064Z" fill="white"/>
<rect x="374.5" width="461" height="90" rx="16" fill="#29313C"/>
<path d="M488.563 41.6795H485.477L483.674 48.2784H486.815L485.626 52.6652H482.54L481.09 58H476.555L478.004 52.6652H471.127L469.714 58H465.179L466.591 52.6652H463.487L464.677 48.2784H467.762L469.565 41.6795H466.424L467.614 37.3113H470.718L472.149 31.9765H476.685L475.253 37.3113H482.112L483.525 31.9765H488.061L486.648 37.3113H489.752L488.563 41.6795ZM479.138 48.2784L480.941 41.6795H474.101L472.298 48.2784H479.138ZM493.456 39.4118H497.992V58H493.456V39.4118ZM495.761 37.0139C495.092 37.0139 494.528 36.797 494.07 36.3633C493.611 35.9172 493.382 35.3595 493.382 34.6904C493.382 34.0336 493.611 33.4821 494.07 33.036C494.528 32.5899 495.086 32.3668 495.743 32.3668C496.399 32.3668 496.951 32.5899 497.397 33.036C497.855 33.4821 498.085 34.0336 498.085 34.6904C498.085 35.3595 497.862 35.9172 497.416 36.3633C496.969 36.797 496.418 37.0139 495.761 37.0139ZM513.549 52.4049L517.638 54.6169C516.783 55.7818 515.711 56.7174 514.423 57.4238C513.134 58.1301 511.727 58.4833 510.203 58.4833C508.493 58.4833 506.932 58.0434 505.519 57.1635C504.119 56.2837 502.997 55.1064 502.154 53.6318C501.324 52.1447 500.909 50.5027 500.909 48.7059C500.909 47.3427 501.151 46.0725 501.634 44.8953C502.117 43.7056 502.78 42.6647 503.623 41.7725C504.478 40.8678 505.469 40.1615 506.597 39.6534C507.725 39.1453 508.927 38.8913 510.203 38.8913C511.727 38.8913 513.134 39.2445 514.423 39.9508C515.711 40.6572 516.783 41.6052 517.638 42.7948L513.549 44.9882C513.115 44.4925 512.601 44.1084 512.006 43.8358C511.424 43.5631 510.823 43.4268 510.203 43.4268C509.311 43.4268 508.505 43.6747 507.787 44.1704C507.068 44.6536 506.498 45.298 506.076 46.1035C505.655 46.8966 505.444 47.7641 505.444 48.7059C505.444 49.6353 505.655 50.5027 506.076 51.3082C506.498 52.1013 507.068 52.7395 507.787 53.2228C508.505 53.7061 509.311 53.9478 510.203 53.9478C510.847 53.9478 511.461 53.8115 512.043 53.5388C512.626 53.2538 513.128 52.8758 513.549 52.4049ZM525.511 67.2941H520.976V39.4118H525.511V41.7725C526.118 40.9298 526.862 40.2482 527.742 39.7278C528.634 39.1949 529.675 38.9285 530.864 38.9285C532.228 38.9285 533.498 39.1825 534.675 39.6906C535.852 40.1987 536.887 40.905 537.779 41.8096C538.684 42.7019 539.384 43.7366 539.88 44.9139C540.388 46.0911 540.642 47.3551 540.642 48.7059C540.642 50.0566 540.388 51.3268 539.88 52.5165C539.384 53.7061 538.684 54.7533 537.779 55.6579C536.887 56.5501 535.852 57.2503 534.675 57.7584C533.498 58.2664 532.228 58.5205 530.864 58.5205C529.675 58.5205 528.634 58.2602 527.742 57.7398C526.862 57.2069 526.118 56.5191 525.511 55.6765V67.2941ZM530.809 43.2967C529.867 43.2967 529.024 43.5445 528.281 44.0402C527.537 44.5235 526.955 45.1741 526.533 45.992C526.112 46.8099 525.901 47.7145 525.901 48.7059C525.901 49.6973 526.112 50.6081 526.533 51.4384C526.955 52.2562 527.537 52.913 528.281 53.4087C529.024 53.892 529.867 54.1336 530.809 54.1336C531.763 54.1336 532.637 53.892 533.43 53.4087C534.223 52.9254 534.855 52.2748 535.326 51.4569C535.797 50.6267 536.032 49.7096 536.032 48.7059C536.032 47.7145 535.797 46.8099 535.326 45.992C534.855 45.1741 534.223 44.5235 533.43 44.0402C532.649 43.5445 531.775 43.2967 530.809 43.2967ZM555.155 52.4049L559.244 54.6169C558.389 55.7818 557.317 56.7174 556.028 57.4238C554.74 58.1301 553.333 58.4833 551.809 58.4833C550.099 58.4833 548.537 58.0434 547.125 57.1635C545.724 56.2837 544.603 55.1064 543.76 53.6318C542.93 52.1447 542.515 50.5027 542.515 48.7059C542.515 47.3427 542.756 46.0725 543.24 44.8953C543.723 43.7056 544.386 42.6647 545.229 41.7725C546.084 40.8678 547.075 40.1615 548.203 39.6534C549.33 39.1453 550.532 38.8913 551.809 38.8913C553.333 38.8913 554.74 39.2445 556.028 39.9508C557.317 40.6572 558.389 41.6052 559.244 42.7948L555.155 44.9882C554.721 44.4925 554.207 44.1084 553.612 43.8358C553.029 43.5631 552.428 43.4268 551.809 43.4268C550.917 43.4268 550.111 43.6747 549.392 44.1704C548.674 44.6536 548.104 45.298 547.682 46.1035C547.261 46.8966 547.05 47.7641 547.05 48.7059C547.05 49.6353 547.261 50.5027 547.682 51.3082C548.104 52.1013 548.674 52.7395 549.392 53.2228C550.111 53.7061 550.917 53.9478 551.809 53.9478C552.453 53.9478 553.067 53.8115 553.649 53.5388C554.231 53.2538 554.733 52.8758 555.155 52.4049ZM568.511 58L561.856 31.9765H566.541L571.076 49.7654L575.612 31.9765H579.757L584.292 49.7654L588.809 31.9765H593.493L586.876 58H581.727L577.675 42.2372L573.678 58H568.511ZM596.853 58V31.9765H612.226V36.512H601.389V41.7911H610.441V46.3266H601.389V58H596.853ZM614.933 58V31.9765H619.469V53.4645H630.306V58H614.933ZM632.088 51.1224V39.4118H636.624V49.9327C636.624 50.6638 636.803 51.333 637.163 51.9402C637.522 52.5351 637.999 53.0122 638.594 53.3715C639.201 53.7185 639.864 53.892 640.583 53.892C641.327 53.892 641.996 53.7185 642.591 53.3715C643.185 53.0122 643.662 52.5351 644.022 51.9402C644.381 51.333 644.561 50.6638 644.561 49.9327V39.4118H649.096L649.115 58H644.579L644.561 56.3085C643.916 56.9776 643.154 57.5105 642.275 57.9071C641.395 58.2912 640.453 58.4833 639.449 58.4833C638.098 58.4833 636.865 58.1549 635.75 57.4981C634.635 56.8289 633.743 55.9429 633.073 54.84C632.417 53.7247 632.088 52.4855 632.088 51.1224ZM652.092 58L658.896 48.6687L652.148 39.3932H657.743L661.684 44.8024L665.643 39.3932H671.238L664.491 48.6687L671.294 58H665.699L661.684 52.4979L657.687 58H652.092ZM681.273 58.4833C679.563 58.4833 678.001 58.0434 676.589 57.1635C675.188 56.2837 674.067 55.1064 673.224 53.6318C672.394 52.1447 671.979 50.5027 671.979 48.7059C671.979 47.3427 672.22 46.0725 672.704 44.8953C673.187 43.7056 673.85 42.6647 674.693 41.7725C675.548 40.8678 676.539 40.1615 677.667 39.6534C678.794 39.1453 679.997 38.8913 681.273 38.8913C682.983 38.8913 684.538 39.3312 685.939 40.2111C687.351 41.0909 688.473 42.2744 689.303 43.7614C690.146 45.2485 690.567 46.8966 690.567 48.7059C690.567 50.0566 690.325 51.3206 689.842 52.4979C689.359 53.6751 688.69 54.7161 687.835 55.6207C686.992 56.5129 686.007 57.2131 684.879 57.7212C683.764 58.2293 682.562 58.4833 681.273 58.4833ZM681.273 53.9478C682.178 53.9478 682.989 53.7061 683.708 53.2228C684.427 52.7395 684.991 52.1013 685.399 51.3082C685.821 50.5151 686.031 49.6477 686.031 48.7059C686.031 47.7393 685.815 46.8595 685.381 46.0664C684.96 45.2609 684.383 44.6227 683.652 44.1518C682.933 43.6685 682.14 43.4268 681.273 43.4268C680.381 43.4268 679.575 43.6685 678.856 44.1518C678.138 44.6351 677.568 45.2795 677.146 46.0849C676.725 46.8904 676.514 47.7641 676.514 48.7059C676.514 49.6849 676.731 50.5709 677.165 51.364C677.599 52.1571 678.175 52.7891 678.894 53.26C679.625 53.7185 680.418 53.9478 681.273 53.9478ZM693.48 58L693.461 39.4118H697.997L698.015 41.0661C698.647 40.3969 699.403 39.8703 700.283 39.4861C701.163 39.0896 702.111 38.8913 703.127 38.8913C703.809 38.8913 704.49 38.9904 705.172 39.1887L703.387 43.7614C702.916 43.5755 702.446 43.4826 701.975 43.4826C701.244 43.4826 700.574 43.6623 699.967 44.0216C699.372 44.3686 698.895 44.8457 698.536 45.4529C698.189 46.0478 698.015 46.7107 698.015 47.4419V58H693.48ZM718.101 58V51.6986H707.022V47.1445L717.041 31.9765H722.636V47.1631H724.83V51.6986H722.636V58H718.101ZM712.282 47.1445L718.101 47.1631L718.082 38.1664L712.282 47.1445ZM729.109 58L741.507 36.512H727.807V31.9765H746.767V36.512L734.332 58H729.109Z" fill="white"/>
<path fill-rule="evenodd" clip-rule="evenodd" d="M1000 16C1000 7.16345 992.837 0 984 0H926C917.163 0 910 7.16344 910 16V74C910 82.8366 917.163 90 926 90H984C992.837 90 1000 82.8366 1000 74V16ZM947.625 62.151C946.918 61.8315 946.083 62.0622 945.643 62.7009C945.092 63.5003 945.375 64.6022 946.245 65.0324C947.085 65.4473 947.979 65.8857 948.929 66.3473C950.545 67.1824 952.079 67.9464 953.533 68.6393C954.965 69.3688 956.076 69.937 956.866 70.344C959.532 71.6396 962.244 72.8149 965.001 73.8699C967.736 74.9615 970.371 75.6781 972.906 76.0195C973.747 76.138 974.563 76.231 975.355 76.2272C976.983 76.2193 978.508 75.9167 979.928 75.3905C982.037 74.6087 983.768 73.0471 985.12 70.7057C985.986 69.2057 986.344 67.6564 986.194 66.0576C986.102 64.4433 985.658 62.8458 984.863 61.265C984.09 59.6477 983.122 58.1134 981.96 56.662C979.886 54.0014 977.533 51.7404 974.901 49.8791C972.305 48.0388 969.585 46.3709 966.741 44.8753C963.934 43.4009 961.195 41.8927 958.524 40.3508C957.317 39.6538 956.013 38.8279 954.613 37.8733C953.213 36.9186 951.84 35.8331 950.493 34.6167C949.037 33.3369 947.9 32.0953 947.083 30.8917C946.266 29.6882 945.584 28.5874 945.038 27.5894C944.55 26.5759 944.075 25.6673 943.612 24.8636C943.186 24.0809 942.636 23.4707 941.962 23.0327C940.421 21.8993 938.863 21.0488 937.289 20.4811C936.237 20.1072 935.283 19.6418 934.428 19.0848C933.649 18.5778 933.005 17.8969 932.408 17.1854L931.875 16.5507C931.307 15.9298 930.775 15.3301 930.28 14.7515C929.785 14.173 929.391 13.7992 929.098 13.6302C928.769 13.4401 928.124 13.4582 927.164 13.6844C926.34 13.9053 925.655 14.1874 925.11 14.5306C924.999 14.6006 924.963 14.7439 925.021 14.8617L925.641 15.0939C925.938 15.2051 926.179 15.4283 926.313 15.7156C926.391 15.8819 926.429 16.0637 926.426 16.2472L926.418 16.7198C926.413 17.042 926.635 17.3236 926.949 17.3941C927.244 17.4601 927.459 17.7124 927.479 18.0134L927.491 18.2066C927.517 18.6058 927.793 18.9447 928.178 19.0507L928.276 19.0776C928.704 19.1954 929.017 19.5637 929.064 20.0056L929.074 20.0998C929.129 20.6282 929.522 21.0576 930.033 21.2029C930.043 21.2057 930.053 21.2085 930.062 21.2113C930.542 21.3486 930.85 21.8042 930.82 22.3025L930.819 22.3185C930.794 22.7449 931.01 23.1618 931.42 23.2803C931.464 23.293 931.509 23.305 931.554 23.3165C931.6 23.3241 931.645 23.3322 931.688 23.3407C932.116 23.4243 932.34 23.8442 932.306 24.2785C932.27 24.7322 932.512 25.1664 932.919 25.3704C933.11 25.466 933.269 25.6139 933.378 25.7969L936.277 30.6537C936.348 30.7733 936.303 30.9284 936.178 30.9901C936.075 31.0411 935.95 31.0112 935.881 30.9191L932.783 26.7791C932.617 26.5572 932.4 26.3793 932.149 26.2612L931.902 26.1447C931.445 25.9294 931.158 25.4648 931.17 24.96C931.182 24.4933 930.938 24.0494 930.492 23.9097C930.448 23.8959 930.403 23.8824 930.357 23.8692C930.297 23.8541 930.239 23.8384 930.183 23.822C929.832 23.7186 929.639 23.3692 929.645 23.003C929.652 22.5797 929.393 22.1858 928.98 22.0948C928.976 22.094 928.973 22.0932 928.969 22.0924C928.925 22.0829 928.878 22.0691 928.836 22.0542C928.471 21.9247 928.172 21.6273 928.126 21.2427L928.068 20.7645C928.013 20.3018 927.696 19.9122 927.255 19.7629L926.951 19.6603C926.649 19.5579 926.443 19.2763 926.438 18.9568C926.432 18.6168 926.198 18.3219 925.869 18.2369C925.526 18.1485 925.288 17.8349 925.296 17.4811L925.316 16.6879C925.319 16.5708 925.257 16.4614 925.156 16.4028L924.734 15.5241C924.673 15.3983 924.539 15.3254 924.4 15.3433C924.058 15.6883 923.804 16.1152 923.638 16.624C923.383 17.4036 923.482 18.1193 923.935 18.771C924.357 19.3074 924.906 20.0879 925.583 21.1127C926.28 22.1009 926.994 23.1468 927.722 24.2504C928.472 25.3174 929.133 26.2845 929.706 27.1516C931.096 29.2223 932.394 31.2402 933.601 33.2052C934.663 34.901 935.781 36.683 936.957 38.5512C937.324 39.1348 937.285 39.8775 936.94 40.4747C936.705 41.0117 936.067 41.2454 935.544 40.9801L930.694 38.5187C930.43 38.3845 930.106 38.4696 929.942 38.7167L929.809 38.9176C929.728 39.04 929.747 39.2031 929.854 39.3032C930.092 39.5251 929.857 39.914 929.55 39.8061L929.247 39.6993C929.08 39.6406 928.895 39.7091 928.806 39.8622L928.631 40.1665C928.547 40.3107 928.588 40.4946 928.724 40.5902L928.799 40.6426C929.08 40.8398 928.873 41.2792 928.542 41.1873C928.401 41.1481 928.252 41.2141 928.187 41.3447L928.086 41.5456C927.939 41.8396 928.066 42.1972 928.365 42.3325L929.441 42.8181C929.65 42.912 929.609 43.2188 929.384 43.2557C929.301 43.2693 929.232 43.3272 929.204 43.4067L929.122 43.6389C929.003 43.9764 929.182 44.3459 929.519 44.466C930.415 44.7858 931.396 45.1543 932.461 45.5714C933.79 46.1432 934.71 46.577 935.222 46.8727C935.99 47.3162 936.68 47.8119 937.291 48.3595C937.938 48.9283 938.572 49.3922 939.194 49.7513C939.524 49.9414 939.846 49.9324 940.161 49.7242C940.476 49.516 940.74 49.229 940.951 48.8631C941.057 48.6802 941.168 48.403 941.285 48.0315C941.389 47.7007 941.558 47.1562 941.793 46.3981C941.853 46.2058 941.934 46.0205 942.034 45.8462L942.141 45.6607C942.159 45.6301 942.18 45.6013 942.203 45.5747C942.413 45.3362 942.782 45.3308 943.001 45.5612C943.953 46.5647 944.916 47.5182 945.889 48.4214C947 49.4534 947.992 50.27 948.865 50.8712L951.993 52.6772C952.746 53.063 953.462 53.4278 954.141 53.7714C954.748 54.0414 955.224 54.2523 955.569 54.4041C955.678 54.4521 955.721 54.5842 955.661 54.6875L955.626 54.7492C955.586 54.8183 955.614 54.9067 955.687 54.9399C955.833 55.0068 955.761 55.2278 955.603 55.1955L955.497 55.1738C955.435 55.161 955.371 55.1895 955.34 55.2446L955.094 55.6706C954.996 55.839 955.054 56.0544 955.223 56.1516C955.557 56.345 955.381 56.8585 954.998 56.8054L954.896 56.7913C954.73 56.7683 954.57 56.8589 954.503 57.0128L954.411 57.2276C954.286 57.5166 954.417 57.8519 954.704 57.9806L955.763 58.4553C955.969 58.5475 955.929 58.8505 955.707 58.8869C955.62 58.9011 955.549 58.9641 955.525 59.0486L955.449 59.3132C955.353 59.6507 955.537 60.0046 955.868 60.1224C956.77 60.444 957.758 60.815 958.832 61.2355C960.124 61.7862 961.044 62.2199 961.593 62.5368C962.325 62.9592 963.014 63.4548 963.661 64.0236C964.287 64.629 964.911 65.1112 965.533 65.4703C965.826 65.6393 966.13 65.6197 966.445 65.4115C966.761 65.2033 967.024 64.9163 967.235 64.5504C967.299 64.4394 967.407 64.1662 967.558 63.7308C967.896 62.7606 968.901 62.2015 969.885 62.4951C970.796 62.7769 971.818 63.2452 972.952 63.9C973.684 64.3224 974.247 64.8673 974.642 65.5345C975.059 66.1651 975.119 66.7365 974.823 67.2487C974.19 68.3462 973.165 69.0228 971.749 69.2785C970.312 69.5708 968.667 69.5477 966.813 69.2094C964.939 68.9076 962.981 68.4115 960.941 67.7213C958.901 67.031 956.921 66.2781 955.001 65.4626C953.082 64.6471 951.377 63.8824 949.887 63.1684C949.017 62.7784 948.263 62.4392 947.625 62.151Z" fill="#29313B"/>
</svg>
