<svg width="1000" height="90" viewBox="0 0 1000 90" fill="none" xmlns="http://www.w3.org/2000/svg">
<rect width="300" height="90" rx="16" fill="#29313B"/>
<circle cx="50.1092" cy="45.0003" r="4.13072" fill="white"/>
<path d="M31.5195 45.0001C31.5195 34.7341 39.8418 26.4119 50.1078 26.4119" stroke="white" stroke-width="4.64706" stroke-linecap="round"/>
<path d="M68.6973 45.0001C68.6973 55.2661 60.375 63.5883 50.109 63.5883" stroke="white" stroke-width="4.64706" stroke-linecap="round"/>
<path d="M39.7832 45.0003C39.7832 39.297 44.4067 34.6735 50.11 34.6735" stroke="white" stroke-width="4.64706" stroke-linecap="round"/>
<path d="M60.4336 44.9998C60.4336 50.7031 55.8101 55.3266 50.1068 55.3266" stroke="white" stroke-width="4.64706" stroke-linecap="round"/>
<path d="M96.2687 58V31.9765H101.845V58H96.2687ZM118.902 58.4833C117.142 58.4833 115.488 58.1363 113.939 57.4424C112.39 56.736 111.027 55.7632 109.849 54.524C108.685 53.2848 107.768 51.8535 107.098 50.2301C106.442 48.5944 106.113 46.8471 106.113 44.9882C106.113 43.117 106.442 41.3697 107.098 39.7464C107.768 38.1106 108.685 36.6793 109.849 35.4525C111.027 34.2133 112.39 33.2467 113.939 32.5527C115.488 31.8464 117.142 31.4932 118.902 31.4932C121.009 31.4932 122.948 31.9827 124.72 32.9616C126.492 33.9282 127.961 35.2232 129.125 36.8466L124.144 39.5233C123.499 38.7798 122.725 38.1849 121.82 37.7388C120.916 37.2927 119.943 37.0696 118.902 37.0696C117.911 37.0696 116.975 37.2741 116.095 37.6831C115.228 38.092 114.459 38.662 113.79 39.3932C113.133 40.1119 112.619 40.9484 112.247 41.9026C111.876 42.8568 111.69 43.8853 111.69 44.9882C111.69 46.0787 111.876 47.1011 112.247 48.0553C112.619 49.0095 113.133 49.8522 113.79 50.5833C114.459 51.302 115.228 51.8721 116.095 52.2934C116.975 52.7024 117.911 52.9068 118.902 52.9068C119.943 52.9068 120.916 52.6838 121.82 52.2376C122.725 51.7791 123.499 51.1719 124.144 50.416L129.125 53.1299C127.961 54.7409 126.492 56.0358 124.72 57.0148C122.948 57.9938 121.009 58.4833 118.902 58.4833ZM132.452 58V31.9765H142.266C143.692 31.9765 144.98 32.342 146.133 33.0732C147.298 33.7919 148.221 34.7585 148.902 35.9729C149.584 37.175 149.925 38.4947 149.925 39.9322C149.925 41.3945 149.572 42.7267 148.865 43.9287C148.171 45.1307 147.242 46.0911 146.077 46.8099C144.912 47.5286 143.642 47.888 142.266 47.888H138.028V58H132.452ZM138.028 42.3115H141.634C142.13 42.3115 142.582 42.1876 142.991 41.9398C143.4 41.6795 143.729 41.3387 143.977 40.9174C144.224 40.4961 144.348 40.0314 144.348 39.5233C144.348 39.0152 144.224 38.5505 143.977 38.1292C143.729 37.7078 143.4 37.3733 142.991 37.1254C142.582 36.8652 142.13 36.7351 141.634 36.7351H138.028V42.3115ZM165.699 58.4833C163.94 58.4833 162.285 58.1363 160.736 57.4424C159.187 56.736 157.824 55.7632 156.647 54.524C155.482 53.2848 154.565 51.8535 153.896 50.2301C153.239 48.5944 152.911 46.8471 152.911 44.9882C152.911 43.117 153.239 41.3697 153.896 39.7464C154.565 38.1106 155.482 36.6793 156.647 35.4525C157.824 34.2133 159.187 33.2467 160.736 32.5527C162.285 31.8464 163.94 31.4932 165.699 31.4932C167.806 31.4932 169.745 31.9827 171.517 32.9616C173.289 33.9282 174.758 35.2232 175.923 36.8466L170.941 39.5233C170.297 38.7798 169.522 38.1849 168.618 37.7388C167.713 37.2927 166.74 37.0696 165.699 37.0696C164.708 37.0696 163.772 37.2741 162.892 37.6831C162.025 38.092 161.257 38.662 160.587 39.3932C159.931 40.1119 159.416 40.9484 159.045 41.9026C158.673 42.8568 158.487 43.8853 158.487 44.9882C158.487 46.0787 158.673 47.1011 159.045 48.0553C159.416 49.0095 159.931 49.8522 160.587 50.5833C161.257 51.302 162.025 51.8721 162.892 52.2934C163.772 52.7024 164.708 52.9068 165.699 52.9068C166.74 52.9068 167.713 52.6838 168.618 52.2376C169.522 51.7791 170.297 51.1719 170.941 50.416L175.923 53.1299C174.758 54.7409 173.289 56.0358 171.517 57.0148C169.745 57.9938 167.806 58.4833 165.699 58.4833ZM188.943 58V31.9765H194.519V52.4235H204.743V58H188.943ZM209.396 58V31.9765H214.972V58H209.396ZM229.055 58L219.612 31.9765H225.523L232.661 51.6056L239.799 31.9765H245.71L236.267 58H229.055ZM249.064 58V31.9765H265.645V37.5529H254.64V41.2706H263.117V46.8471H254.64V52.4235H265.645V58H249.064Z" fill="white"/>
<rect x="374.5" width="461" height="90" rx="16" fill="#29313C"/>
<path d="M478.563 41.6795H475.477L473.674 48.2784H476.815L475.626 52.6652H472.54L471.09 58H466.555L468.004 52.6652H461.127L459.714 58H455.179L456.591 52.6652H453.487L454.677 48.2784H457.762L459.565 41.6795H456.424L457.614 37.3113H460.718L462.149 31.9765H466.685L465.253 37.3113H472.112L473.525 31.9765H478.061L476.648 37.3113H479.752L478.563 41.6795ZM469.138 48.2784L470.941 41.6795H464.101L462.298 48.2784H469.138ZM483.456 39.4118H487.992V58H483.456V39.4118ZM485.761 37.0139C485.092 37.0139 484.528 36.797 484.07 36.3633C483.611 35.9172 483.382 35.3595 483.382 34.6904C483.382 34.0336 483.611 33.4821 484.07 33.036C484.528 32.5899 485.086 32.3668 485.743 32.3668C486.399 32.3668 486.951 32.5899 487.397 33.036C487.855 33.4821 488.085 34.0336 488.085 34.6904C488.085 35.3595 487.862 35.9172 487.416 36.3633C486.969 36.797 486.418 37.0139 485.761 37.0139ZM503.549 52.4049L507.638 54.6169C506.783 55.7818 505.711 56.7174 504.423 57.4238C503.134 58.1301 501.727 58.4833 500.203 58.4833C498.493 58.4833 496.932 58.0434 495.519 57.1635C494.119 56.2837 492.997 55.1064 492.154 53.6318C491.324 52.1447 490.909 50.5027 490.909 48.7059C490.909 47.3427 491.151 46.0725 491.634 44.8953C492.117 43.7056 492.78 42.6647 493.623 41.7725C494.478 40.8678 495.469 40.1615 496.597 39.6534C497.725 39.1453 498.927 38.8913 500.203 38.8913C501.727 38.8913 503.134 39.2445 504.423 39.9508C505.711 40.6572 506.783 41.6052 507.638 42.7948L503.549 44.9882C503.115 44.4925 502.601 44.1084 502.006 43.8358C501.424 43.5631 500.823 43.4268 500.203 43.4268C499.311 43.4268 498.505 43.6747 497.787 44.1704C497.068 44.6536 496.498 45.298 496.076 46.1035C495.655 46.8966 495.444 47.7641 495.444 48.7059C495.444 49.6353 495.655 50.5027 496.076 51.3082C496.498 52.1013 497.068 52.7395 497.787 53.2228C498.505 53.7061 499.311 53.9478 500.203 53.9478C500.847 53.9478 501.461 53.8115 502.043 53.5388C502.626 53.2538 503.128 52.8758 503.549 52.4049ZM515.511 67.2941H510.976V39.4118H515.511V41.7725C516.118 40.9298 516.862 40.2482 517.742 39.7278C518.634 39.1949 519.675 38.9285 520.864 38.9285C522.228 38.9285 523.498 39.1825 524.675 39.6906C525.852 40.1987 526.887 40.905 527.779 41.8096C528.684 42.7019 529.384 43.7366 529.88 44.9139C530.388 46.0911 530.642 47.3551 530.642 48.7059C530.642 50.0566 530.388 51.3268 529.88 52.5165C529.384 53.7061 528.684 54.7533 527.779 55.6579C526.887 56.5501 525.852 57.2503 524.675 57.7584C523.498 58.2664 522.228 58.5205 520.864 58.5205C519.675 58.5205 518.634 58.2602 517.742 57.7398C516.862 57.2069 516.118 56.5191 515.511 55.6765V67.2941ZM520.809 43.2967C519.867 43.2967 519.024 43.5445 518.281 44.0402C517.537 44.5235 516.955 45.1741 516.533 45.992C516.112 46.8099 515.901 47.7145 515.901 48.7059C515.901 49.6973 516.112 50.6081 516.533 51.4384C516.955 52.2562 517.537 52.913 518.281 53.4087C519.024 53.892 519.867 54.1336 520.809 54.1336C521.763 54.1336 522.637 53.892 523.43 53.4087C524.223 52.9254 524.855 52.2748 525.326 51.4569C525.797 50.6267 526.032 49.7096 526.032 48.7059C526.032 47.7145 525.797 46.8099 525.326 45.992C524.855 45.1741 524.223 44.5235 523.43 44.0402C522.649 43.5445 521.775 43.2967 520.809 43.2967ZM545.155 52.4049L549.244 54.6169C548.389 55.7818 547.317 56.7174 546.028 57.4238C544.74 58.1301 543.333 58.4833 541.809 58.4833C540.099 58.4833 538.537 58.0434 537.125 57.1635C535.724 56.2837 534.603 55.1064 533.76 53.6318C532.93 52.1447 532.515 50.5027 532.515 48.7059C532.515 47.3427 532.756 46.0725 533.24 44.8953C533.723 43.7056 534.386 42.6647 535.229 41.7725C536.084 40.8678 537.075 40.1615 538.203 39.6534C539.33 39.1453 540.532 38.8913 541.809 38.8913C543.333 38.8913 544.74 39.2445 546.028 39.9508C547.317 40.6572 548.389 41.6052 549.244 42.7948L545.155 44.9882C544.721 44.4925 544.207 44.1084 543.612 43.8358C543.029 43.5631 542.428 43.4268 541.809 43.4268C540.917 43.4268 540.111 43.6747 539.392 44.1704C538.674 44.6536 538.104 45.298 537.682 46.1035C537.261 46.8966 537.05 47.7641 537.05 48.7059C537.05 49.6353 537.261 50.5027 537.682 51.3082C538.104 52.1013 538.674 52.7395 539.392 53.2228C540.111 53.7061 540.917 53.9478 541.809 53.9478C542.453 53.9478 543.067 53.8115 543.649 53.5388C544.231 53.2538 544.733 52.8758 545.155 52.4049ZM558.511 58L551.856 31.9765H556.541L561.076 49.7654L565.612 31.9765H569.757L574.292 49.7654L578.809 31.9765H583.493L576.876 58H571.727L567.675 42.2372L563.678 58H558.511ZM586.853 58V31.9765H602.226V36.512H591.389V41.7911H600.441V46.3266H591.389V58H586.853ZM614.193 58.4833C612.755 58.4833 611.374 58.2602 610.048 57.8141C608.734 57.3556 607.582 56.705 606.59 55.8624C605.599 55.0073 604.886 53.9849 604.453 52.7953L608.709 51.2339C608.883 51.7296 609.236 52.1819 609.769 52.5908C610.302 52.9998 610.952 53.3282 611.721 53.576C612.489 53.8238 613.313 53.9478 614.193 53.9478C615.097 53.9478 615.94 53.8115 616.721 53.5388C617.514 53.2538 618.152 52.8635 618.635 52.3678C619.119 51.8597 619.36 51.2711 619.36 50.6019C619.36 49.9203 619.106 49.3627 618.598 48.9289C618.09 48.4828 617.44 48.1296 616.646 47.8694C615.853 47.6092 615.035 47.4109 614.193 47.2746C612.346 46.9896 610.692 46.5496 609.23 45.9548C607.767 45.36 606.609 44.5359 605.754 43.4826C604.911 42.4293 604.49 41.0661 604.49 39.3932C604.49 37.8194 604.942 36.4438 605.847 35.2666C606.751 34.0893 607.941 33.1723 609.416 32.5155C610.89 31.8587 612.483 31.5304 614.193 31.5304C615.618 31.5304 616.993 31.7534 618.319 32.1995C619.645 32.6456 620.804 33.2962 621.795 34.1513C622.799 35.0064 623.518 36.0349 623.952 37.2369L619.676 38.7798C619.503 38.2841 619.15 37.8318 618.617 37.4228C618.084 37.0139 617.433 36.6917 616.665 36.4562C615.897 36.2084 615.073 36.0845 614.193 36.0845C613.313 36.0721 612.476 36.2146 611.683 36.512C610.903 36.797 610.264 37.1874 609.769 37.6831C609.273 38.1787 609.025 38.7488 609.025 39.3932C609.025 40.2235 609.255 40.8493 609.713 41.2706C610.184 41.6919 610.81 42.0017 611.59 42.2C612.371 42.3859 613.239 42.5594 614.193 42.7205C615.928 42.9931 617.532 43.4516 619.007 44.096C620.482 44.7404 621.665 45.6016 622.557 46.6798C623.45 47.7455 623.896 49.0529 623.896 50.6019C623.896 52.1757 623.45 53.5574 622.557 54.7471C621.665 55.9243 620.482 56.8413 619.007 57.4981C617.532 58.1549 615.928 58.4833 614.193 58.4833ZM645.159 46.2522V58H640.624V47.4419C640.624 46.7107 640.444 46.0478 640.084 45.4529C639.725 44.8457 639.242 44.3686 638.635 44.0216C638.04 43.6623 637.377 43.4826 636.646 43.4826C635.915 43.4826 635.245 43.6623 634.638 44.0216C634.043 44.3686 633.566 44.8457 633.207 45.4529C632.86 46.0478 632.686 46.7107 632.686 47.4419V58H628.151L628.132 30.1176H632.668L632.686 41.0661C633.318 40.3969 634.074 39.8703 634.954 39.4861C635.834 39.0896 636.782 38.8913 637.798 38.8913C639.149 38.8913 640.382 39.2259 641.497 39.8951C642.612 40.5518 643.499 41.4379 644.155 42.5532C644.824 43.6561 645.159 44.8891 645.159 46.2522ZM662.515 39.4118H667.05V58H662.515L662.31 55.6951C661.802 56.5253 661.127 57.2007 660.284 57.7212C659.454 58.2293 658.469 58.4833 657.329 58.4833C655.953 58.4833 654.665 58.2231 653.462 57.7026C652.26 57.1821 651.201 56.4634 650.284 55.5464C649.379 54.6293 648.667 53.5698 648.146 52.3678C647.638 51.1657 647.384 49.8769 647.384 48.5014C647.384 47.1755 647.626 45.93 648.109 44.7652C648.605 43.6003 649.293 42.578 650.172 41.6981C651.052 40.8183 652.068 40.1305 653.221 39.6348C654.373 39.1391 655.613 38.8913 656.938 38.8913C658.165 38.8913 659.262 39.1639 660.229 39.7092C661.208 40.2544 662.038 40.9484 662.719 41.7911L662.515 39.4118ZM657.217 54.1151C658.184 54.1151 659.039 53.8734 659.782 53.3901C660.526 52.9068 661.108 52.2562 661.53 51.4384C661.951 50.6081 662.162 49.6973 662.162 48.7059C662.162 47.7021 661.951 46.7913 661.53 45.9734C661.108 45.1431 660.52 44.4864 659.764 44.0031C659.02 43.5198 658.171 43.2781 657.217 43.2781C656.263 43.2781 655.389 43.526 654.596 44.0216C653.816 44.5049 653.19 45.1555 652.719 45.9734C652.26 46.7913 652.031 47.7021 652.031 48.7059C652.031 49.7096 652.267 50.6205 652.738 51.4384C653.208 52.2562 653.834 52.9068 654.615 53.3901C655.408 53.8734 656.275 54.1151 657.217 54.1151ZM670.773 58L670.754 39.4118H675.29L675.309 41.0661C675.941 40.3969 676.697 39.8703 677.576 39.4861C678.456 39.0896 679.404 38.8913 680.42 38.8913C681.102 38.8913 681.783 38.9904 682.465 39.1887L680.681 43.7614C680.21 43.5755 679.739 43.4826 679.268 43.4826C678.537 43.4826 677.868 43.6623 677.26 44.0216C676.666 44.3686 676.188 44.8457 675.829 45.4529C675.482 46.0478 675.309 46.7107 675.309 47.4419V58H670.773ZM684.623 58V39.4118H689.159V41.0661C689.791 40.3969 690.546 39.8703 691.426 39.4861C692.306 39.0896 693.254 38.8913 694.27 38.8913C695.559 38.8913 696.743 39.1949 697.821 39.8021C698.911 40.4093 699.779 41.221 700.423 42.2372C701.08 41.221 701.947 40.4093 703.025 39.8021C704.104 39.1949 705.287 38.8913 706.576 38.8913C707.939 38.8913 709.172 39.2259 710.275 39.8951C711.39 40.5518 712.276 41.4379 712.933 42.5532C713.602 43.6561 713.937 44.8891 713.937 46.2522V58H709.401V47.4605C709.401 46.7417 709.221 46.0849 708.862 45.4901C708.515 44.8829 708.044 44.3996 707.449 44.0402C706.867 43.6685 706.21 43.4826 705.479 43.4826C704.748 43.4826 704.085 43.6623 703.49 44.0216C702.908 44.3686 702.437 44.8395 702.077 45.4344C701.718 46.0292 701.538 46.7045 701.538 47.4605V58H697.003V47.4605C697.003 46.7045 696.829 46.0292 696.482 45.4344C696.135 44.8395 695.664 44.3686 695.07 44.0216C694.475 43.6623 693.812 43.4826 693.081 43.4826C692.362 43.4826 691.705 43.6685 691.11 44.0402C690.516 44.3996 690.038 44.8829 689.679 45.4901C689.332 46.0849 689.159 46.7417 689.159 47.4605V58H684.623ZM727.996 58V51.6986H716.917V47.1445L726.936 31.9765H732.531V47.1631H734.725V51.6986H732.531V58H727.996ZM722.178 47.1445L727.996 47.1631L727.977 38.1664L722.178 47.1445ZM747.034 58.4833C745.373 58.4833 743.849 58.0682 742.461 57.2379C741.073 56.4076 739.964 55.2985 739.134 53.9106C738.304 52.5227 737.888 50.986 737.888 49.3007C737.888 48.4333 737.988 47.6278 738.186 46.8842C738.397 46.1407 738.719 45.391 739.152 44.6351L746.439 31.9765H751.7L746.811 40.4341C747.815 40.3598 748.781 40.4465 749.711 40.6944C750.64 40.9422 751.501 41.3325 752.294 41.8654C753.087 42.3983 753.781 43.0427 754.376 43.7986C754.971 44.5545 755.43 45.3972 755.752 46.3266C756.086 47.256 756.254 48.2474 756.254 49.3007C756.254 50.5647 756.012 51.7482 755.529 52.8511C755.058 53.954 754.401 54.9329 753.558 55.788C752.716 56.6307 751.737 57.2936 750.621 57.7769C749.506 58.2478 748.31 58.4833 747.034 58.4833ZM747.034 53.9478C747.939 53.9478 748.744 53.7309 749.45 53.2972C750.157 52.8511 750.708 52.2748 751.105 51.5685C751.514 50.8621 751.718 50.1124 751.718 49.3193C751.718 48.4642 751.514 47.6835 751.105 46.9772C750.696 46.2708 750.138 45.707 749.432 45.2856C748.738 44.8643 747.951 44.6536 747.071 44.6536C746.166 44.6536 745.361 44.8767 744.655 45.3228C743.961 45.7565 743.415 46.3266 743.019 47.0329C742.622 47.7393 742.424 48.5014 742.424 49.3193C742.424 50.1991 742.641 50.986 743.075 51.68C743.508 52.374 744.072 52.9254 744.766 53.3344C745.472 53.7433 746.228 53.9478 747.034 53.9478Z" fill="white"/>
<path fill-rule="evenodd" clip-rule="evenodd" d="M1000 16C1000 7.16345 992.837 0 984 0H926C917.163 0 910 7.16344 910 16V74C910 82.8366 917.163 90 926 90H984C992.837 90 1000 82.8366 1000 74V16ZM969.528 14.7001C969.345 14.6975 969.189 14.7438 969.063 14.8501C967.182 16.4384 969.265 21.646 969.347 24.1064C969.355 24.3523 969.363 24.6032 969.372 24.8584C969.556 30.1823 969.803 37.3257 966.591 37.777C964.803 38.0278 964.153 35.7676 963.386 33.1009C962.705 30.731 961.931 28.0399 960.184 26.5048C958.236 24.7969 955.865 24.9615 954.261 25.0727C953.305 25.1391 952.621 25.1865 952.464 24.8056C952.254 24.2954 952.111 23.5807 951.951 22.7812C951.411 20.073 950.677 16.3918 946.444 16.3918C940.961 16.3918 937.332 22.7244 935.014 27.1238C933.894 29.2535 931.815 30.4609 929.758 31.6558C927.563 32.9306 925.392 34.1913 924.436 36.5428C922.796 40.5716 924.705 45.1346 925.932 48.0694L925.933 48.0698C926.092 48.4516 926.241 48.8058 926.368 49.1277C927.024 50.7904 926.164 53.3651 925.391 55.6829C924.862 57.267 924.374 58.7312 924.436 59.7021C924.548 61.418 924.5 67.4745 924.463 69.5698C924.449 70.3983 924.436 71.1188 924.436 71.6224C924.436 71.9922 924.409 72.4627 924.38 72.9749C924.269 74.924 924.124 77.4793 925.288 77.4103C925.94 77.3725 926.734 77.3892 927.562 77.4067C929.548 77.4485 931.73 77.4945 932.642 76.8031C932.9 76.6076 933.189 76.4053 933.512 76.4124C935.978 76.467 938.634 76.5257 938.634 74.9496C938.634 73.9397 937.528 73.7271 936.414 73.513C935.229 73.2852 934.035 73.0558 934.155 71.8624C934.245 70.969 934.198 69.788 934.146 68.4836C934.064 66.4043 933.969 60.7415 934.395 58.7006C934.661 57.4311 935.865 55.5867 937.248 53.793C938.89 51.6632 941.696 50.9018 944.36 51.2761C945.056 51.374 945.807 51.4634 946.614 51.5408C950.568 51.9196 953.088 56.1828 954.392 59.9347C955.057 61.8474 954.715 69.7355 954.439 72.7428C954.203 75.3198 954.015 77.369 954.55 77.2969C955.302 77.1968 956.745 77.2491 958.32 77.3062C959.163 77.3368 960.044 77.3687 960.878 77.3794C961.108 77.3813 961.327 77.3649 961.533 77.3347C961.679 77.3134 961.826 77.2985 961.974 77.3017C964.57 77.3582 967.51 77.4223 967.51 75.8415C967.51 74.8315 966.404 74.619 965.29 74.4049C964.105 74.1771 962.911 73.9476 963.031 72.7543C963.122 71.8433 963.045 70.6819 962.962 69.406C962.832 67.4361 962.685 61.0314 963.106 59.0157C963.471 57.2779 965.107 54.3319 966.585 51.9192C967.013 51.2194 967.712 50.7234 968.523 50.5944C978.528 49.0056 979.037 43.3788 979.514 38.1069C979.593 37.2354 979.671 36.3736 979.791 35.5413C980.382 31.4749 977.182 28.1605 975.263 26.1733C974.413 25.2922 973.814 24.6721 973.909 24.363C974.018 24.0066 974.529 24.2509 975.308 24.6237C975.879 24.8968 976.595 25.239 977.402 25.4646C979.781 26.1293 982.87 26.3062 985.338 26.1945C986.136 26.0981 986.527 25.0588 986.527 23.9158C986.528 22.7151 986.1 21.3999 985.338 20.943C983.887 20.1855 980.154 18.9976 977.953 18.3125L977.951 18.3118C977.69 18.2306 977.452 18.1565 977.244 18.0911C976.242 17.7416 975.831 16.6588 975.519 15.8372C975.285 15.2199 975.106 14.7501 974.776 14.8501C973.516 15.2269 972.178 16.0551 971.075 15.3399C970.52 14.9807 969.959 14.7073 969.528 14.7001ZM930.449 58.7081C930.425 58.3338 929.892 58.1369 929.726 58.4731C929.444 59.0441 929.24 59.5671 929.147 60.0135C928.711 62.0909 928.701 67.5915 928.697 69.6926L928.697 69.7791C928.695 70.9487 928.692 72.0109 928.607 72.8565C928.602 72.9131 928.599 72.9675 928.599 73.0199C928.6 74.2499 930.326 73.2009 930.394 71.9728C930.423 71.4627 930.449 70.9941 930.449 70.6246C930.449 70.122 930.462 69.4025 930.476 68.5751L930.476 68.5747C930.513 66.4806 930.561 60.4242 930.449 58.7081ZM958.653 58.5014C958.791 58.1349 959.299 58.3174 959.325 58.7081C959.437 60.4242 959.388 67.3724 959.352 69.4666C959.338 70.2942 959.325 71.0137 959.325 71.5164C959.325 72.0194 959.239 72.7082 959.149 73.4342L959.149 73.4358C959.112 73.7314 958.783 73.9449 958.551 73.7571C958.514 73.7268 958.491 73.6988 958.485 73.6733C958.408 73.3609 957.713 62.5615 958.41 59.3195C958.467 59.0509 958.549 58.7773 958.653 58.5014Z" fill="#29313B"/>
</svg>
