<svg width="1000" height="90" viewBox="0 0 1000 90" fill="none" xmlns="http://www.w3.org/2000/svg">
<rect width="300" height="90" rx="16" fill="#29313B"/>
<circle cx="50.1092" cy="45.0003" r="4.13072" fill="white"/>
<path d="M31.5195 45.0001C31.5195 34.7341 39.8418 26.4119 50.1078 26.4119" stroke="white" stroke-width="4.64706" stroke-linecap="round"/>
<path d="M68.6973 45.0001C68.6973 55.2661 60.375 63.5883 50.109 63.5883" stroke="white" stroke-width="4.64706" stroke-linecap="round"/>
<path d="M39.7832 45.0003C39.7832 39.297 44.4067 34.6735 50.11 34.6735" stroke="white" stroke-width="4.64706" stroke-linecap="round"/>
<path d="M60.4336 44.9998C60.4336 50.7031 55.8101 55.3266 50.1068 55.3266" stroke="white" stroke-width="4.64706" stroke-linecap="round"/>
<path d="M96.2687 58V31.9765H101.845V58H96.2687ZM118.902 58.4833C117.142 58.4833 115.488 58.1363 113.939 57.4424C112.39 56.736 111.027 55.7632 109.849 54.524C108.685 53.2848 107.768 51.8535 107.098 50.2301C106.442 48.5944 106.113 46.8471 106.113 44.9882C106.113 43.117 106.442 41.3697 107.098 39.7464C107.768 38.1106 108.685 36.6793 109.849 35.4525C111.027 34.2133 112.39 33.2467 113.939 32.5527C115.488 31.8464 117.142 31.4932 118.902 31.4932C121.009 31.4932 122.948 31.9827 124.72 32.9616C126.492 33.9282 127.961 35.2232 129.125 36.8466L124.144 39.5233C123.499 38.7798 122.725 38.1849 121.82 37.7388C120.916 37.2927 119.943 37.0696 118.902 37.0696C117.911 37.0696 116.975 37.2741 116.095 37.6831C115.228 38.092 114.459 38.662 113.79 39.3932C113.133 40.1119 112.619 40.9484 112.247 41.9026C111.876 42.8568 111.69 43.8853 111.69 44.9882C111.69 46.0787 111.876 47.1011 112.247 48.0553C112.619 49.0095 113.133 49.8522 113.79 50.5833C114.459 51.302 115.228 51.8721 116.095 52.2934C116.975 52.7024 117.911 52.9068 118.902 52.9068C119.943 52.9068 120.916 52.6838 121.82 52.2376C122.725 51.7791 123.499 51.1719 124.144 50.416L129.125 53.1299C127.961 54.7409 126.492 56.0358 124.72 57.0148C122.948 57.9938 121.009 58.4833 118.902 58.4833ZM132.452 58V31.9765H142.266C143.692 31.9765 144.98 32.342 146.133 33.0732C147.298 33.7919 148.221 34.7585 148.902 35.9729C149.584 37.175 149.925 38.4947 149.925 39.9322C149.925 41.3945 149.572 42.7267 148.865 43.9287C148.171 45.1307 147.242 46.0911 146.077 46.8099C144.912 47.5286 143.642 47.888 142.266 47.888H138.028V58H132.452ZM138.028 42.3115H141.634C142.13 42.3115 142.582 42.1876 142.991 41.9398C143.4 41.6795 143.729 41.3387 143.977 40.9174C144.224 40.4961 144.348 40.0314 144.348 39.5233C144.348 39.0152 144.224 38.5505 143.977 38.1292C143.729 37.7078 143.4 37.3733 142.991 37.1254C142.582 36.8652 142.13 36.7351 141.634 36.7351H138.028V42.3115ZM165.699 58.4833C163.94 58.4833 162.285 58.1363 160.736 57.4424C159.187 56.736 157.824 55.7632 156.647 54.524C155.482 53.2848 154.565 51.8535 153.896 50.2301C153.239 48.5944 152.911 46.8471 152.911 44.9882C152.911 43.117 153.239 41.3697 153.896 39.7464C154.565 38.1106 155.482 36.6793 156.647 35.4525C157.824 34.2133 159.187 33.2467 160.736 32.5527C162.285 31.8464 163.94 31.4932 165.699 31.4932C167.806 31.4932 169.745 31.9827 171.517 32.9616C173.289 33.9282 174.758 35.2232 175.923 36.8466L170.941 39.5233C170.297 38.7798 169.522 38.1849 168.618 37.7388C167.713 37.2927 166.74 37.0696 165.699 37.0696C164.708 37.0696 163.772 37.2741 162.892 37.6831C162.025 38.092 161.257 38.662 160.587 39.3932C159.931 40.1119 159.416 40.9484 159.045 41.9026C158.673 42.8568 158.487 43.8853 158.487 44.9882C158.487 46.0787 158.673 47.1011 159.045 48.0553C159.416 49.0095 159.931 49.8522 160.587 50.5833C161.257 51.302 162.025 51.8721 162.892 52.2934C163.772 52.7024 164.708 52.9068 165.699 52.9068C166.74 52.9068 167.713 52.6838 168.618 52.2376C169.522 51.7791 170.297 51.1719 170.941 50.416L175.923 53.1299C174.758 54.7409 173.289 56.0358 171.517 57.0148C169.745 57.9938 167.806 58.4833 165.699 58.4833ZM188.943 58V31.9765H194.519V52.4235H204.743V58H188.943ZM209.396 58V31.9765H214.972V58H209.396ZM229.055 58L219.612 31.9765H225.523L232.661 51.6056L239.799 31.9765H245.71L236.267 58H229.055ZM249.064 58V31.9765H265.645V37.5529H254.64V41.2706H263.117V46.8471H254.64V52.4235H265.645V58H249.064Z" fill="white"/>
<rect x="374.5" width="461" height="90" rx="16" fill="#29313C"/>
<path d="M478.563 41.6795H475.477L473.674 48.2784H476.815L475.626 52.6652H472.54L471.09 58H466.555L468.004 52.6652H461.127L459.714 58H455.179L456.591 52.6652H453.487L454.677 48.2784H457.762L459.565 41.6795H456.424L457.614 37.3113H460.718L462.149 31.9765H466.685L465.253 37.3113H472.112L473.525 31.9765H478.061L476.648 37.3113H479.752L478.563 41.6795ZM469.138 48.2784L470.941 41.6795H464.101L462.298 48.2784H469.138ZM483.456 39.4118H487.992V58H483.456V39.4118ZM485.761 37.0139C485.092 37.0139 484.528 36.797 484.07 36.3633C483.611 35.9172 483.382 35.3595 483.382 34.6904C483.382 34.0336 483.611 33.4821 484.07 33.036C484.528 32.5899 485.086 32.3668 485.743 32.3668C486.399 32.3668 486.951 32.5899 487.397 33.036C487.855 33.4821 488.085 34.0336 488.085 34.6904C488.085 35.3595 487.862 35.9172 487.416 36.3633C486.969 36.797 486.418 37.0139 485.761 37.0139ZM503.549 52.4049L507.638 54.6169C506.783 55.7818 505.711 56.7174 504.423 57.4238C503.134 58.1301 501.727 58.4833 500.203 58.4833C498.493 58.4833 496.932 58.0434 495.519 57.1635C494.119 56.2837 492.997 55.1064 492.154 53.6318C491.324 52.1447 490.909 50.5027 490.909 48.7059C490.909 47.3427 491.151 46.0725 491.634 44.8953C492.117 43.7056 492.78 42.6647 493.623 41.7725C494.478 40.8678 495.469 40.1615 496.597 39.6534C497.725 39.1453 498.927 38.8913 500.203 38.8913C501.727 38.8913 503.134 39.2445 504.423 39.9508C505.711 40.6572 506.783 41.6052 507.638 42.7948L503.549 44.9882C503.115 44.4925 502.601 44.1084 502.006 43.8358C501.424 43.5631 500.823 43.4268 500.203 43.4268C499.311 43.4268 498.505 43.6747 497.787 44.1704C497.068 44.6536 496.498 45.298 496.076 46.1035C495.655 46.8966 495.444 47.7641 495.444 48.7059C495.444 49.6353 495.655 50.5027 496.076 51.3082C496.498 52.1013 497.068 52.7395 497.787 53.2228C498.505 53.7061 499.311 53.9478 500.203 53.9478C500.847 53.9478 501.461 53.8115 502.043 53.5388C502.626 53.2538 503.128 52.8758 503.549 52.4049ZM515.511 67.2941H510.976V39.4118H515.511V41.7725C516.118 40.9298 516.862 40.2482 517.742 39.7278C518.634 39.1949 519.675 38.9285 520.864 38.9285C522.228 38.9285 523.498 39.1825 524.675 39.6906C525.852 40.1987 526.887 40.905 527.779 41.8096C528.684 42.7019 529.384 43.7366 529.88 44.9139C530.388 46.0911 530.642 47.3551 530.642 48.7059C530.642 50.0566 530.388 51.3268 529.88 52.5165C529.384 53.7061 528.684 54.7533 527.779 55.6579C526.887 56.5501 525.852 57.2503 524.675 57.7584C523.498 58.2664 522.228 58.5205 520.864 58.5205C519.675 58.5205 518.634 58.2602 517.742 57.7398C516.862 57.2069 516.118 56.5191 515.511 55.6765V67.2941ZM520.809 43.2967C519.867 43.2967 519.024 43.5445 518.281 44.0402C517.537 44.5235 516.955 45.1741 516.533 45.992C516.112 46.8099 515.901 47.7145 515.901 48.7059C515.901 49.6973 516.112 50.6081 516.533 51.4384C516.955 52.2562 517.537 52.913 518.281 53.4087C519.024 53.892 519.867 54.1336 520.809 54.1336C521.763 54.1336 522.637 53.892 523.43 53.4087C524.223 52.9254 524.855 52.2748 525.326 51.4569C525.797 50.6267 526.032 49.7096 526.032 48.7059C526.032 47.7145 525.797 46.8099 525.326 45.992C524.855 45.1741 524.223 44.5235 523.43 44.0402C522.649 43.5445 521.775 43.2967 520.809 43.2967ZM545.155 52.4049L549.244 54.6169C548.389 55.7818 547.317 56.7174 546.028 57.4238C544.74 58.1301 543.333 58.4833 541.809 58.4833C540.099 58.4833 538.537 58.0434 537.125 57.1635C535.724 56.2837 534.603 55.1064 533.76 53.6318C532.93 52.1447 532.515 50.5027 532.515 48.7059C532.515 47.3427 532.756 46.0725 533.24 44.8953C533.723 43.7056 534.386 42.6647 535.229 41.7725C536.084 40.8678 537.075 40.1615 538.203 39.6534C539.33 39.1453 540.532 38.8913 541.809 38.8913C543.333 38.8913 544.74 39.2445 546.028 39.9508C547.317 40.6572 548.389 41.6052 549.244 42.7948L545.155 44.9882C544.721 44.4925 544.207 44.1084 543.612 43.8358C543.029 43.5631 542.428 43.4268 541.809 43.4268C540.917 43.4268 540.111 43.6747 539.392 44.1704C538.674 44.6536 538.104 45.298 537.682 46.1035C537.261 46.8966 537.05 47.7641 537.05 48.7059C537.05 49.6353 537.261 50.5027 537.682 51.3082C538.104 52.1013 538.674 52.7395 539.392 53.2228C540.111 53.7061 540.917 53.9478 541.809 53.9478C542.453 53.9478 543.067 53.8115 543.649 53.5388C544.231 53.2538 544.733 52.8758 545.155 52.4049ZM558.511 58L551.856 31.9765H556.541L561.076 49.7654L565.612 31.9765H569.757L574.292 49.7654L578.809 31.9765H583.493L576.876 58H571.727L567.675 42.2372L563.678 58H558.511ZM586.853 58V31.9765H602.226V36.512H591.389V41.7911H600.441V46.3266H591.389V58H586.853ZM614.193 58.4833C612.755 58.4833 611.374 58.2602 610.048 57.8141C608.734 57.3556 607.582 56.705 606.59 55.8624C605.599 55.0073 604.886 53.9849 604.453 52.7953L608.709 51.2339C608.883 51.7296 609.236 52.1819 609.769 52.5908C610.302 52.9998 610.952 53.3282 611.721 53.576C612.489 53.8238 613.313 53.9478 614.193 53.9478C615.097 53.9478 615.94 53.8115 616.721 53.5388C617.514 53.2538 618.152 52.8635 618.635 52.3678C619.119 51.8597 619.36 51.2711 619.36 50.6019C619.36 49.9203 619.106 49.3627 618.598 48.9289C618.09 48.4828 617.44 48.1296 616.646 47.8694C615.853 47.6092 615.035 47.4109 614.193 47.2746C612.346 46.9896 610.692 46.5496 609.23 45.9548C607.767 45.36 606.609 44.5359 605.754 43.4826C604.911 42.4293 604.49 41.0661 604.49 39.3932C604.49 37.8194 604.942 36.4438 605.847 35.2666C606.751 34.0893 607.941 33.1723 609.416 32.5155C610.89 31.8587 612.483 31.5304 614.193 31.5304C615.618 31.5304 616.993 31.7534 618.319 32.1995C619.645 32.6456 620.804 33.2962 621.795 34.1513C622.799 35.0064 623.518 36.0349 623.952 37.2369L619.676 38.7798C619.503 38.2841 619.15 37.8318 618.617 37.4228C618.084 37.0139 617.433 36.6917 616.665 36.4562C615.897 36.2084 615.073 36.0845 614.193 36.0845C613.313 36.0721 612.476 36.2146 611.683 36.512C610.903 36.797 610.264 37.1874 609.769 37.6831C609.273 38.1787 609.025 38.7488 609.025 39.3932C609.025 40.2235 609.255 40.8493 609.713 41.2706C610.184 41.6919 610.81 42.0017 611.59 42.2C612.371 42.3859 613.239 42.5594 614.193 42.7205C615.928 42.9931 617.532 43.4516 619.007 44.096C620.482 44.7404 621.665 45.6016 622.557 46.6798C623.45 47.7455 623.896 49.0529 623.896 50.6019C623.896 52.1757 623.45 53.5574 622.557 54.7471C621.665 55.9243 620.482 56.8413 619.007 57.4981C617.532 58.1549 615.928 58.4833 614.193 58.4833ZM645.159 46.2522V58H640.624V47.4419C640.624 46.7107 640.444 46.0478 640.084 45.4529C639.725 44.8457 639.242 44.3686 638.635 44.0216C638.04 43.6623 637.377 43.4826 636.646 43.4826C635.915 43.4826 635.245 43.6623 634.638 44.0216C634.043 44.3686 633.566 44.8457 633.207 45.4529C632.86 46.0478 632.686 46.7107 632.686 47.4419V58H628.151L628.132 30.1176H632.668L632.686 41.0661C633.318 40.3969 634.074 39.8703 634.954 39.4861C635.834 39.0896 636.782 38.8913 637.798 38.8913C639.149 38.8913 640.382 39.2259 641.497 39.8951C642.612 40.5518 643.499 41.4379 644.155 42.5532C644.824 43.6561 645.159 44.8891 645.159 46.2522ZM662.515 39.4118H667.05V58H662.515L662.31 55.6951C661.802 56.5253 661.127 57.2007 660.284 57.7212C659.454 58.2293 658.469 58.4833 657.329 58.4833C655.953 58.4833 654.665 58.2231 653.462 57.7026C652.26 57.1821 651.201 56.4634 650.284 55.5464C649.379 54.6293 648.667 53.5698 648.146 52.3678C647.638 51.1657 647.384 49.8769 647.384 48.5014C647.384 47.1755 647.626 45.93 648.109 44.7652C648.605 43.6003 649.293 42.578 650.172 41.6981C651.052 40.8183 652.068 40.1305 653.221 39.6348C654.373 39.1391 655.613 38.8913 656.938 38.8913C658.165 38.8913 659.262 39.1639 660.229 39.7092C661.208 40.2544 662.038 40.9484 662.719 41.7911L662.515 39.4118ZM657.217 54.1151C658.184 54.1151 659.039 53.8734 659.782 53.3901C660.526 52.9068 661.108 52.2562 661.53 51.4384C661.951 50.6081 662.162 49.6973 662.162 48.7059C662.162 47.7021 661.951 46.7913 661.53 45.9734C661.108 45.1431 660.52 44.4864 659.764 44.0031C659.02 43.5198 658.171 43.2781 657.217 43.2781C656.263 43.2781 655.389 43.526 654.596 44.0216C653.816 44.5049 653.19 45.1555 652.719 45.9734C652.26 46.7913 652.031 47.7021 652.031 48.7059C652.031 49.7096 652.267 50.6205 652.738 51.4384C653.208 52.2562 653.834 52.9068 654.615 53.3901C655.408 53.8734 656.275 54.1151 657.217 54.1151ZM670.773 58L670.754 39.4118H675.29L675.309 41.0661C675.941 40.3969 676.697 39.8703 677.576 39.4861C678.456 39.0896 679.404 38.8913 680.42 38.8913C681.102 38.8913 681.783 38.9904 682.465 39.1887L680.681 43.7614C680.21 43.5755 679.739 43.4826 679.268 43.4826C678.537 43.4826 677.868 43.6623 677.26 44.0216C676.666 44.3686 676.188 44.8457 675.829 45.4529C675.482 46.0478 675.309 46.7107 675.309 47.4419V58H670.773ZM684.623 58V39.4118H689.159V41.0661C689.791 40.3969 690.546 39.8703 691.426 39.4861C692.306 39.0896 693.254 38.8913 694.27 38.8913C695.559 38.8913 696.743 39.1949 697.821 39.8021C698.911 40.4093 699.779 41.221 700.423 42.2372C701.08 41.221 701.947 40.4093 703.025 39.8021C704.104 39.1949 705.287 38.8913 706.576 38.8913C707.939 38.8913 709.172 39.2259 710.275 39.8951C711.39 40.5518 712.276 41.4379 712.933 42.5532C713.602 43.6561 713.937 44.8891 713.937 46.2522V58H709.401V47.4605C709.401 46.7417 709.221 46.0849 708.862 45.4901C708.515 44.8829 708.044 44.3996 707.449 44.0402C706.867 43.6685 706.21 43.4826 705.479 43.4826C704.748 43.4826 704.085 43.6623 703.49 44.0216C702.908 44.3686 702.437 44.8395 702.077 45.4344C701.718 46.0292 701.538 46.7045 701.538 47.4605V58H697.003V47.4605C697.003 46.7045 696.829 46.0292 696.482 45.4344C696.135 44.8395 695.664 44.3686 695.07 44.0216C694.475 43.6623 693.812 43.4826 693.081 43.4826C692.362 43.4826 691.705 43.6685 691.11 44.0402C690.516 44.3996 690.038 44.8829 689.679 45.4901C689.332 46.0849 689.159 46.7417 689.159 47.4605V58H684.623ZM727.996 58V51.6986H716.917V47.1445L726.936 31.9765H732.531V47.1631H734.725V51.6986H732.531V58H727.996ZM722.178 47.1445L727.996 47.1631L727.977 38.1664L722.178 47.1445ZM739.004 58L751.402 36.512H737.703V31.9765H756.663V36.512L744.227 58H739.004Z" fill="white"/>
<path fill-rule="evenodd" clip-rule="evenodd" d="M1000 16C1000 7.16345 992.837 0 984 0H926C917.163 0 910 7.16344 910 16V74C910 82.8366 917.163 90 926 90H984C992.837 90 1000 82.8366 1000 74V16ZM947.625 62.151C946.918 61.8315 946.083 62.0622 945.643 62.7009C945.092 63.5003 945.375 64.6022 946.245 65.0324C947.085 65.4473 947.979 65.8857 948.929 66.3473C950.545 67.1824 952.079 67.9464 953.533 68.6393C954.965 69.3688 956.076 69.937 956.866 70.344C959.532 71.6396 962.244 72.8149 965.001 73.8699C967.736 74.9615 970.371 75.6781 972.906 76.0195C973.747 76.138 974.563 76.231 975.355 76.2272C976.983 76.2193 978.508 75.9167 979.928 75.3905C982.037 74.6087 983.768 73.0471 985.12 70.7057C985.986 69.2057 986.344 67.6564 986.194 66.0576C986.102 64.4433 985.658 62.8458 984.863 61.265C984.09 59.6477 983.122 58.1134 981.96 56.662C979.886 54.0014 977.533 51.7404 974.901 49.8791C972.305 48.0388 969.585 46.3709 966.741 44.8753C963.934 43.4009 961.195 41.8927 958.524 40.3508C957.317 39.6538 956.013 38.8279 954.613 37.8733C953.213 36.9186 951.84 35.8331 950.493 34.6167C949.037 33.3369 947.9 32.0953 947.083 30.8917C946.266 29.6882 945.584 28.5874 945.038 27.5894C944.55 26.5759 944.075 25.6673 943.612 24.8636C943.186 24.0809 942.636 23.4707 941.962 23.0327C940.421 21.8993 938.863 21.0488 937.289 20.4811C936.237 20.1072 935.283 19.6418 934.428 19.0848C933.649 18.5778 933.005 17.8969 932.408 17.1854L931.875 16.5507C931.307 15.9298 930.775 15.3301 930.28 14.7515C929.785 14.173 929.391 13.7992 929.098 13.6302C928.769 13.4401 928.124 13.4582 927.164 13.6844C926.34 13.9053 925.655 14.1874 925.11 14.5306C924.999 14.6006 924.963 14.7439 925.021 14.8617L925.641 15.0939C925.938 15.2051 926.179 15.4283 926.313 15.7156C926.391 15.8819 926.429 16.0637 926.426 16.2472L926.418 16.7198C926.413 17.042 926.635 17.3236 926.949 17.3941C927.244 17.4601 927.459 17.7124 927.479 18.0134L927.491 18.2066C927.517 18.6058 927.793 18.9447 928.178 19.0507L928.276 19.0776C928.704 19.1954 929.017 19.5637 929.064 20.0056L929.074 20.0998C929.129 20.6282 929.522 21.0576 930.033 21.2029C930.043 21.2057 930.053 21.2085 930.062 21.2113C930.542 21.3486 930.85 21.8042 930.82 22.3025L930.819 22.3185C930.794 22.7449 931.01 23.1618 931.42 23.2803C931.464 23.293 931.509 23.305 931.554 23.3165C931.6 23.3241 931.645 23.3322 931.688 23.3407C932.116 23.4243 932.34 23.8442 932.306 24.2785C932.27 24.7322 932.512 25.1664 932.919 25.3704C933.11 25.466 933.269 25.6139 933.378 25.7969L936.277 30.6537C936.348 30.7733 936.303 30.9284 936.178 30.9901C936.075 31.0411 935.95 31.0112 935.881 30.9191L932.783 26.7791C932.617 26.5572 932.4 26.3793 932.149 26.2612L931.902 26.1447C931.445 25.9294 931.158 25.4648 931.17 24.96C931.182 24.4933 930.938 24.0494 930.492 23.9097C930.448 23.8959 930.403 23.8824 930.357 23.8692C930.297 23.8541 930.239 23.8384 930.183 23.822C929.832 23.7186 929.639 23.3692 929.645 23.003C929.652 22.5797 929.393 22.1858 928.98 22.0948C928.976 22.094 928.973 22.0932 928.969 22.0924C928.925 22.0829 928.878 22.0691 928.836 22.0542C928.471 21.9247 928.172 21.6273 928.126 21.2427L928.068 20.7645C928.013 20.3018 927.696 19.9122 927.255 19.7629L926.951 19.6603C926.649 19.5579 926.443 19.2763 926.438 18.9568C926.432 18.6168 926.198 18.3219 925.869 18.2369C925.526 18.1485 925.288 17.8349 925.296 17.4811L925.316 16.6879C925.319 16.5708 925.257 16.4614 925.156 16.4028L924.734 15.5241C924.673 15.3983 924.539 15.3254 924.4 15.3433C924.058 15.6883 923.804 16.1152 923.638 16.624C923.383 17.4036 923.482 18.1193 923.935 18.771C924.357 19.3074 924.906 20.0879 925.583 21.1127C926.28 22.1009 926.994 23.1468 927.722 24.2504C928.472 25.3174 929.133 26.2845 929.706 27.1516C931.096 29.2223 932.394 31.2402 933.601 33.2052C934.663 34.901 935.781 36.683 936.957 38.5512C937.324 39.1348 937.285 39.8775 936.94 40.4747C936.705 41.0117 936.067 41.2454 935.544 40.9801L930.694 38.5187C930.43 38.3845 930.106 38.4696 929.942 38.7167L929.809 38.9176C929.728 39.04 929.747 39.2031 929.854 39.3032C930.092 39.5251 929.857 39.914 929.55 39.8061L929.247 39.6993C929.08 39.6406 928.895 39.7091 928.806 39.8622L928.631 40.1665C928.547 40.3107 928.588 40.4946 928.724 40.5902L928.799 40.6426C929.08 40.8398 928.873 41.2792 928.542 41.1873C928.401 41.1481 928.252 41.2141 928.187 41.3447L928.086 41.5456C927.939 41.8396 928.066 42.1972 928.365 42.3325L929.441 42.8181C929.65 42.912 929.609 43.2188 929.384 43.2557C929.301 43.2693 929.232 43.3272 929.204 43.4067L929.122 43.6389C929.003 43.9764 929.182 44.3459 929.519 44.466C930.415 44.7858 931.396 45.1543 932.461 45.5714C933.79 46.1432 934.71 46.577 935.222 46.8727C935.99 47.3162 936.68 47.8119 937.291 48.3595C937.938 48.9283 938.572 49.3922 939.194 49.7513C939.524 49.9414 939.846 49.9324 940.161 49.7242C940.476 49.516 940.74 49.229 940.951 48.8631C941.057 48.6802 941.168 48.403 941.285 48.0315C941.389 47.7007 941.558 47.1562 941.793 46.3981C941.853 46.2058 941.934 46.0205 942.034 45.8462L942.141 45.6607C942.159 45.6301 942.18 45.6013 942.203 45.5747C942.413 45.3362 942.782 45.3308 943.001 45.5612C943.953 46.5647 944.916 47.5182 945.889 48.4214C947 49.4534 947.992 50.27 948.865 50.8712L951.993 52.6772C952.746 53.063 953.462 53.4278 954.141 53.7714C954.748 54.0414 955.224 54.2523 955.569 54.4041C955.678 54.4521 955.721 54.5842 955.661 54.6875L955.626 54.7492C955.586 54.8183 955.614 54.9067 955.687 54.9399C955.833 55.0068 955.761 55.2278 955.603 55.1955L955.497 55.1738C955.435 55.161 955.371 55.1895 955.34 55.2446L955.094 55.6706C954.996 55.839 955.054 56.0544 955.223 56.1516C955.557 56.345 955.381 56.8585 954.998 56.8054L954.896 56.7913C954.73 56.7683 954.57 56.8589 954.503 57.0128L954.411 57.2276C954.286 57.5166 954.417 57.8519 954.704 57.9806L955.763 58.4553C955.969 58.5475 955.929 58.8505 955.707 58.8869C955.62 58.9011 955.549 58.9641 955.525 59.0486L955.449 59.3132C955.353 59.6507 955.537 60.0046 955.868 60.1224C956.77 60.444 957.758 60.815 958.832 61.2355C960.124 61.7862 961.044 62.2199 961.593 62.5368C962.325 62.9592 963.014 63.4548 963.661 64.0236C964.287 64.629 964.911 65.1112 965.533 65.4703C965.826 65.6393 966.13 65.6197 966.445 65.4115C966.761 65.2033 967.024 64.9163 967.235 64.5504C967.299 64.4394 967.407 64.1662 967.558 63.7308C967.896 62.7606 968.901 62.2015 969.885 62.4951C970.796 62.7769 971.818 63.2452 972.952 63.9C973.684 64.3224 974.247 64.8673 974.642 65.5345C975.059 66.1651 975.119 66.7365 974.823 67.2487C974.19 68.3462 973.165 69.0228 971.749 69.2785C970.312 69.5708 968.667 69.5477 966.813 69.2094C964.939 68.9076 962.981 68.4115 960.941 67.7213C958.901 67.031 956.921 66.2781 955.001 65.4626C953.082 64.6471 951.377 63.8824 949.887 63.1684C949.017 62.7784 948.263 62.4392 947.625 62.151Z" fill="#29313B"/>
</svg>
