<svg width="257" height="162" viewBox="0 0 257 162" fill="none" xmlns="http://www.w3.org/2000/svg">
<g clip-path="url(#clip0_551_76734)">
<path d="M42.5238 143.337C41.7567 143.193 40.9674 143.22 40.2118 143.415C39.4562 143.611 38.753 143.971 38.1523 144.469C37.5516 144.967 37.0681 145.592 36.7363 146.298C36.4044 147.005 36.2324 147.776 36.2324 148.556C36.2324 149.337 36.4044 150.107 36.7363 150.814C37.0681 151.52 37.5516 152.145 38.1523 152.643C38.753 153.141 39.4562 153.501 40.2118 153.697C40.9674 153.892 41.7567 153.919 42.5238 153.775C43.2909 153.919 44.0805 153.893 44.8363 153.697C45.5921 153.502 46.2955 153.142 46.8964 152.644C47.4974 152.146 47.981 151.521 48.313 150.814C48.645 150.108 48.8171 149.337 48.8171 148.556C48.8171 147.775 48.645 147.004 48.313 146.298C47.981 145.591 47.4974 144.967 46.8964 144.468C46.2955 143.97 45.5921 143.61 44.8363 143.415C44.0805 143.219 43.2909 143.193 42.5238 143.337ZM42.5238 151.767C40.1613 151.767 38.2411 150.325 38.2411 148.556C38.2411 146.787 40.1613 145.343 42.5238 145.343C44.8862 145.343 46.8095 146.784 46.8095 148.556C46.8095 150.328 44.8862 151.767 42.5238 151.767Z" fill="#4C83C3"/>
<path d="M33.9662 152.49C33.7424 151.241 33.0357 150.132 31.9994 149.401C30.963 148.67 29.6804 148.377 28.4296 148.586C27.1626 148.633 25.9655 149.178 25.0975 150.102C24.2295 151.026 23.7606 152.255 23.7925 153.522C23.9086 154.123 24.1451 154.693 24.4877 155.199C24.8304 155.706 25.272 156.137 25.786 156.468C26.3001 156.799 26.8758 157.022 27.4785 157.125C28.0812 157.227 28.6984 157.206 29.2928 157.063C32.2398 156.766 34.2054 154.84 33.9662 152.49ZM29.108 155.255C27.5543 155.412 25.8157 154.876 25.6582 153.335C25.7395 152.58 26.0774 151.877 26.6153 151.342C27.1532 150.807 27.8585 150.473 28.6131 150.396C29.3678 150.319 30.126 150.504 30.7608 150.919C31.3956 151.335 31.8686 151.955 32.1005 152.677C32.2579 154.225 30.6588 155.097 29.108 155.255Z" fill="#4C83C3"/>
<path d="M15.6542 152.498C12.892 152.498 11.1777 153.798 11.1777 155.888C11.1777 157.978 12.892 159.277 15.6542 159.277C18.4165 159.277 20.1277 157.981 20.1277 155.888C20.1277 153.795 18.4134 152.498 15.6542 152.498ZM15.6512 157.478C14.4124 157.478 12.9313 157.205 12.9313 155.888C12.9313 154.576 14.4124 154.301 15.6512 154.301C16.896 154.301 18.3771 154.576 18.3771 155.888C18.3771 157.205 16.896 157.478 15.6512 157.478Z" fill="#4C83C3"/>
<path d="M3.88074 154.308C0.945852 154.308 0.630859 156.176 0.630859 156.985C0.630859 157.794 0.945852 159.663 3.88074 159.663C6.0978 159.663 7.53344 158.612 7.53344 156.985C7.53344 155.359 6.0978 154.308 3.88074 154.308ZM3.88074 158.054C2.23914 158.054 2.23914 157.333 2.23914 156.985C2.23914 156.637 2.23914 155.916 3.88074 155.916C4.08669 155.916 5.92213 155.946 5.92213 156.985C5.92213 158.024 4.08669 158.054 3.88074 158.054Z" fill="#4C83C3"/>
<path d="M81.0613 114.594C80.756 112.633 79.9942 110.772 78.8374 109.159C77.6805 107.547 76.1609 106.228 74.401 105.311C74.3435 105.272 74.295 105.235 74.2405 105.196L74.2163 105.178L74.0043 105.042V108.046C74.1012 108.107 74.2496 108.21 74.401 108.319C75.479 109.013 76.4039 109.921 77.1189 110.985C77.834 112.05 78.3242 113.249 78.5595 114.509C78.5505 116.066 78.1682 117.598 77.4446 118.976C76.721 120.354 75.6772 121.538 74.401 122.43C74.3647 122.466 74.3314 122.499 74.292 122.533L74.0043 122.787L73.8044 122.96L74.0043 123.038L74.401 123.196L74.4041 123.199C74.4495 123.217 78.8049 125.056 76.7302 131.498C75.6206 134.57 73.5494 137.202 70.8243 139.004C68.0993 140.805 64.8659 141.679 61.6045 141.496H61.5015C55.385 141.329 49.4223 139.542 44.2223 136.317L43.9528 136.168L43.7377 136.389C41.0201 139.166 37.3961 140.876 33.5247 141.208C33.455 141.223 28.6968 141.572 25.6014 135.326L25.4439 135.011L25.1138 135.126C25.0744 135.138 21.5004 136.323 19.5984 134.533C19.4705 134.413 19.353 134.282 19.247 134.142H18.72V134.136H16.8876V134.142H16.4766L16.5039 134.242L16.5554 134.375C16.5735 134.424 16.5917 134.469 16.619 134.533C17.0188 135.49 18.7209 138.537 24.1697 137.849C25.1315 139.503 26.4896 140.892 28.1218 141.891C29.7539 142.89 31.6089 143.467 33.5195 143.571H33.5226C37.5403 143.501 41.387 141.932 44.308 139.173C49.4292 141.878 55.0562 143.491 60.833 143.91C61.4705 143.91 62.1076 143.874 62.7412 143.804C66.1304 143.719 69.4264 142.676 72.2478 140.797C75.0693 138.917 77.301 136.277 78.6846 133.182C79.498 131.504 79.8138 129.629 79.5948 127.778C79.3758 125.927 78.6311 124.177 77.4489 122.736C78.5827 121.703 79.4895 120.446 80.1115 119.045C80.7336 117.643 81.0564 116.128 81.0613 114.594Z" fill="#4C83C3"/>
<path d="M73.7674 108.124L73.4554 107.951C69.2851 104.145 63.9646 101.837 58.3357 101.394C57.5233 101.393 56.7124 101.465 55.9127 101.609C54.2122 101.94 52.5941 102.605 51.1516 103.565C49.7091 104.524 48.4707 105.76 47.5079 107.2L46.6053 108.727L46.3388 106.973C45.6391 102.405 43.3433 102.103 43.2979 102.097C43.1324 102.063 42.9639 102.047 42.7951 102.048C40.2964 102.048 36.9859 105.368 36.9496 105.404L36.1712 106.191L35.8895 105.125C34.1298 98.5832 29.7017 98.4469 29.5351 98.4439C26.4449 98.4406 23.4672 99.6033 21.1969 101.7C20.3507 102.774 19.9405 104.127 20.0483 105.491C20.1561 106.854 20.7739 108.126 21.7784 109.054L22.4054 109.711L21.5694 110.074C13.1616 113.724 13.6431 116.81 13.6522 116.862C13.943 119.079 18.8345 121.329 21.8511 122.223L22.7113 122.483L22.1813 123.207C17.3534 129.783 18.7981 133.035 19.1434 133.617L19.2494 133.902H63.6088C66.3078 133.893 68.8932 132.815 70.7977 130.902C72.7022 128.99 73.7702 126.4 73.7674 123.701V108.124Z" fill="#4C83C3"/>
<path d="M63.6103 75.3101H10.1585C7.46333 75.3142 4.87993 76.3876 2.97536 78.2946C1.0708 80.2016 0.000718867 82.7864 0 85.4816V123.732C0.000797891 126.427 1.07084 129.012 2.97532 130.92C4.87981 132.827 7.46316 133.901 10.1585 133.906H16.1191L16.0767 133.806C15.719 132.13 15.7067 130.399 16.0405 128.719C16.3743 127.038 17.0472 125.443 18.0182 124.032C13.2994 122.078 10.8491 119.743 10.734 117.096C10.5583 113.007 15.9738 109.675 17.9546 108.597C17.4337 107.605 17.1254 106.515 17.0493 105.397C16.9732 104.279 17.1309 103.157 17.5124 102.104C18.6391 99.7301 20.6488 97.8911 23.1126 96.9788C24.8959 96.1072 26.8465 95.6309 28.8309 95.5826C30.0255 95.5762 31.2098 95.8036 32.317 96.2519C34.5896 97.2476 36.4392 99.0115 37.5417 101.234C39.095 100.093 40.9452 99.4251 42.8693 99.311C43.4407 99.3106 44.0087 99.3984 44.5533 99.5715C45.995 100.089 47.1838 101.14 47.8758 102.506C50.6385 100.012 54.2395 98.6491 57.9617 98.6901C63.6777 99.0863 69.1545 101.139 73.7234 104.596L73.7688 104.63V85.4816C73.7672 82.7868 72.6969 80.2026 70.7925 78.2959C68.8881 76.3893 66.3052 75.3149 63.6103 75.3101Z" fill="#4C83C3"/>
<path d="M166.172 56.7668L149.361 65.1707L150.435 67.3193L167.246 58.9154L166.172 56.7668Z" fill="#FDBA12"/>
<path d="M158.608 44.8315L143.52 58.2384L145.116 60.0347L160.204 46.6278L158.608 44.8315Z" fill="#FDBA12"/>
<path d="M144.073 35.0901L136.107 53.5269L138.314 54.4804L146.28 36.0436L144.073 35.0901Z" fill="#FDBA12"/>
<path d="M129.313 31.3525H126.908V51.9755H129.313V31.3525Z" fill="#FDBA12"/>
<path d="M112.152 35.0898L109.941 36.0438L117.749 54.1135L117.913 54.48L120.118 53.5259L112.31 35.4532L112.152 35.0898Z" fill="#FDBA12"/>
<path d="M96.0215 46.6292L111.107 60.0346L112.707 58.2385L97.6146 44.8302L96.0215 46.6292Z" fill="#FDBA12"/>
<path d="M90.0445 56.7751L88.9727 58.9249L105.792 67.311L106.864 65.1613L90.0445 56.7751Z" fill="#FDBA12"/>
<path d="M154.837 75.3124H151.184L151.169 75.7062C151.151 78.7235 150.534 81.7072 149.356 84.4849C148.177 87.2625 146.46 89.7791 144.303 91.8889C142.523 93.7016 140.358 95.0916 137.97 95.9566L136.264 107.769H119.64L118.183 96.0504C105.677 91.2559 105.201 78.1171 105.062 75.5275L105.05 75.3124H101.385C98.686 75.322 96.1008 76.4016 94.1965 78.3145C92.2922 80.2273 91.2241 82.8172 91.2266 85.5164V123.876C91.2287 126.319 92.1096 128.679 93.7084 130.526C95.3072 132.372 97.5171 133.582 99.9343 133.934H156.291C158.708 133.582 160.917 132.372 162.515 130.525C164.114 128.679 164.994 126.318 164.995 123.876V85.5164C164.998 82.8171 163.93 80.2269 162.026 78.3139C160.122 76.401 157.536 75.3216 154.837 75.3124ZM119.83 110.558H136.358V112.996H119.83V110.558ZM119.83 115.229H136.358V117.664H119.83V115.229ZM131.225 127.002H124.716V124.563H131.225V127.002ZM136.404 122.334H119.876V119.896H136.404V122.334Z" fill="#FDBA12"/>
<path d="M119.583 87.3029L129.057 83.4261L120.919 80.9425L126.637 75.7027L127.018 75.312H108.164V75.7027C108.295 78.05 108.67 89.6714 120.337 94.0389L120.561 94.1207L121.939 105H126.864V92.1453L129.475 90.0009L119.583 87.3029Z" fill="#FDBA12"/>
<path d="M130.486 75.3105L130.153 75.7043L125.922 79.7507L136.819 82.8068L127.076 86.8108L134.726 88.9552L129.405 93.2954V105.002H133.893L135.447 94.0465L135.653 93.9587C139.288 92.4641 142.408 89.9404 144.629 86.6976C146.85 83.4548 148.076 79.634 148.156 75.7043V75.3105H130.486Z" fill="#FDBA12"/>
<path d="M245.902 75.3116H225.567C234.529 81.9991 239.594 88.9471 240.626 95.9678C240.962 98.9875 240.672 102.044 239.773 104.946C238.874 107.849 237.386 110.534 235.402 112.835L235.229 113.059C227.433 123 211.523 130.511 205.041 133.276C204.308 133.501 203.571 133.72 202.83 133.934H245.902C248.595 133.925 251.174 132.849 253.074 130.941C254.974 129.033 256.039 126.449 256.037 123.757V85.4883C256.039 82.7957 254.974 80.2121 253.074 78.3042C251.174 76.3963 248.595 75.3201 245.902 75.3116Z" fill="#B22C1B"/>
<path d="M220.994 75.671L220.525 75.3105H192.587C189.895 75.3198 187.315 76.3967 185.416 78.3051C183.516 80.2134 182.45 82.7974 182.453 85.4903V123.753C182.45 126.446 183.515 129.031 185.415 130.94C187.315 132.849 189.894 133.926 192.587 133.936H192.736L193.893 133.551C219.889 124.952 236.562 111.919 237.401 99.5377C238.258 87.0743 222.763 76.8007 220.994 75.671Z" fill="#B22C1B"/>
<path d="M243.015 27.6285C243.292 26.0249 243.433 24.4007 243.436 22.7733C243.532 19.1182 242.677 15.5008 240.954 12.2757C239.231 9.05066 236.699 6.32868 233.608 4.37657C229.234 1.59254 224.172 0.0783679 218.988 0.00296078C213.803 -0.0724464 208.7 1.29387 204.247 3.94951C201.014 6.06361 198.393 8.98793 196.643 12.431C194.893 15.8741 194.076 19.7157 194.273 23.5729C194.282 25.4681 194.438 27.3596 194.739 29.2307C196.151 38.3698 201.073 46.5976 208.457 52.1646C204.58 51.1136 199.516 50.6108 197.323 54.1666C197.055 54.5053 196.86 54.8957 196.75 55.3134C196.64 55.7311 196.617 56.167 196.683 56.5938C196.749 57.0206 196.903 57.4292 197.135 57.7938C197.366 58.1584 197.671 58.4713 198.029 58.7128C200.848 60.736 207.703 60.1999 211.843 57.8314L209.002 64.4493H228.071L224.258 56.8198C228.871 58.7491 234.22 60.4907 237.109 58.7279C237.696 58.3621 238.178 57.8514 238.51 57.2451C238.842 56.6388 239.013 55.9573 239.005 55.266C239.092 54.5304 238.981 53.7849 238.683 53.1066C238.385 52.4282 237.912 51.8416 237.312 51.4074C235.13 50.2734 232.601 50.001 230.228 50.6441C230.564 50.3685 230.885 50.0929 231.206 49.8112C237.579 43.9972 241.75 36.1619 243.015 27.6285ZM199.434 56.7592C199.158 56.5624 198.819 56.317 199.37 55.4266C201.021 52.737 206.543 53.7698 211.031 55.5538C209.304 56.5895 207.37 57.2341 205.366 57.4424C203.363 57.6507 201.338 57.4175 199.434 56.7592ZM235.928 53.37C236.196 53.5705 236.402 53.8426 236.522 54.155C236.642 54.4675 236.671 54.8075 236.606 55.1358C236.624 55.4353 236.564 55.7343 236.433 56.0042C236.302 56.2741 236.104 56.5059 235.858 56.6775C234.768 57.3438 231.978 57.474 224.915 54.4937C229.222 53.0581 234.111 52.0889 235.928 53.37ZM221.886 53.0248C221.599 53.1399 221.381 53.2247 221.278 53.2671L220.439 53.5578L220.036 53.7547L220.051 53.7789L218.661 54.3544L220.814 55.3175L224.182 62.0475H212.652L215.971 54.3029L214.763 53.5851C210.123 51.09 206.119 47.5621 203.059 43.2737C200 38.9852 197.967 34.0511 197.117 28.8521C196.836 27.1174 196.692 25.3635 196.684 23.6063C196.494 20.1481 197.212 16.7005 198.768 13.6062C200.324 10.512 202.663 7.8792 205.552 5.96971C209.609 3.55694 214.257 2.3179 218.976 2.39063C223.696 2.46336 228.303 3.84499 232.284 6.38162C235.039 8.12784 237.294 10.5596 238.827 13.4387C240.361 16.3179 241.12 19.5459 241.031 22.8067C241.026 24.2889 240.897 25.7681 240.644 27.2287C239.909 32.7493 237.809 37.9996 234.534 42.5039C231.259 47.0083 226.912 50.6244 221.886 53.0248Z" fill="#B22C1B"/>
<path d="M224.547 74.8385L224.384 74.7234C224.381 74.7204 224.353 74.7083 224.308 74.678C222.502 73.5532 220.953 72.0614 219.761 70.2994C218.568 68.5374 217.76 66.5444 217.387 64.4498H214.797C215.209 68.4073 217.105 72.0617 220.103 74.678C220.167 74.7325 220.236 74.784 220.306 74.8385C220.406 74.9172 220.503 74.999 220.603 75.0747H224.471L224.885 75.0717L224.547 74.8385Z" fill="#B22C1B"/>
<path d="M95.9453 145.129H98.0898V157H95.9453V145.129ZM97 143.055C96.7422 143.055 96.5 143.023 96.2734 142.961C96.0547 142.898 95.8672 142.812 95.7109 142.703C95.5547 142.594 95.4297 142.465 95.3359 142.316C95.25 142.168 95.207 142.004 95.207 141.824C95.207 141.637 95.2539 141.465 95.3477 141.309C95.4414 141.145 95.5664 141.004 95.7227 140.887C95.8867 140.762 96.0781 140.668 96.2969 140.605C96.5156 140.535 96.75 140.5 97 140.5C97.25 140.5 97.4805 140.535 97.6914 140.605C97.9102 140.668 98.0977 140.762 98.2539 140.887C98.418 141.004 98.5469 141.145 98.6406 141.309C98.7344 141.465 98.7812 141.637 98.7812 141.824C98.7812 142.004 98.7344 142.168 98.6406 142.316C98.5547 142.465 98.4336 142.594 98.2773 142.703C98.1211 142.812 97.9336 142.898 97.7148 142.961C97.4961 143.023 97.2578 143.055 97 143.055ZM95.9453 145.129H98.0898V157H95.9453V145.129ZM111.18 149.09H109.129C109.004 148.355 108.719 147.746 108.273 147.262C107.828 146.77 107.113 146.523 106.129 146.523C104.785 146.523 103.824 147.148 103.246 148.398C102.871 149.203 102.684 150.199 102.684 151.387C102.684 152.582 102.949 153.59 103.48 154.41C104.012 155.223 104.848 155.629 105.988 155.629C106.863 155.629 107.555 155.375 108.062 154.867C108.578 154.359 108.934 153.664 109.129 152.781H111.18C110.945 154.359 110.359 155.516 109.422 156.25C108.484 156.977 107.285 157.34 105.824 157.34C104.184 157.34 102.875 156.773 101.898 155.641C100.922 154.5 100.434 153.074 100.434 151.363C100.434 149.27 100.969 147.641 102.039 146.477C103.109 145.312 104.473 144.73 106.129 144.73C107.543 144.73 108.691 145.059 109.574 145.715C110.465 146.363 111 147.488 111.18 149.09ZM122.02 150.965C122.02 150.02 121.875 149.203 121.586 148.516C121.039 147.203 120.039 146.547 118.586 146.547C117.125 146.547 116.125 147.242 115.586 148.633C115.297 149.375 115.152 150.316 115.152 151.457C115.152 152.379 115.297 153.16 115.586 153.801C116.133 155.035 117.133 155.652 118.586 155.652C119.57 155.652 120.387 155.262 121.035 154.48C121.691 153.699 122.02 152.527 122.02 150.965ZM113.125 145.129H115.176V146.711C115.598 146.172 116.059 145.754 116.559 145.457C117.27 145.012 118.105 144.789 119.066 144.789C120.488 144.789 121.695 145.309 122.688 146.348C123.68 147.379 124.176 148.855 124.176 150.777C124.176 153.371 123.461 155.227 122.031 156.344C121.125 157.047 120.07 157.398 118.867 157.398C117.922 157.398 117.129 157.203 116.488 156.812C116.113 156.586 115.695 156.203 115.234 155.664V161.758H113.125V145.129ZM136.539 149.09H134.488C134.363 148.355 134.078 147.746 133.633 147.262C133.188 146.77 132.473 146.523 131.488 146.523C130.145 146.523 129.184 147.148 128.605 148.398C128.23 149.203 128.043 150.199 128.043 151.387C128.043 152.582 128.309 153.59 128.84 154.41C129.371 155.223 130.207 155.629 131.348 155.629C132.223 155.629 132.914 155.375 133.422 154.867C133.938 154.359 134.293 153.664 134.488 152.781H136.539C136.305 154.359 135.719 155.516 134.781 156.25C133.844 156.977 132.645 157.34 131.184 157.34C129.543 157.34 128.234 156.773 127.258 155.641C126.281 154.5 125.793 153.074 125.793 151.363C125.793 149.27 126.328 147.641 127.398 146.477C128.469 145.312 129.832 144.73 131.488 144.73C132.902 144.73 134.051 145.059 134.934 145.715C135.824 146.363 136.359 147.488 136.539 149.09ZM140.371 157.059C140.113 157.059 139.871 157.031 139.645 156.977C139.426 156.914 139.238 156.828 139.082 156.719C138.926 156.602 138.801 156.469 138.707 156.32C138.621 156.172 138.578 156.008 138.578 155.828C138.578 155.648 138.625 155.477 138.719 155.312C138.812 155.148 138.938 155.008 139.094 154.891C139.258 154.766 139.449 154.672 139.668 154.609C139.887 154.539 140.121 154.504 140.371 154.504C140.621 154.504 140.852 154.539 141.062 154.609C141.281 154.672 141.469 154.766 141.625 154.891C141.789 155.008 141.918 155.148 142.012 155.312C142.105 155.477 142.152 155.648 142.152 155.828C142.152 156.008 142.105 156.172 142.012 156.32C141.926 156.469 141.805 156.602 141.648 156.719C141.492 156.828 141.305 156.914 141.086 156.977C140.867 157.031 140.629 157.059 140.371 157.059ZM146.312 141.438C146.805 140.758 147.754 140.418 149.16 140.418C149.293 140.418 149.43 140.422 149.57 140.43C149.711 140.43 149.871 140.438 150.051 140.453V142.281C149.832 142.266 149.672 142.258 149.57 142.258C149.477 142.25 149.387 142.246 149.301 142.246C148.66 142.246 148.277 142.406 148.152 142.727C148.027 143.039 147.965 143.84 147.965 145.129H150.051V146.711H147.941V157H145.855V146.711H144.109V145.129H145.855V143.266C145.887 142.43 146.039 141.82 146.312 141.438ZM160.645 150.848C160.645 149.73 160.457 148.824 160.082 148.129C159.488 147.027 158.465 146.477 157.012 146.477C155.723 146.477 154.785 146.945 154.199 147.883C153.613 148.82 153.32 149.949 153.32 151.27C153.32 152.535 153.613 153.594 154.199 154.445C154.785 155.289 155.715 155.711 156.988 155.711C158.387 155.711 159.344 155.207 159.859 154.199C160.383 153.191 160.645 152.074 160.645 150.848ZM162.848 150.789C162.848 152.711 162.355 154.301 161.371 155.559C160.387 156.809 158.859 157.434 156.789 157.434C155.062 157.434 153.691 156.879 152.676 155.77C151.66 154.66 151.152 153.172 151.152 151.305C151.152 149.297 151.688 147.699 152.758 146.512C153.828 145.324 155.266 144.73 157.07 144.73C158.688 144.73 160.055 145.242 161.172 146.266C162.289 147.289 162.848 148.797 162.848 150.789ZM167.477 145.082V152.992C167.477 153.602 167.578 154.098 167.781 154.48C168.156 155.199 168.855 155.559 169.879 155.559C171.348 155.559 172.348 154.934 172.879 153.684C173.168 153.012 173.312 152.094 173.312 150.93V145.082H175.422V157H173.43L173.453 155.242C173.18 155.695 172.84 156.078 172.434 156.391C171.629 157.016 170.652 157.328 169.504 157.328C167.715 157.328 166.496 156.758 165.848 155.617C165.496 155.008 165.32 154.195 165.32 153.18V145.082H167.477ZM178.727 145.082H180.73V146.77C181.324 146.074 181.953 145.574 182.617 145.27C183.281 144.965 184.02 144.812 184.832 144.812C186.613 144.812 187.816 145.402 188.441 146.582C188.785 147.223 188.957 148.145 188.957 149.348V157H186.812V149.488C186.812 148.762 186.699 148.176 186.473 147.73C186.098 146.988 185.418 146.617 184.434 146.617C183.934 146.617 183.523 146.664 183.203 146.758C182.625 146.922 182.117 147.25 181.68 147.742C181.328 148.133 181.098 148.539 180.988 148.961C180.887 149.375 180.836 149.973 180.836 150.754V157H178.727V145.082ZM197.02 155.676C197.996 155.676 198.797 155.277 199.422 154.48C200.055 153.684 200.371 152.539 200.371 151.047C200.371 149.539 200.047 148.426 199.398 147.707C198.75 146.98 197.949 146.617 196.996 146.617C195.934 146.617 195.07 147.004 194.406 147.777C193.75 148.543 193.422 149.676 193.422 151.176C193.422 152.457 193.707 153.527 194.277 154.387C194.848 155.246 195.762 155.676 197.02 155.676ZM199.012 145.445C199.387 145.664 199.812 146.055 200.289 146.617V140.594H202.316V157H200.418V155.336C199.926 156.078 199.344 156.613 198.672 156.941C198 157.262 197.23 157.422 196.363 157.422C194.965 157.422 193.754 156.863 192.73 155.746C191.707 154.629 191.195 153.145 191.195 151.293C191.195 149.551 191.66 148.047 192.59 146.781C193.527 145.508 194.863 144.871 196.598 144.871C197.559 144.871 198.363 145.062 199.012 145.445ZM209.312 155.699C210.055 155.699 210.773 155.535 211.469 155.207C212.641 154.668 213.227 153.781 213.227 152.547V150.93C212.969 151.086 212.637 151.219 212.23 151.328C211.824 151.43 211.426 151.504 211.035 151.551L209.758 151.703C208.992 151.797 208.418 151.949 208.035 152.16C207.387 152.504 207.062 153.059 207.062 153.824C207.062 154.402 207.285 154.859 207.73 155.195C208.176 155.531 208.703 155.699 209.312 155.699ZM212.172 149.77C212.656 149.715 212.98 149.523 213.145 149.195C213.238 149.016 213.285 148.762 213.285 148.434C213.285 147.746 213.027 147.25 212.512 146.945C212.004 146.633 211.273 146.477 210.32 146.477C209.219 146.477 208.438 146.758 207.977 147.32C207.719 147.633 207.551 148.098 207.473 148.715H205.504C205.543 147.246 206.043 146.227 207.004 145.656C207.973 145.078 209.094 144.789 210.367 144.789C211.844 144.789 213.043 145.055 213.965 145.586C214.879 146.125 215.336 146.957 215.336 148.082V154.949C215.336 155.16 215.379 155.328 215.465 155.453C215.559 155.578 215.75 155.641 216.039 155.641C216.133 155.641 216.238 155.637 216.355 155.629C216.473 155.613 216.598 155.594 216.73 155.57V157.059C216.402 157.145 216.152 157.199 215.98 157.223C215.809 157.246 215.574 157.258 215.277 157.258C214.551 157.258 214.023 157.012 213.695 156.52C213.523 156.262 213.402 155.895 213.332 155.418C212.902 155.957 212.285 156.422 211.48 156.812C210.676 157.203 209.789 157.398 208.82 157.398C207.656 157.398 206.703 157.062 205.961 156.391C205.227 155.719 204.859 154.879 204.859 153.871C204.859 152.77 205.223 151.914 205.949 151.305C206.676 150.695 207.629 150.32 208.809 150.18L212.172 149.77ZM219.227 141.754H221.359V145.082H223.363V146.711H221.359V154.492C221.359 154.906 221.508 155.188 221.805 155.336C221.969 155.414 222.242 155.453 222.625 155.453C222.727 155.453 222.836 155.453 222.953 155.453C223.07 155.445 223.207 155.434 223.363 155.418V157C223.121 157.07 222.867 157.117 222.602 157.141C222.344 157.172 222.062 157.188 221.758 157.188C220.773 157.188 220.105 156.949 219.754 156.473C219.402 155.996 219.227 155.375 219.227 154.609V146.711H217.527V145.082H219.227V141.754ZM225.484 145.129H227.629V157H225.484V145.129ZM226.539 143.055C226.281 143.055 226.039 143.023 225.812 142.961C225.594 142.898 225.406 142.812 225.25 142.703C225.094 142.594 224.969 142.465 224.875 142.316C224.789 142.168 224.746 142.004 224.746 141.824C224.746 141.637 224.793 141.465 224.887 141.309C224.98 141.145 225.105 141.004 225.262 140.887C225.426 140.762 225.617 140.668 225.836 140.605C226.055 140.535 226.289 140.5 226.539 140.5C226.789 140.5 227.02 140.535 227.23 140.605C227.449 140.668 227.637 140.762 227.793 140.887C227.957 141.004 228.086 141.145 228.18 141.309C228.273 141.465 228.32 141.637 228.32 141.824C228.32 142.004 228.273 142.168 228.18 142.316C228.094 142.465 227.973 142.594 227.816 142.703C227.66 142.812 227.473 142.898 227.254 142.961C227.035 143.023 226.797 143.055 226.539 143.055ZM225.484 145.129H227.629V157H225.484V145.129ZM239.465 150.848C239.465 149.73 239.277 148.824 238.902 148.129C238.309 147.027 237.285 146.477 235.832 146.477C234.543 146.477 233.605 146.945 233.02 147.883C232.434 148.82 232.141 149.949 232.141 151.27C232.141 152.535 232.434 153.594 233.02 154.445C233.605 155.289 234.535 155.711 235.809 155.711C237.207 155.711 238.164 155.207 238.68 154.199C239.203 153.191 239.465 152.074 239.465 150.848ZM241.668 150.789C241.668 152.711 241.176 154.301 240.191 155.559C239.207 156.809 237.68 157.434 235.609 157.434C233.883 157.434 232.512 156.879 231.496 155.77C230.48 154.66 229.973 153.172 229.973 151.305C229.973 149.297 230.508 147.699 231.578 146.512C232.648 145.324 234.086 144.73 235.891 144.73C237.508 144.73 238.875 145.242 239.992 146.266C241.109 147.289 241.668 148.797 241.668 150.789ZM244.188 145.082H246.191V146.77C246.785 146.074 247.414 145.574 248.078 145.27C248.742 144.965 249.48 144.812 250.293 144.812C252.074 144.812 253.277 145.402 253.902 146.582C254.246 147.223 254.418 148.145 254.418 149.348V157H252.273V149.488C252.273 148.762 252.16 148.176 251.934 147.73C251.559 146.988 250.879 146.617 249.895 146.617C249.395 146.617 248.984 146.664 248.664 146.758C248.086 146.922 247.578 147.25 247.141 147.742C246.789 148.133 246.559 148.539 246.449 148.961C246.348 149.375 246.297 149.973 246.297 150.754V157H244.188V145.082Z" fill="#B22C1B"/>
</g>
<defs>
<clipPath id="clip0_551_76734">
<rect width="257" height="162" fill="white"/>
</clipPath>
</defs>
</svg>
