<svg width="1132" height="858" viewBox="0 0 1132 858" fill="none" xmlns="http://www.w3.org/2000/svg">
<path d="M187.943 633.51C184.553 632.873 181.064 632.993 177.725 633.854C174.385 634.721 171.278 636.312 168.623 638.513C165.968 640.714 163.831 643.476 162.364 646.597C160.897 649.721 160.137 653.125 160.137 656.576C160.137 660.024 160.897 663.431 162.364 666.556C163.831 669.676 165.968 672.439 168.623 674.64C171.278 676.841 174.385 678.432 177.725 679.298C181.064 680.16 184.553 680.279 187.943 679.643C191.334 680.279 194.824 680.164 198.164 679.298C201.504 678.436 204.613 676.845 207.269 674.644C209.925 672.439 212.063 669.681 213.53 666.556C214.997 663.436 215.758 660.028 215.758 656.576C215.758 653.125 214.997 649.717 213.53 646.597C212.063 643.472 209.925 640.71 207.269 638.509C204.613 636.307 201.504 634.716 198.164 633.854C194.824 632.988 191.334 632.873 187.943 633.51ZM187.943 670.764C177.502 670.764 169.015 664.395 169.015 656.576C169.015 648.758 177.502 642.371 187.943 642.371C198.385 642.371 206.885 648.745 206.885 656.576C206.885 664.408 198.385 670.764 187.943 670.764Z" fill="#4C83C3"/>
<path d="M150.12 673.963C149.131 668.443 146.008 663.541 141.427 660.31C136.847 657.079 131.178 655.785 125.649 656.704C120.05 656.916 114.759 659.325 110.922 663.409C107.086 667.492 105.014 672.924 105.155 678.524C105.668 681.18 106.714 683.699 108.228 685.936C109.742 688.177 111.694 690.082 113.966 691.544C116.238 693.007 118.782 693.993 121.446 694.448C124.11 694.899 126.837 694.806 129.465 694.174C142.489 692.862 151.177 684.349 150.12 673.963ZM128.648 686.183C121.781 686.877 114.097 684.508 113.401 677.698C113.76 674.361 115.253 671.254 117.631 668.889C120.008 666.524 123.125 665.048 126.461 664.708C129.796 664.368 133.147 665.185 135.953 667.019C138.759 668.854 140.849 671.598 141.874 674.789C142.57 681.631 135.502 685.485 128.648 686.183Z" fill="#4C83C3"/>
<path d="M69.1838 673.999C56.9752 673.999 49.3984 679.745 49.3984 688.982C49.3984 698.215 56.9752 703.96 69.1838 703.96C81.3919 703.96 88.9554 698.228 88.9554 688.982C88.9554 679.731 81.3787 673.999 69.1838 673.999ZM69.1701 696.009C63.6953 696.009 57.1493 694.803 57.1493 688.982C57.1493 683.183 63.6953 681.968 69.1701 681.968C74.6722 681.968 81.2178 683.183 81.2178 688.982C81.2178 694.803 74.6722 696.009 69.1701 696.009Z" fill="#4C83C3"/>
<path d="M358.267 506.474C356.917 497.806 353.55 489.577 348.437 482.452C343.324 475.323 336.608 469.498 328.83 465.445C328.575 465.273 328.361 465.109 328.121 464.937L328.013 464.857L327.076 464.252V477.533C327.504 477.803 328.161 478.258 328.83 478.74C333.594 481.807 337.682 485.816 340.842 490.523C344.002 495.225 346.169 500.529 347.209 506.098C347.17 512.979 345.479 519.75 342.281 525.841C339.083 531.931 334.47 537.164 328.83 541.106C328.669 541.266 328.522 541.411 328.348 541.562L327.076 542.684L326.193 543.449L327.076 543.794L328.83 544.492L328.843 544.505C329.044 544.585 348.294 552.713 339.124 581.185C334.22 594.762 325.066 606.395 313.022 614.359C300.978 622.319 286.687 626.182 272.273 625.373H271.817C244.784 624.635 218.431 616.732 195.449 602.483L194.257 601.825L193.307 602.801C181.295 615.075 165.279 622.633 148.168 624.1C147.86 624.166 126.83 625.704 113.149 598.103L112.453 596.711L110.994 597.219C110.82 597.272 95.0241 602.51 86.6174 594.598C86.0521 594.064 85.5328 593.489 85.0647 592.87H82.7355V592.844H74.6368V592.87H72.8203L72.9405 593.312L73.1681 593.9C73.2486 594.117 73.329 594.316 73.4492 594.598C75.2162 598.828 82.7395 612.295 106.821 609.254C111.072 616.564 117.075 622.703 124.288 627.119C131.502 631.534 139.7 634.084 148.145 634.539H148.158C165.916 634.234 182.917 627.3 195.827 615.106C218.461 627.061 243.331 634.19 268.863 636.042C271.681 636.042 274.496 635.883 277.296 635.574C292.276 635.198 306.843 630.588 319.313 622.283C331.784 613.974 341.647 602.306 347.762 588.627C351.357 581.211 352.753 572.924 351.785 564.743C350.817 556.562 347.526 548.828 342.3 542.459C347.312 537.893 351.319 532.338 354.069 526.146C356.818 519.949 358.245 513.253 358.267 506.474Z" fill="#4C83C3"/>
<path d="M15.469 685.057C2.49766 685.057 0 692.53 0 696.106C0 699.681 2.49766 707.155 15.469 707.155C25.2678 707.155 30.938 703.292 30.938 696.106C30.938 688.919 25.2678 685.057 15.469 685.057ZM15.469 700.048C8.21361 700.048 7.10815 697.644 7.10815 696.106C7.10815 694.568 8.21361 692.164 15.469 692.164C16.3793 692.164 24.3085 692.164 24.3085 696.106C24.3085 700.048 16.3793 700.048 15.469 700.048Z" fill="#4C83C3"/>
<path d="M326.031 477.878L324.652 477.113C306.221 460.292 282.705 450.091 257.827 448.133C254.237 448.133 250.653 448.447 247.118 449.083C239.603 450.551 232.451 453.485 226.076 457.728C219.7 461.967 214.227 467.429 209.971 473.794L205.982 480.543L204.804 472.791C201.712 452.606 191.565 451.267 191.364 451.24C190.633 451.09 189.888 451.019 189.142 451.023C178.099 451.023 163.467 465.697 163.307 465.856L159.866 469.339L158.621 464.623C150.844 435.71 131.273 435.108 130.537 435.095C116.879 435.081 103.718 440.219 93.6841 449.485C89.9442 454.232 88.1312 460.216 88.6077 466.241C89.0841 472.265 91.8146 477.886 96.2542 481.988L99.0254 484.892L95.3305 486.501C58.1704 502.628 60.2985 516.272 60.3387 516.497C61.6239 526.296 83.243 536.24 96.5755 540.191L100.377 541.34L98.0349 544.54C76.6969 573.604 83.0821 587.982 84.6082 590.55L85.0767 591.809H281.133C293.062 591.769 304.488 587.005 312.906 578.55C321.323 570.1 326.043 558.652 326.031 546.724V477.878Z" fill="#4C83C3"/>
<path d="M281.14 332.85H44.8977C32.9858 332.868 21.5679 337.612 13.1503 346.041C4.73264 354.469 0.00317719 365.893 0 377.805V546.86C0.00352646 558.776 4.73281 570.197 13.1501 578.629C21.5674 587.058 32.9851 591.805 44.8977 591.827H71.2419L71.0545 591.385C69.4736 583.977 69.4192 576.327 70.8945 568.902C72.3698 561.472 75.3439 554.427 79.6354 548.186C58.7796 539.55 47.95 529.23 47.4413 517.531C46.6647 499.459 70.5997 484.737 79.3543 479.968C77.0521 475.584 75.6895 470.766 75.3531 465.825C75.0164 460.884 75.7138 455.925 77.3999 451.271C82.3796 440.78 91.2619 432.651 102.151 428.62C110.033 424.767 118.654 422.662 127.425 422.448C132.704 422.421 137.939 423.426 142.832 425.407C152.876 429.808 161.051 437.604 165.924 447.426C172.789 442.383 180.966 439.432 189.47 438.927C191.996 438.925 194.506 439.314 196.913 440.078C203.285 442.369 208.539 447.01 211.598 453.052C223.808 442.025 239.723 436.001 256.175 436.183C281.438 437.934 305.644 447.006 325.837 462.285L326.038 462.435V377.805C326.03 365.895 321.3 354.474 312.883 346.046C304.466 337.619 293.05 332.871 281.14 332.85Z" fill="#4C83C3"/>
<path d="M731.499 250.894L657.199 288.037L661.946 297.533L736.246 260.39L731.499 250.894Z" fill="#FDBA12"/>
<path d="M698.063 198.143L631.383 257.398L638.437 265.337L705.117 206.082L698.063 198.143Z" fill="#FDBA12"/>
<path d="M633.825 155.089L598.617 236.574L608.367 240.789L643.575 159.303L633.825 155.089Z" fill="#FDBA12"/>
<path d="M568.594 138.569H557.965V229.717H568.594V138.569Z" fill="#FDBA12"/>
<path d="M492.745 155.087L482.973 159.304L517.482 239.167L518.207 240.787L527.952 236.57L493.439 156.694L492.745 155.087Z" fill="#FDBA12"/>
<path d="M421.449 206.088L488.126 265.336L495.193 257.398L428.49 198.137L421.449 206.088Z" fill="#FDBA12"/>
<path d="M395.038 250.93L390.301 260.432L464.639 297.496L469.377 287.995L395.038 250.93Z" fill="#FDBA12"/>
<path d="M681.396 332.86H665.255L665.185 334.601C665.105 347.936 662.383 361.124 657.172 373.4C651.965 385.677 644.372 396.799 634.839 406.124C626.972 414.135 617.408 420.279 606.849 424.102L599.313 476.309H525.835L519.396 424.517C464.123 403.326 462.023 345.256 461.405 333.811L461.352 332.86H445.153C433.226 332.903 421.8 337.675 413.384 346.129C404.967 354.583 400.247 366.03 400.258 377.959V547.497C400.267 558.295 404.161 568.725 411.227 576.889C418.293 585.052 428.06 590.4 438.743 591.951H687.823C698.505 590.395 708.273 585.047 715.335 576.884C722.398 568.725 726.287 558.29 726.296 547.497V377.959C726.309 366.029 721.589 354.581 713.17 346.127C704.754 337.672 693.33 332.901 681.396 332.86ZM526.68 488.636H599.729V499.415H526.68V488.636ZM526.68 509.28H599.729V520.042H526.68V509.28ZM577.038 561.314H548.27V550.534H577.038V561.314ZM599.928 540.682H526.878V529.907H599.928V540.682Z" fill="#FDBA12"/>
<path d="M525.585 385.855L567.458 368.721L531.49 357.744L556.762 334.586L558.45 332.859H475.121V334.586C475.696 344.96 477.357 396.323 528.918 415.627L529.912 415.988L536.003 464.071H557.765V407.257L569.305 397.78L525.585 385.855Z" fill="#FDBA12"/>
<path d="M573.769 332.852L572.298 334.592L553.598 352.476L601.764 365.983L558.698 383.68L592.513 393.157L568.992 412.34V464.079H588.832L595.7 415.66L596.61 415.271C612.676 408.666 626.461 397.512 636.282 383.179C646.098 368.847 651.512 351.96 651.866 334.592V332.852H573.769Z" fill="#FDBA12"/>
<path d="M1082.25 332.857H992.37C1031.98 362.414 1054.36 393.122 1058.93 424.152C1060.41 437.498 1059.13 451.006 1055.16 463.832C1051.18 476.662 1044.61 488.529 1035.84 498.699L1035.07 499.689C1000.62 543.625 930.3 576.822 901.651 589.043C898.411 590.037 895.154 591.005 891.879 591.951H1082.25C1094.15 591.911 1105.55 587.155 1113.94 578.722C1122.34 570.29 1127.05 558.874 1127.04 546.971V377.835C1127.05 365.935 1122.34 354.516 1113.94 346.083C1105.55 337.651 1094.15 332.895 1082.25 332.857Z" fill="#B22C1B"/>
<path d="M970.309 334.73L968.236 333.136H844.758C832.856 333.177 821.458 337.937 813.06 346.372C804.663 354.806 799.956 366.226 799.969 378.128V547.236C799.951 559.143 804.658 570.564 813.056 579.001C821.453 587.438 832.856 592.203 844.758 592.242H845.417L850.53 590.541C965.425 552.54 1040.96 494.651 1044.67 439.929C1048.45 384.844 978.128 339.722 970.309 334.73Z" fill="#B22C1B"/>
<path d="M1069.48 122.11C1070.71 115.023 1071.33 107.844 1071.34 100.652C1071.77 84.4971 1067.99 68.5092 1060.37 54.2552C1052.76 40.0014 1041.57 27.971 1027.91 19.3432C1008.57 7.03858 986.202 0.346364 963.29 0.0130858C940.378 -0.320193 917.82 5.71855 898.139 17.4557C883.855 26.7995 872.266 39.7241 864.532 54.9416C856.797 70.1591 853.186 87.1379 854.057 104.186C854.101 112.562 854.791 120.922 856.121 129.192C862.362 169.584 884.111 205.948 916.746 230.553C899.611 225.908 877.229 223.686 867.537 239.401C866.352 240.898 865.491 242.624 865.004 244.47C864.518 246.316 864.417 248.242 864.708 250.129C865.004 252.015 865.681 253.821 866.706 255.432C867.727 257.044 869.075 258.427 870.657 259.494C883.121 268.436 913.414 266.067 931.711 255.599L919.155 284.848H1003.43L986.582 251.128C1006.97 259.655 1030.61 267.352 1043.38 259.561C1045.97 257.944 1048.1 255.687 1049.57 253.007C1051.04 250.328 1051.8 247.316 1051.76 244.26C1052.14 241.009 1051.65 237.714 1050.34 234.716C1049.02 231.718 1046.93 229.125 1044.28 227.206C1034.63 222.194 1023.46 220.99 1012.97 223.833C1014.45 222.615 1015.87 221.397 1017.29 220.152C1045.46 194.455 1063.89 159.826 1069.48 122.11ZM876.867 250.86C875.652 249.99 874.149 248.905 876.589 244.97C883.881 233.083 908.287 237.648 928.123 245.532C920.49 250.11 911.942 252.959 903.085 253.879C894.232 254.8 885.282 253.769 876.867 250.86ZM1038.16 235.881C1039.34 236.767 1040.26 237.969 1040.79 239.35C1041.32 240.731 1041.44 242.234 1041.16 243.685C1041.24 245.009 1040.97 246.33 1040.39 247.523C1039.81 248.716 1038.94 249.74 1037.85 250.499C1033.03 253.444 1020.7 254.019 989.486 240.847C1008.52 234.502 1030.13 230.218 1038.16 235.881ZM976.103 234.355C974.83 234.864 973.867 235.238 973.411 235.426L969.703 236.711L967.922 237.581L967.988 237.688L961.845 240.231L971.361 244.488L986.246 274.233H935.287L949.956 240.004L944.617 236.831C924.109 225.804 906.413 210.211 892.893 191.258C879.369 172.304 870.383 150.496 866.627 127.518C865.389 119.851 864.748 112.1 864.713 104.333C863.873 89.049 867.046 73.8116 873.924 60.1356C880.801 46.4601 891.138 34.8239 903.907 26.3845C921.842 15.7207 942.381 10.2445 963.242 10.5659C984.098 10.8874 1004.46 16.9938 1022.05 28.205C1034.24 35.9228 1044.2 46.6705 1050.97 59.3953C1057.75 72.1206 1061.11 86.3874 1060.71 100.799C1060.69 107.35 1060.12 113.888 1059 120.343C1055.76 144.743 1046.48 167.948 1032 187.855C1017.52 207.764 998.312 223.746 976.103 234.355Z" fill="#B22C1B"/>
<path d="M987.862 330.765L987.141 330.257C987.128 330.243 987.004 330.19 986.806 330.056C978.823 325.085 971.977 318.491 966.709 310.704C961.436 302.916 957.865 294.108 956.217 284.85H944.77C946.59 302.341 954.97 318.493 968.221 330.056C968.503 330.297 968.813 330.524 969.118 330.765C969.56 331.113 969.988 331.475 970.43 331.809H987.526L989.36 331.796L987.862 330.765Z" fill="#B22C1B"/>
<path d="M10.8227 721.391H25.8299V808.809H10.8227V721.391ZM18.2033 706.055C16.3991 706.055 14.7043 705.834 13.1189 705.401C11.5881 704.963 10.276 704.331 9.18252 703.514C8.08913 702.692 7.21438 701.737 6.55836 700.641C5.95697 699.549 5.65625 698.347 5.65625 697.034C5.65625 695.669 5.98428 694.383 6.64035 693.18C7.29641 691.978 8.17112 690.94 9.26455 690.065C10.4127 689.189 11.7521 688.504 13.2829 688.014C14.8136 687.523 16.4538 687.276 18.2033 687.276C19.9527 687.276 21.5655 687.523 23.0417 688.014C24.5724 688.504 25.8846 689.189 26.978 690.065C28.1261 690.94 29.0281 691.978 29.6842 693.18C30.3402 694.383 30.6682 695.669 30.6682 697.034C30.6682 698.347 30.3402 699.549 29.6842 700.641C29.0828 701.737 28.2354 702.692 27.142 703.514C26.0486 704.331 24.7364 704.963 23.2057 705.401C21.6749 705.834 20.0074 706.055 18.2033 706.055ZM10.8227 721.391H25.8299V808.809H10.8227V721.391ZM117.431 750.504H103.08C102.205 745.09 100.21 740.608 97.0938 737.055C93.9774 733.444 88.9747 731.641 82.0862 731.641C72.6828 731.641 65.9586 736.233 61.9128 745.417C59.2884 751.379 57.9766 758.729 57.9766 767.476C57.9766 776.28 59.8351 783.687 63.553 789.703C67.2704 795.714 73.1203 798.723 81.1023 798.723C87.2254 798.723 92.0637 796.863 95.6176 793.146C99.2258 789.376 101.713 784.236 103.08 777.73H117.431C115.791 789.376 111.691 797.901 105.13 803.315C98.5695 808.672 90.1778 811.35 79.9541 811.35C68.4734 811.35 59.3158 807.169 52.482 798.803C45.6482 790.383 42.2312 779.886 42.2312 767.312C42.2312 751.896 45.9762 739.897 53.4663 731.314C60.9559 722.731 70.4959 718.439 82.0862 718.439C91.9819 718.439 100.018 720.843 106.196 725.657C112.429 730.465 116.174 738.748 117.431 750.504ZM193.287 764.36C193.287 757.364 192.276 751.348 190.253 746.319C186.426 736.644 179.428 731.804 169.259 731.804C159.036 731.804 152.038 736.918 148.266 747.141C146.243 752.608 145.232 759.551 145.232 767.971C145.232 774.751 146.243 780.519 148.266 785.274C152.093 794.348 159.091 798.887 169.259 798.887C176.148 798.887 181.861 796.014 186.399 790.277C190.991 784.479 193.287 775.842 193.287 764.36ZM131.044 721.391H145.396V733.033C148.348 729.042 151.573 725.957 155.072 723.769C160.047 720.49 165.897 718.85 172.621 718.85C182.572 718.85 191.019 722.673 197.962 730.328C204.905 737.93 208.377 748.807 208.377 762.968C208.377 782.101 203.374 795.771 193.369 803.97C187.028 809.163 179.647 811.762 171.228 811.762C164.612 811.762 159.063 810.312 154.58 807.417C151.956 805.773 149.031 802.957 145.805 798.966V843.827H131.044V721.391ZM294.894 750.504H280.542C279.668 745.09 277.672 740.608 274.556 737.055C271.439 733.444 266.437 731.641 259.549 731.641C250.145 731.641 243.421 736.233 239.375 745.417C236.751 751.379 235.439 758.729 235.439 767.476C235.439 776.28 237.297 783.687 241.015 789.703C244.733 795.714 250.582 798.723 258.564 798.723C264.687 798.723 269.526 796.863 273.08 793.146C276.688 789.376 279.175 784.236 280.542 777.73H294.894C293.253 789.376 289.153 797.901 282.593 803.315C276.032 808.672 267.64 811.35 257.416 811.35C245.935 811.35 236.778 807.169 229.944 798.803C223.11 790.383 219.693 779.886 219.693 767.312C219.693 751.896 223.438 739.897 230.928 731.314C238.418 722.731 247.958 718.439 259.549 718.439C269.444 718.439 277.481 720.843 283.659 725.657C289.891 730.465 293.636 738.748 294.894 750.504ZM321.709 809.22C319.905 809.22 318.211 808.999 316.625 808.562C315.094 808.124 313.782 807.497 312.689 806.679C311.595 805.857 310.72 804.902 310.065 803.806C309.463 802.714 309.163 801.512 309.163 800.2C309.163 798.834 309.49 797.548 310.146 796.346C310.803 795.143 311.677 794.105 312.771 793.23C313.919 792.355 315.258 791.669 316.789 791.179C318.32 790.684 319.96 790.441 321.709 790.441C323.459 790.441 325.072 790.684 326.548 791.179C328.079 791.669 329.391 792.355 330.484 793.23C331.632 794.105 332.534 795.143 333.19 796.346C333.846 797.548 334.175 798.834 334.175 800.2C334.175 801.512 333.846 802.714 333.19 803.806C332.589 804.902 331.742 805.857 330.648 806.679C329.555 807.497 328.242 808.124 326.712 808.562C325.181 808.999 323.513 809.22 321.709 809.22ZM363.287 694.166C366.731 689.136 373.374 686.622 383.215 686.622C384.144 686.622 385.1 686.648 386.085 686.701C387.069 686.754 388.189 686.838 389.447 686.949V700.398C387.916 700.287 386.795 700.234 386.085 700.234C385.428 700.177 384.8 700.15 384.198 700.15C379.715 700.15 377.037 701.326 376.162 703.677C375.287 705.971 374.85 711.876 374.85 721.391H389.447V733.033H374.686V808.809H360.088V733.033H347.87V721.391H360.088V707.615C360.307 701.49 361.373 697.008 363.287 694.166ZM463.582 763.458C463.582 755.26 462.27 748.59 459.644 743.45C455.49 735.358 448.325 731.314 438.159 731.314C429.138 731.314 422.577 734.757 418.477 741.647C414.377 748.533 412.327 756.847 412.327 766.574C412.327 775.926 414.377 783.714 418.477 789.946C422.577 796.182 429.083 799.298 437.995 799.298C447.782 799.298 454.478 795.607 458.084 788.227C461.748 780.788 463.582 772.537 463.582 763.458ZM478.998 763.047C478.998 777.208 475.555 788.907 468.665 798.149C461.775 807.386 451.088 812.009 436.601 812.009C424.518 812.009 414.923 807.934 407.816 799.789C400.709 791.59 397.156 780.598 397.156 766.822C397.156 752.06 400.9 740.308 408.39 731.557C415.88 722.81 425.94 718.439 438.569 718.439C449.886 718.439 459.454 722.209 467.273 729.754C475.087 737.298 478.998 748.396 478.998 763.047ZM511.39 720.98V779.285C511.39 783.771 512.102 787.431 513.521 790.277C516.146 795.524 521.039 798.149 528.203 798.149C538.479 798.149 545.48 793.557 549.197 784.372C551.217 779.449 552.229 772.7 552.229 764.117V720.98H566.991V808.809H553.051L553.214 795.851C551.3 799.187 548.923 802.003 546.081 804.297C540.45 808.893 533.613 811.187 525.578 811.187C513.057 811.187 504.531 807.006 499.992 798.639C497.53 794.158 496.301 788.169 496.301 780.682V720.98H511.39ZM590.119 720.98H604.138V733.444C608.293 728.304 612.695 724.618 617.344 722.373C621.989 720.132 627.156 719.014 632.844 719.014C645.308 719.014 653.728 723.358 658.099 732.052C660.507 736.807 661.71 743.614 661.71 752.471V808.809H646.7V753.457C646.7 748.095 645.909 743.777 644.322 740.498C641.697 735.031 636.941 732.295 630.055 732.295C626.555 732.295 623.687 732.653 621.441 733.364C617.397 734.567 613.844 736.971 610.781 740.577C608.324 743.477 606.711 746.482 605.946 749.603C605.234 752.661 604.876 757.063 604.876 762.804V808.809H590.119V720.98ZM718.127 799.05C724.965 799.05 730.569 796.125 734.94 790.277C739.368 784.373 741.583 775.926 741.583 764.935C741.583 753.837 739.315 745.638 734.776 740.334C730.237 734.978 724.633 732.295 717.964 732.295C710.53 732.295 704.488 735.141 699.843 740.825C695.251 746.513 692.953 754.875 692.953 765.92C692.953 775.325 694.95 783.197 698.941 789.539C702.932 795.881 709.328 799.05 718.127 799.05ZM732.071 723.685C734.692 725.325 737.676 728.198 741.008 732.295V687.93H755.195V808.809H741.91V796.589C738.467 802.003 734.392 805.91 729.694 808.319C724.991 810.723 719.603 811.925 713.535 811.925C703.75 811.925 695.277 807.824 688.113 799.625C680.953 791.369 677.373 780.408 677.373 766.738C677.373 753.947 680.626 742.876 687.132 733.528C693.691 724.123 703.038 719.42 715.175 719.42C721.902 719.42 727.532 720.843 732.071 723.685ZM804.153 799.214C809.346 799.214 814.375 798.012 819.242 795.607C827.445 791.616 831.546 785.084 831.546 776.006V764.117C829.738 765.262 827.418 766.221 824.572 766.985C821.73 767.75 818.941 768.298 816.21 768.625L807.269 769.774C801.912 770.486 797.894 771.604 795.216 773.138C790.677 775.705 788.41 779.807 788.41 785.438C788.41 789.703 789.965 793.066 793.081 795.523C796.197 797.985 799.888 799.214 804.153 799.214ZM824.165 755.587C827.555 755.149 829.822 753.726 830.972 751.322C831.626 750.009 831.953 748.126 831.953 745.665C831.953 740.635 830.15 736.998 826.543 734.757C822.99 732.463 817.876 731.314 811.207 731.314C803.499 731.314 798.031 733.391 794.805 737.546C793.002 739.844 791.826 743.26 791.278 747.795H777.502C777.776 736.971 781.276 729.453 787.999 725.246C794.779 720.98 802.624 718.85 811.534 718.85C821.867 718.85 830.26 720.817 836.708 724.751C843.108 728.688 846.304 734.81 846.304 743.123V793.72C846.304 795.249 846.604 796.483 847.205 797.411C847.864 798.339 849.203 798.803 851.227 798.803C851.881 798.803 852.619 798.776 853.441 798.723C854.259 798.613 855.134 798.476 856.062 798.312V809.22C853.769 809.874 852.018 810.285 850.816 810.449C849.614 810.612 847.974 810.696 845.897 810.696C840.81 810.696 837.119 808.893 834.826 805.282C833.623 803.368 832.775 800.664 832.284 797.163C829.274 801.101 824.956 804.518 819.326 807.417C813.695 810.312 807.49 811.762 800.71 811.762C792.564 811.762 785.895 809.3 780.702 804.381C775.562 799.404 772.989 793.199 772.989 785.765C772.989 777.619 775.535 771.303 780.618 766.822C785.7 762.34 792.374 759.578 800.626 758.539L824.165 755.587ZM873.534 696.46H888.454V720.98H902.478V733.033H888.454V790.357C888.454 793.42 889.498 795.47 891.575 796.509C892.72 797.11 894.633 797.411 897.312 797.411C898.023 797.411 898.788 797.411 899.61 797.411C900.427 797.358 901.387 797.274 902.478 797.163V808.809C900.785 809.3 899.009 809.658 897.148 809.874C895.345 810.095 893.378 810.201 891.243 810.201C884.357 810.201 879.681 808.456 877.22 804.955C874.762 801.402 873.534 796.81 873.534 791.179V733.033H861.64V720.98H873.534V696.46ZM917.324 721.391H932.329V808.809H917.324V721.391ZM924.705 706.055C922.897 706.055 921.205 705.834 919.618 705.401C918.089 704.963 916.776 704.331 915.684 703.514C914.588 702.692 913.713 701.737 913.059 700.641C912.458 699.549 912.157 698.347 912.157 697.034C912.157 695.669 912.484 694.383 913.139 693.18C913.797 691.978 914.672 690.94 915.764 690.065C916.913 689.189 918.252 688.504 919.781 688.014C921.315 687.523 922.955 687.276 924.705 687.276C926.451 687.276 928.064 687.523 929.54 688.014C931.074 688.504 932.386 689.189 933.478 690.065C934.627 690.94 935.529 691.978 936.183 693.18C936.842 694.383 937.169 695.669 937.169 697.034C937.169 698.347 936.842 699.549 936.183 700.641C935.582 701.737 934.738 702.692 933.642 703.514C932.55 704.331 931.237 704.963 929.704 705.401C928.175 705.834 926.508 706.055 924.705 706.055ZM917.324 721.391H932.329V808.809H917.324V721.391ZM1015.15 763.458C1015.15 755.26 1013.85 748.59 1011.22 743.45C1007.07 735.358 999.902 731.314 989.737 731.314C980.716 731.314 974.153 734.757 970.051 741.647C965.954 748.533 963.903 756.847 963.903 766.574C963.903 775.926 965.954 783.714 970.051 789.946C974.153 796.182 980.659 799.298 989.569 799.298C999.359 799.298 1006.05 795.607 1009.66 788.227C1013.32 780.788 1015.15 772.537 1015.15 763.458ZM1030.58 763.047C1030.58 777.208 1027.13 788.907 1020.24 798.149C1013.35 807.386 1002.66 812.009 988.177 812.009C976.093 812.009 966.498 807.934 959.391 799.789C952.284 791.59 948.731 780.598 948.731 766.822C948.731 752.06 952.479 740.308 959.966 731.557C967.457 722.81 977.516 718.439 990.143 718.439C1001.46 718.439 1011.03 722.209 1018.85 729.754C1026.66 737.298 1030.58 748.396 1030.58 763.047ZM1048.21 720.98H1062.23V733.444C1066.38 728.304 1070.79 724.618 1075.43 722.373C1080.08 720.132 1085.25 719.014 1090.93 719.014C1103.39 719.014 1111.81 723.358 1116.19 732.052C1118.59 736.807 1119.8 743.614 1119.8 752.471V808.809H1104.79V753.457C1104.79 748.095 1104 743.777 1102.41 740.498C1099.79 735.031 1095.03 732.295 1088.14 732.295C1084.64 732.295 1081.77 732.653 1079.53 733.364C1075.49 734.567 1071.93 736.971 1068.87 740.577C1066.41 743.477 1064.8 746.482 1064.03 749.603C1063.32 752.661 1062.97 757.063 1062.97 762.804V808.809H1048.21V720.98Z" fill="#4C83C3"/>
</svg>
