<svg width="185" height="102" viewBox="0 0 185 102" fill="none" xmlns="http://www.w3.org/2000/svg">
<rect y="0.0625" width="185" height="48" rx="8" fill="#BB2D13"/>
<circle cx="27.9999" cy="24.0627" r="2.66667" fill="white"/>
<path d="M16 24.0625C16 17.4351 21.3726 12.0625 28 12.0625" stroke="white" stroke-width="3" stroke-linecap="round"/>
<path d="M40 24.0625C40 30.6899 34.6274 36.0625 28 36.0625" stroke="white" stroke-width="3" stroke-linecap="round"/>
<path d="M21.3333 24.0627C21.3333 20.3808 24.318 17.396 27.9999 17.396" stroke="white" stroke-width="3" stroke-linecap="round"/>
<path d="M34.6667 24.0623C34.6667 27.7442 31.682 30.729 28.0001 30.729" stroke="white" stroke-width="3" stroke-linecap="round"/>
<path d="M57.8 32.0625V15.2625H61.4V32.0625H57.8ZM72.4113 32.3745C71.2753 32.3745 70.2073 32.1505 69.2073 31.7025C68.2073 31.2465 67.3273 30.6185 66.5673 29.8185C65.8153 29.0185 65.2233 28.0945 64.7913 27.0465C64.3673 25.9905 64.1553 24.8625 64.1553 23.6625C64.1553 22.4545 64.3673 21.3265 64.7913 20.2785C65.2233 19.2225 65.8153 18.2985 66.5673 17.5065C67.3273 16.7065 68.2073 16.0825 69.2073 15.6345C70.2073 15.1785 71.2753 14.9505 72.4113 14.9505C73.7713 14.9505 75.0233 15.2665 76.1673 15.8985C77.3113 16.5225 78.2593 17.3585 79.0113 18.4065L75.7953 20.1345C75.3793 19.6545 74.8793 19.2705 74.2953 18.9825C73.7113 18.6945 73.0833 18.5505 72.4113 18.5505C71.7713 18.5505 71.1673 18.6825 70.5993 18.9465C70.0393 19.2105 69.5433 19.5785 69.1113 20.0505C68.6873 20.5145 68.3553 21.0545 68.1153 21.6705C67.8753 22.2865 67.7553 22.9505 67.7553 23.6625C67.7553 24.3665 67.8753 25.0265 68.1153 25.6425C68.3553 26.2585 68.6873 26.8025 69.1113 27.2745C69.5433 27.7385 70.0393 28.1065 70.5993 28.3785C71.1673 28.6425 71.7713 28.7745 72.4113 28.7745C73.0833 28.7745 73.7113 28.6305 74.2953 28.3425C74.8793 28.0465 75.3793 27.6545 75.7953 27.1665L79.0113 28.9185C78.2593 29.9585 77.3113 30.7945 76.1673 31.4265C75.0233 32.0585 73.7713 32.3745 72.4113 32.3745ZM81.1588 32.0625V15.2625H87.4948C88.4148 15.2625 89.2468 15.4985 89.9908 15.9705C90.7428 16.4345 91.3388 17.0585 91.7787 17.8425C92.2188 18.6185 92.4388 19.4705 92.4388 20.3985C92.4388 21.3425 92.2108 22.2025 91.7548 22.9785C91.3068 23.7545 90.7068 24.3745 89.9548 24.8385C89.2028 25.3025 88.3828 25.5345 87.4948 25.5345H84.7588V32.0625H81.1588ZM84.7588 21.9345H87.0868C87.4068 21.9345 87.6988 21.8545 87.9628 21.6945C88.2268 21.5265 88.4388 21.3065 88.5988 21.0345C88.7588 20.7625 88.8388 20.4625 88.8388 20.1345C88.8388 19.8065 88.7588 19.5065 88.5988 19.2345C88.4388 18.9625 88.2268 18.7465 87.9628 18.5865C87.6988 18.4185 87.4068 18.3345 87.0868 18.3345H84.7588V21.9345ZM102.622 32.3745C101.486 32.3745 100.418 32.1505 99.4183 31.7025C98.4183 31.2465 97.5383 30.6185 96.7783 29.8185C96.0263 29.0185 95.4343 28.0945 95.0023 27.0465C94.5783 25.9905 94.3663 24.8625 94.3663 23.6625C94.3663 22.4545 94.5783 21.3265 95.0023 20.2785C95.4343 19.2225 96.0263 18.2985 96.7783 17.5065C97.5383 16.7065 98.4183 16.0825 99.4183 15.6345C100.418 15.1785 101.486 14.9505 102.622 14.9505C103.982 14.9505 105.234 15.2665 106.378 15.8985C107.522 16.5225 108.47 17.3585 109.222 18.4065L106.006 20.1345C105.59 19.6545 105.09 19.2705 104.506 18.9825C103.922 18.6945 103.294 18.5505 102.622 18.5505C101.982 18.5505 101.378 18.6825 100.81 18.9465C100.25 19.2105 99.7543 19.5785 99.3223 20.0505C98.8983 20.5145 98.5663 21.0545 98.3263 21.6705C98.0863 22.2865 97.9663 22.9505 97.9663 23.6625C97.9663 24.3665 98.0863 25.0265 98.3263 25.6425C98.5663 26.2585 98.8983 26.8025 99.3223 27.2745C99.7543 27.7385 100.25 28.1065 100.81 28.3785C101.378 28.6425 101.982 28.7745 102.622 28.7745C103.294 28.7745 103.922 28.6305 104.506 28.3425C105.09 28.0465 105.59 27.6545 106.006 27.1665L109.222 28.9185C108.47 29.9585 107.522 30.7945 106.378 31.4265C105.234 32.0585 103.982 32.3745 102.622 32.3745ZM117.628 32.0625V15.2625H121.228V28.4625H127.828V32.0625H117.628ZM130.831 32.0625V15.2625H134.431V32.0625H130.831ZM143.523 32.0625L137.427 15.2625H141.243L145.851 27.9345L150.459 15.2625H154.275L148.179 32.0625H143.523ZM156.44 32.0625V15.2625H167.144V18.8625H160.04V21.2625H165.512V24.8625H160.04V28.4625H167.144V32.0625H156.44Z" fill="white"/>
<rect y="53.0625" width="185" height="48" rx="8" fill="#29313C"/>
<path d="M51.348 74.0825H49.044L47.652 79.2305H49.98L49.452 81.1745H47.148L46.092 85.0625H44.076L45.132 81.1745H39.792L38.748 85.0625H36.732L37.776 81.1745H35.46L35.988 79.2305H38.292L39.684 74.0825H37.356L37.884 72.1385H40.2L41.232 68.2625H43.248L42.216 72.1385H47.556L48.576 68.2625H50.592L49.572 72.1385H51.876L51.348 74.0825ZM45.636 79.2305L47.028 74.0825H41.7L40.308 79.2305H45.636ZM54.2681 73.0625H56.2841V85.0625H54.2681V73.0625ZM55.3001 71.1065C54.9801 71.1065 54.7121 71.0025 54.4961 70.7945C54.2801 70.5865 54.1721 70.3265 54.1721 70.0145C54.1721 69.7025 54.2801 69.4425 54.4961 69.2345C54.7121 69.0265 54.9761 68.9225 55.2881 68.9225C55.6001 68.9225 55.8641 69.0265 56.0801 69.2345C56.2961 69.4425 56.4041 69.7025 56.4041 70.0145C56.4041 70.3265 56.2961 70.5865 56.0801 70.7945C55.8721 71.0025 55.6121 71.1065 55.3001 71.1065ZM67.2705 81.8945L69.0705 82.8665C68.5265 83.6265 67.8345 84.2345 66.9945 84.6905C66.1625 85.1465 65.2585 85.3745 64.2825 85.3745C63.1785 85.3745 62.1705 85.0905 61.2585 84.5225C60.3545 83.9545 59.6305 83.1945 59.0865 82.2425C58.5505 81.2825 58.2825 80.2225 58.2825 79.0625C58.2825 78.1825 58.4385 77.3625 58.7505 76.6025C59.0625 75.8345 59.4905 75.1625 60.0345 74.5865C60.5865 74.0025 61.2265 73.5465 61.9545 73.2185C62.6825 72.8905 63.4585 72.7265 64.2825 72.7265C65.2585 72.7265 66.1625 72.9545 66.9945 73.4105C67.8345 73.8665 68.5265 74.4785 69.0705 75.2465L67.2705 76.2185C66.8865 75.7465 66.4305 75.3825 65.9025 75.1265C65.3745 74.8705 64.8345 74.7425 64.2825 74.7425C63.5385 74.7425 62.8625 74.9425 62.2545 75.3425C61.6545 75.7345 61.1785 76.2585 60.8265 76.9145C60.4745 77.5705 60.2985 78.2865 60.2985 79.0625C60.2985 79.8385 60.4745 80.5545 60.8265 81.2105C61.1865 81.8585 61.6665 82.3785 62.2665 82.7705C62.8745 83.1625 63.5465 83.3585 64.2825 83.3585C64.8745 83.3585 65.4305 83.2225 65.9505 82.9505C66.4705 82.6785 66.9105 82.3265 67.2705 81.8945ZM73.2529 91.0625H71.2369V73.0625H73.2529V75.1145C73.6609 74.4105 74.2049 73.8425 74.8849 73.4105C75.5649 72.9705 76.3729 72.7505 77.3089 72.7505C78.1809 72.7505 78.9969 72.9145 79.7569 73.2425C80.5249 73.5705 81.1969 74.0265 81.7729 74.6105C82.3489 75.1865 82.8009 75.8545 83.1289 76.6145C83.4569 77.3745 83.6209 78.1905 83.6209 79.0625C83.6209 79.9345 83.4569 80.7545 83.1289 81.5225C82.8009 82.2905 82.3489 82.9665 81.7729 83.5505C81.1969 84.1265 80.5249 84.5785 79.7569 84.9065C78.9969 85.2345 78.1809 85.3985 77.3089 85.3985C76.3729 85.3985 75.5649 85.1825 74.8849 84.7505C74.2049 84.3105 73.6609 83.7385 73.2529 83.0345V91.0625ZM77.2849 74.7065C76.5089 74.7065 75.8289 74.9025 75.2449 75.2945C74.6609 75.6865 74.2089 76.2105 73.8889 76.8665C73.5769 77.5225 73.4209 78.2545 73.4209 79.0625C73.4209 79.8625 73.5769 80.5945 73.8889 81.2585C74.2089 81.9225 74.6569 82.4505 75.2329 82.8425C75.8169 83.2345 76.5009 83.4305 77.2849 83.4305C78.0609 83.4305 78.7729 83.2385 79.4209 82.8545C80.0689 82.4625 80.5889 81.9385 80.9809 81.2825C81.3729 80.6185 81.5689 79.8785 81.5689 79.0625C81.5689 78.2625 81.3769 77.5345 80.9929 76.8785C80.6089 76.2145 80.0929 75.6865 79.4449 75.2945C78.7969 74.9025 78.0769 74.7065 77.2849 74.7065ZM93.8252 81.8945L95.6252 82.8665C95.0812 83.6265 94.3892 84.2345 93.5492 84.6905C92.7172 85.1465 91.8132 85.3745 90.8372 85.3745C89.7332 85.3745 88.7252 85.0905 87.8132 84.5225C86.9092 83.9545 86.1852 83.1945 85.6412 82.2425C85.1052 81.2825 84.8372 80.2225 84.8372 79.0625C84.8372 78.1825 84.9932 77.3625 85.3052 76.6025C85.6172 75.8345 86.0452 75.1625 86.5892 74.5865C87.1412 74.0025 87.7812 73.5465 88.5092 73.2185C89.2372 72.8905 90.0132 72.7265 90.8372 72.7265C91.8132 72.7265 92.7172 72.9545 93.5492 73.4105C94.3892 73.8665 95.0812 74.4785 95.6252 75.2465L93.8252 76.2185C93.4412 75.7465 92.9852 75.3825 92.4572 75.1265C91.9292 74.8705 91.3892 74.7425 90.8372 74.7425C90.0932 74.7425 89.4172 74.9425 88.8092 75.3425C88.2092 75.7345 87.7332 76.2585 87.3812 76.9145C87.0292 77.5705 86.8532 78.2865 86.8532 79.0625C86.8532 79.8385 87.0292 80.5545 87.3812 81.2105C87.7412 81.8585 88.2212 82.3785 88.8212 82.7705C89.4292 83.1625 90.1012 83.3585 90.8372 83.3585C91.4292 83.3585 91.9852 83.2225 92.5052 82.9505C93.0252 82.6785 93.4652 82.3265 93.8252 81.8945ZM97.3116 85.0625V83.2745C97.9276 82.7225 98.6196 82.1065 99.3876 81.4265C100.156 80.7385 100.92 80.0225 101.68 79.2785C102.448 78.5265 103.152 77.7825 103.792 77.0465C104.432 76.3105 104.948 75.6145 105.34 74.9585C105.732 74.2945 105.928 73.7145 105.928 73.2185C105.928 72.6265 105.784 72.0865 105.496 71.5985C105.208 71.1025 104.82 70.7065 104.332 70.4105C103.852 70.1145 103.316 69.9665 102.724 69.9665C102.132 69.9665 101.588 70.1145 101.092 70.4105C100.604 70.7065 100.212 71.1025 99.9156 71.5985C99.6276 72.0865 99.4836 72.6265 99.4836 73.2185H97.4676C97.4676 72.2345 97.7076 71.3465 98.1876 70.5545C98.6676 69.7545 99.3036 69.1225 100.096 68.6585C100.888 68.1865 101.764 67.9505 102.724 67.9505C103.684 67.9505 104.556 68.1865 105.34 68.6585C106.132 69.1305 106.764 69.7665 107.236 70.5665C107.708 71.3585 107.944 72.2425 107.944 73.2185C107.944 73.7785 107.808 74.3825 107.536 75.0305C107.264 75.6705 106.892 76.3305 106.42 77.0105C105.948 77.6905 105.412 78.3785 104.812 79.0745C104.212 79.7625 103.58 80.4425 102.916 81.1145C102.252 81.7865 101.592 82.4305 100.936 83.0465H108.16V85.0625H97.3116ZM116.172 85.3745C115.172 85.3745 114.276 85.1505 113.484 84.7025C112.692 84.2465 112.012 83.6185 111.444 82.8185C110.876 82.0185 110.444 81.0945 110.148 80.0465C109.852 78.9905 109.704 77.8625 109.704 76.6625C109.704 75.4625 109.852 74.3345 110.148 73.2785C110.444 72.2225 110.876 71.2985 111.444 70.5065C112.012 69.7065 112.692 69.0825 113.484 68.6345C114.276 68.1785 115.172 67.9505 116.172 67.9505C117.164 67.9505 118.056 68.1785 118.848 68.6345C119.648 69.0825 120.324 69.7065 120.876 70.5065C121.436 71.2985 121.864 72.2225 122.16 73.2785C122.464 74.3345 122.616 75.4625 122.616 76.6625C122.616 77.8625 122.464 78.9905 122.16 80.0465C121.864 81.0945 121.436 82.0185 120.876 82.8185C120.324 83.6185 119.648 84.2465 118.848 84.7025C118.056 85.1505 117.164 85.3745 116.172 85.3745ZM116.172 83.3585C117.172 83.3585 118.008 83.0505 118.68 82.4345C119.36 81.8105 119.868 80.9905 120.204 79.9745C120.54 78.9585 120.708 77.8545 120.708 76.6625C120.708 75.4065 120.532 74.2745 120.18 73.2665C119.836 72.2505 119.324 71.4465 118.644 70.8545C117.972 70.2625 117.148 69.9665 116.172 69.9665C115.404 69.9665 114.732 70.1465 114.156 70.5065C113.588 70.8665 113.116 71.3585 112.74 71.9825C112.364 72.6065 112.08 73.3225 111.888 74.1305C111.704 74.9305 111.612 75.7745 111.612 76.6625C111.612 77.8545 111.784 78.9625 112.128 79.9865C112.472 81.0025 112.98 81.8185 113.652 82.4345C114.332 83.0505 115.172 83.3585 116.172 83.3585ZM124.288 85.0625V83.2745C124.904 82.7225 125.596 82.1065 126.364 81.4265C127.132 80.7385 127.896 80.0225 128.656 79.2785C129.424 78.5265 130.128 77.7825 130.768 77.0465C131.408 76.3105 131.924 75.6145 132.316 74.9585C132.708 74.2945 132.904 73.7145 132.904 73.2185C132.904 72.6265 132.76 72.0865 132.472 71.5985C132.184 71.1025 131.796 70.7065 131.308 70.4105C130.828 70.1145 130.292 69.9665 129.7 69.9665C129.108 69.9665 128.564 70.1145 128.068 70.4105C127.58 70.7065 127.188 71.1025 126.892 71.5985C126.604 72.0865 126.46 72.6265 126.46 73.2185H124.444C124.444 72.2345 124.684 71.3465 125.164 70.5545C125.644 69.7545 126.28 69.1225 127.072 68.6585C127.864 68.1865 128.74 67.9505 129.7 67.9505C130.66 67.9505 131.532 68.1865 132.316 68.6585C133.108 69.1305 133.74 69.7665 134.212 70.5665C134.684 71.3585 134.92 72.2425 134.92 73.2185C134.92 73.7785 134.784 74.3825 134.512 75.0305C134.24 75.6705 133.868 76.3305 133.396 77.0105C132.924 77.6905 132.388 78.3785 131.788 79.0745C131.188 79.7625 130.556 80.4425 129.892 81.1145C129.228 81.7865 128.568 82.4305 127.912 83.0465H135.136V85.0625H124.288ZM137.53 85.0625V83.2745C138.146 82.7225 138.838 82.1065 139.606 81.4265C140.374 80.7385 141.138 80.0225 141.898 79.2785C142.666 78.5265 143.37 77.7825 144.01 77.0465C144.65 76.3105 145.166 75.6145 145.558 74.9585C145.95 74.2945 146.146 73.7145 146.146 73.2185C146.146 72.6265 146.002 72.0865 145.714 71.5985C145.426 71.1025 145.038 70.7065 144.55 70.4105C144.07 70.1145 143.534 69.9665 142.942 69.9665C142.35 69.9665 141.806 70.1145 141.31 70.4105C140.822 70.7065 140.43 71.1025 140.134 71.5985C139.846 72.0865 139.702 72.6265 139.702 73.2185H137.686C137.686 72.2345 137.926 71.3465 138.406 70.5545C138.886 69.7545 139.522 69.1225 140.314 68.6585C141.106 68.1865 141.982 67.9505 142.942 67.9505C143.902 67.9505 144.774 68.1865 145.558 68.6585C146.35 69.1305 146.982 69.7665 147.454 70.5665C147.926 71.3585 148.162 72.2425 148.162 73.2185C148.162 73.7785 148.026 74.3825 147.754 75.0305C147.482 75.6705 147.11 76.3305 146.638 77.0105C146.166 77.6905 145.63 78.3785 145.03 79.0745C144.43 79.7625 143.798 80.4425 143.134 81.1145C142.47 81.7865 141.81 82.4305 141.154 83.0465H148.378V85.0625H137.53Z" fill="white"/>
</svg>
